<?xml version="1.0" encoding="UTF-8" standalone="no"?>
<!DOCTYPE svg PUBLIC "-//W3C//DTD SVG 1.1//EN"
 "http://www.w3.org/Graphics/SVG/1.1/DTD/svg11.dtd">
<!-- Generated by graphviz version 2.40.1 (20161225.0304)
 -->
<!-- Title: snakemake_dag Pages: 1 -->
<svg width="922pt" height="692pt"
 viewBox="0.00 0.00 921.50 692.00" xmlns="http://www.w3.org/2000/svg" xmlns:xlink="http://www.w3.org/1999/xlink">
<g id="graph0" class="graph" transform="scale(1 1) rotate(0) translate(4 688)">
<title>snakemake_dag</title>
<polygon fill="#ffffff" stroke="transparent" points="-4,4 -4,-688 917.5,-688 917.5,4 -4,4"/>
<!-- 0 -->
<g id="node1" class="node">
<title>0</title>
<path fill="none" stroke="#b6d856" stroke-width="2" d="M442,-36C442,-36 412,-36 412,-36 406,-36 400,-30 400,-24 400,-24 400,-12 400,-12 400,-6 406,0 412,0 412,0 442,0 442,0 448,0 454,-6 454,-12 454,-12 454,-24 454,-24 454,-30 448,-36 442,-36"/>
<text text-anchor="middle" x="427" y="-15.5" font-family="sans" font-size="10.00" fill="#000000">finish</text>
</g>
<!-- 1 -->
<g id="node2" class="node">
<title>1</title>
<path fill="none" stroke="#d85656" stroke-width="2" d="M443,-108C443,-108 411,-108 411,-108 405,-108 399,-102 399,-96 399,-96 399,-84 399,-84 399,-78 405,-72 411,-72 411,-72 443,-72 443,-72 449,-72 455,-78 455,-84 455,-84 455,-96 455,-96 455,-102 449,-108 443,-108"/>
<text text-anchor="middle" x="427" y="-87.5" font-family="sans" font-size="10.00" fill="#000000">finished</text>
</g>
<!-- 1&#45;&gt;0 -->
<g id="edge1" class="edge">
<title>1&#45;&gt;0</title>
<path fill="none" stroke="#c0c0c0" stroke-width="2" d="M427,-71.8314C427,-64.131 427,-54.9743 427,-46.4166"/>
<polygon fill="#c0c0c0" stroke="#c0c0c0" stroke-width="2" points="430.5001,-46.4132 427,-36.4133 423.5001,-46.4133 430.5001,-46.4132"/>
</g>
<!-- 2 -->
<g id="node3" class="node">
<title>2</title>
<path fill="none" stroke="#56d8b9" stroke-width="2" d="M197.5,-180C197.5,-180 30.5,-180 30.5,-180 24.5,-180 18.5,-174 18.5,-168 18.5,-168 18.5,-156 18.5,-156 18.5,-150 24.5,-144 30.5,-144 30.5,-144 197.5,-144 197.5,-144 203.5,-144 209.5,-150 209.5,-156 209.5,-156 209.5,-168 209.5,-168 209.5,-174 203.5,-180 197.5,-180"/>
<text text-anchor="middle" x="114" y="-159.5" font-family="sans" font-size="10.00" fill="#000000">Visualize_Results_Above_Threshold</text>
</g>
<!-- 2&#45;&gt;1 -->
<g id="edge2" class="edge">
<title>2&#45;&gt;1</title>
<path fill="none" stroke="#c0c0c0" stroke-width="2" d="M192.5791,-143.9243C255.3011,-129.4962 340.4417,-109.9112 388.9649,-98.7493"/>
<polygon fill="#c0c0c0" stroke="#c0c0c0" stroke-width="2" points="389.7813,-102.153 398.7422,-96.5002 388.212,-95.3311 389.7813,-102.153"/>
</g>
<!-- 3 -->
<g id="node4" class="node">
<title>3</title>
<path fill="none" stroke="#56d8b9" stroke-width="2" d="M615.5,-180C615.5,-180 448.5,-180 448.5,-180 442.5,-180 436.5,-174 436.5,-168 436.5,-168 436.5,-156 436.5,-156 436.5,-150 442.5,-144 448.5,-144 448.5,-144 615.5,-144 615.5,-144 621.5,-144 627.5,-150 627.5,-156 627.5,-156 627.5,-168 627.5,-168 627.5,-174 621.5,-180 615.5,-180"/>
<text text-anchor="middle" x="532" y="-159.5" font-family="sans" font-size="10.00" fill="#000000">Visualize_Results_Above_Threshold</text>
</g>
<!-- 3&#45;&gt;1 -->
<g id="edge3" class="edge">
<title>3&#45;&gt;1</title>
<path fill="none" stroke="#c0c0c0" stroke-width="2" d="M505.5041,-143.8314C492.3226,-134.7927 476.2153,-123.7476 462.0289,-114.0198"/>
<polygon fill="#c0c0c0" stroke="#c0c0c0" stroke-width="2" points="463.7141,-110.9316 453.4875,-108.1628 459.7554,-116.7047 463.7141,-110.9316"/>
</g>
<!-- 4 -->
<g id="node5" class="node">
<title>4</title>
<path fill="none" stroke="#d87d56" stroke-width="2" d="M406.5,-180C406.5,-180 239.5,-180 239.5,-180 233.5,-180 227.5,-174 227.5,-168 227.5,-168 227.5,-156 227.5,-156 227.5,-150 233.5,-144 239.5,-144 239.5,-144 406.5,-144 406.5,-144 412.5,-144 418.5,-150 418.5,-156 418.5,-156 418.5,-168 418.5,-168 418.5,-174 412.5,-180 406.5,-180"/>
<text text-anchor="middle" x="323" y="-159.5" font-family="sans" font-size="10.00" fill="#000000">Visualize_Results_Below_Threshold</text>
</g>
<!-- 4&#45;&gt;1 -->
<g id="edge4" class="edge">
<title>4&#45;&gt;1</title>
<path fill="none" stroke="#c0c0c0" stroke-width="2" d="M349.2436,-143.8314C362.2995,-134.7927 378.2535,-123.7476 392.3047,-114.0198"/>
<polygon fill="#c0c0c0" stroke="#c0c0c0" stroke-width="2" points="394.5351,-116.7326 400.7648,-108.1628 390.5506,-110.9773 394.5351,-116.7326"/>
</g>
<!-- 5 -->
<g id="node6" class="node">
<title>5</title>
<path fill="none" stroke="#d87d56" stroke-width="2" d="M824.5,-180C824.5,-180 657.5,-180 657.5,-180 651.5,-180 645.5,-174 645.5,-168 645.5,-168 645.5,-156 645.5,-156 645.5,-150 651.5,-144 657.5,-144 657.5,-144 824.5,-144 824.5,-144 830.5,-144 836.5,-150 836.5,-156 836.5,-156 836.5,-168 836.5,-168 836.5,-174 830.5,-180 824.5,-180"/>
<text text-anchor="middle" x="741" y="-159.5" font-family="sans" font-size="10.00" fill="#000000">Visualize_Results_Below_Threshold</text>
</g>
<!-- 5&#45;&gt;1 -->
<g id="edge5" class="edge">
<title>5&#45;&gt;1</title>
<path fill="none" stroke="#c0c0c0" stroke-width="2" d="M662.1698,-143.9243C599.2475,-129.4962 513.8348,-109.9112 465.1566,-98.7493"/>
<polygon fill="#c0c0c0" stroke="#c0c0c0" stroke-width="2" points="465.8774,-95.3238 455.3481,-96.5002 464.3129,-102.1467 465.8774,-95.3238"/>
</g>
<!-- 6 -->
<g id="node7" class="node">
<title>6</title>
<path fill="none" stroke="#56d892" stroke-width="2" d="M243.5,-252C243.5,-252 168.5,-252 168.5,-252 162.5,-252 156.5,-246 156.5,-240 156.5,-240 156.5,-228 156.5,-228 156.5,-222 162.5,-216 168.5,-216 168.5,-216 243.5,-216 243.5,-216 249.5,-216 255.5,-222 255.5,-228 255.5,-228 255.5,-240 255.5,-240 255.5,-246 249.5,-252 243.5,-252"/>
<text text-anchor="middle" x="206" y="-231.5" font-family="sans" font-size="10.00" fill="#000000">Filter_Sequences</text>
</g>
<!-- 6&#45;&gt;2 -->
<g id="edge6" class="edge">
<title>6&#45;&gt;2</title>
<path fill="none" stroke="#c0c0c0" stroke-width="2" d="M182.7845,-215.8314C171.453,-206.9632 157.6536,-196.1637 145.3973,-186.5718"/>
<polygon fill="#c0c0c0" stroke="#c0c0c0" stroke-width="2" points="147.2402,-183.5697 137.2081,-180.1628 142.926,-189.0822 147.2402,-183.5697"/>
</g>
<!-- 6&#45;&gt;4 -->
<g id="edge8" class="edge">
<title>6&#45;&gt;4</title>
<path fill="none" stroke="#c0c0c0" stroke-width="2" d="M235.524,-215.8314C250.4891,-206.6221 268.8386,-195.3301 284.8603,-185.4706"/>
<polygon fill="#c0c0c0" stroke="#c0c0c0" stroke-width="2" points="286.8032,-188.3847 293.4854,-180.1628 283.1345,-182.423 286.8032,-188.3847"/>
</g>
<!-- 7 -->
<g id="node8" class="node">
<title>7</title>
<path fill="none" stroke="#56d892" stroke-width="2" d="M662.5,-252C662.5,-252 587.5,-252 587.5,-252 581.5,-252 575.5,-246 575.5,-240 575.5,-240 575.5,-228 575.5,-228 575.5,-222 581.5,-216 587.5,-216 587.5,-216 662.5,-216 662.5,-216 668.5,-216 674.5,-222 674.5,-228 674.5,-228 674.5,-240 674.5,-240 674.5,-246 668.5,-252 662.5,-252"/>
<text text-anchor="middle" x="625" y="-231.5" font-family="sans" font-size="10.00" fill="#000000">Filter_Sequences</text>
</g>
<!-- 7&#45;&gt;3 -->
<g id="edge7" class="edge">
<title>7&#45;&gt;3</title>
<path fill="none" stroke="#c0c0c0" stroke-width="2" d="M601.5322,-215.8314C589.9673,-206.8779 575.8596,-195.9558 563.3817,-186.2955"/>
<polygon fill="#c0c0c0" stroke="#c0c0c0" stroke-width="2" points="565.5102,-183.5171 555.4603,-180.1628 561.225,-189.0521 565.5102,-183.5171"/>
</g>
<!-- 7&#45;&gt;5 -->
<g id="edge9" class="edge">
<title>7&#45;&gt;5</title>
<path fill="none" stroke="#c0c0c0" stroke-width="2" d="M654.2717,-215.8314C669.1088,-206.6221 687.3015,-195.3301 703.1862,-185.4706"/>
<polygon fill="#c0c0c0" stroke="#c0c0c0" stroke-width="2" points="705.087,-188.4102 711.7377,-180.1628 701.3955,-182.4628 705.087,-188.4102"/>
</g>
<!-- 8 -->
<g id="node9" class="node">
<title>8</title>
<path fill="none" stroke="#8fd856" stroke-width="2" d="M238,-324C238,-324 174,-324 174,-324 168,-324 162,-318 162,-312 162,-312 162,-300 162,-300 162,-294 168,-288 174,-288 174,-288 238,-288 238,-288 244,-288 250,-294 250,-300 250,-300 250,-312 250,-312 250,-318 244,-324 238,-324"/>
<text text-anchor="middle" x="206" y="-303.5" font-family="sans" font-size="10.00" fill="#000000">Merge_Results</text>
</g>
<!-- 8&#45;&gt;6 -->
<g id="edge10" class="edge">
<title>8&#45;&gt;6</title>
<path fill="none" stroke="#c0c0c0" stroke-width="2" d="M206,-287.8314C206,-280.131 206,-270.9743 206,-262.4166"/>
<polygon fill="#c0c0c0" stroke="#c0c0c0" stroke-width="2" points="209.5001,-262.4132 206,-252.4133 202.5001,-262.4133 209.5001,-262.4132"/>
</g>
<!-- 9 -->
<g id="node10" class="node">
<title>9</title>
<path fill="none" stroke="#8fd856" stroke-width="2" d="M657,-324C657,-324 593,-324 593,-324 587,-324 581,-318 581,-312 581,-312 581,-300 581,-300 581,-294 587,-288 593,-288 593,-288 657,-288 657,-288 663,-288 669,-294 669,-300 669,-300 669,-312 669,-312 669,-318 663,-324 657,-324"/>
<text text-anchor="middle" x="625" y="-303.5" font-family="sans" font-size="10.00" fill="#000000">Merge_Results</text>
</g>
<!-- 9&#45;&gt;7 -->
<g id="edge11" class="edge">
<title>9&#45;&gt;7</title>
<path fill="none" stroke="#c0c0c0" stroke-width="2" d="M625,-287.8314C625,-280.131 625,-270.9743 625,-262.4166"/>
<polygon fill="#c0c0c0" stroke="#c0c0c0" stroke-width="2" points="628.5001,-262.4132 625,-252.4133 621.5001,-262.4133 628.5001,-262.4132"/>
</g>
<!-- 10 -->
<g id="node11" class="node">
<title>10</title>
<path fill="none" stroke="#567bd8" stroke-width="2" d="M214,-396C214,-396 12,-396 12,-396 6,-396 0,-390 0,-384 0,-384 0,-372 0,-372 0,-366 6,-360 12,-360 12,-360 214,-360 214,-360 220,-360 226,-366 226,-372 226,-372 226,-384 226,-384 226,-390 220,-396 214,-396"/>
<text text-anchor="middle" x="113" y="-375.5" font-family="sans" font-size="10.00" fill="#000000">Retrieve_Exonerate_Sequence_Similarities</text>
</g>
<!-- 10&#45;&gt;8 -->
<g id="edge12" class="edge">
<title>10&#45;&gt;8</title>
<path fill="none" stroke="#c0c0c0" stroke-width="2" d="M136.4678,-359.8314C148.0327,-350.8779 162.1404,-339.9558 174.6183,-330.2955"/>
<polygon fill="#c0c0c0" stroke="#c0c0c0" stroke-width="2" points="176.775,-333.0521 182.5397,-324.1628 172.4898,-327.5171 176.775,-333.0521"/>
</g>
<!-- 11 -->
<g id="node12" class="node">
<title>11</title>
<path fill="none" stroke="#56a9d8" stroke-width="2" d="M435.5,-396C435.5,-396 256.5,-396 256.5,-396 250.5,-396 244.5,-390 244.5,-384 244.5,-384 244.5,-372 244.5,-372 244.5,-366 250.5,-360 256.5,-360 256.5,-360 435.5,-360 435.5,-360 441.5,-360 447.5,-366 447.5,-372 447.5,-372 447.5,-384 447.5,-384 447.5,-390 441.5,-396 435.5,-396"/>
<text text-anchor="middle" x="346" y="-375.5" font-family="sans" font-size="10.00" fill="#000000">Retrieve_Spaln_Sequence_Similarities</text>
</g>
<!-- 11&#45;&gt;8 -->
<g id="edge13" class="edge">
<title>11&#45;&gt;8</title>
<path fill="none" stroke="#c0c0c0" stroke-width="2" d="M310.6721,-359.8314C292.3507,-350.4089 269.7898,-338.8062 250.3105,-328.7883"/>
<polygon fill="#c0c0c0" stroke="#c0c0c0" stroke-width="2" points="251.8102,-325.6239 241.3166,-324.1628 248.6088,-331.8489 251.8102,-325.6239"/>
</g>
<!-- 12 -->
<g id="node13" class="node">
<title>12</title>
<path fill="none" stroke="#567bd8" stroke-width="2" d="M680,-396C680,-396 478,-396 478,-396 472,-396 466,-390 466,-384 466,-384 466,-372 466,-372 466,-366 472,-360 478,-360 478,-360 680,-360 680,-360 686,-360 692,-366 692,-372 692,-372 692,-384 692,-384 692,-390 686,-396 680,-396"/>
<text text-anchor="middle" x="579" y="-375.5" font-family="sans" font-size="10.00" fill="#000000">Retrieve_Exonerate_Sequence_Similarities</text>
</g>
<!-- 12&#45;&gt;9 -->
<g id="edge14" class="edge">
<title>12&#45;&gt;9</title>
<path fill="none" stroke="#c0c0c0" stroke-width="2" d="M590.6077,-359.8314C595.7978,-351.7079 602.0232,-341.9637 607.7425,-333.0118"/>
<polygon fill="#c0c0c0" stroke="#c0c0c0" stroke-width="2" points="610.8015,-334.7246 613.236,-324.4133 604.9026,-330.9559 610.8015,-334.7246"/>
</g>
<!-- 13 -->
<g id="node14" class="node">
<title>13</title>
<path fill="none" stroke="#56a9d8" stroke-width="2" d="M901.5,-396C901.5,-396 722.5,-396 722.5,-396 716.5,-396 710.5,-390 710.5,-384 710.5,-384 710.5,-372 710.5,-372 710.5,-366 716.5,-360 722.5,-360 722.5,-360 901.5,-360 901.5,-360 907.5,-360 913.5,-366 913.5,-372 913.5,-372 913.5,-384 913.5,-384 913.5,-390 907.5,-396 901.5,-396"/>
<text text-anchor="middle" x="812" y="-375.5" font-family="sans" font-size="10.00" fill="#000000">Retrieve_Spaln_Sequence_Similarities</text>
</g>
<!-- 13&#45;&gt;9 -->
<g id="edge15" class="edge">
<title>13&#45;&gt;9</title>
<path fill="none" stroke="#c0c0c0" stroke-width="2" d="M764.812,-359.8314C738.5829,-349.7325 705.8488,-337.129 678.6495,-326.6565"/>
<polygon fill="#c0c0c0" stroke="#c0c0c0" stroke-width="2" points="679.8692,-323.3757 669.2794,-323.0487 677.3539,-329.9082 679.8692,-323.3757"/>
</g>
<!-- 14 -->
<g id="node15" class="node">
<title>14</title>
<path fill="none" stroke="#68d856" stroke-width="2" d="M214,-468C214,-468 86,-468 86,-468 80,-468 74,-462 74,-456 74,-456 74,-444 74,-444 74,-438 80,-432 86,-432 86,-432 214,-432 214,-432 220,-432 226,-438 226,-444 226,-444 226,-456 226,-456 226,-462 220,-468 214,-468"/>
<text text-anchor="middle" x="150" y="-447.5" font-family="sans" font-size="10.00" fill="#000000">Build_Exonerate_Alignment</text>
</g>
<!-- 14&#45;&gt;10 -->
<g id="edge16" class="edge">
<title>14&#45;&gt;10</title>
<path fill="none" stroke="#c0c0c0" stroke-width="2" d="M140.6633,-431.8314C136.5757,-423.8771 131.6896,-414.369 127.1691,-405.5723"/>
<polygon fill="#c0c0c0" stroke="#c0c0c0" stroke-width="2" points="130.1461,-403.7078 122.4624,-396.4133 123.9201,-406.9074 130.1461,-403.7078"/>
</g>
<!-- 15 -->
<g id="node16" class="node">
<title>15</title>
<path fill="none" stroke="#56d86b" stroke-width="2" d="M398.5,-468C398.5,-468 293.5,-468 293.5,-468 287.5,-468 281.5,-462 281.5,-456 281.5,-456 281.5,-444 281.5,-444 281.5,-438 287.5,-432 293.5,-432 293.5,-432 398.5,-432 398.5,-432 404.5,-432 410.5,-438 410.5,-444 410.5,-444 410.5,-456 410.5,-456 410.5,-462 404.5,-468 398.5,-468"/>
<text text-anchor="middle" x="346" y="-447.5" font-family="sans" font-size="10.00" fill="#000000">Build_Spaln_Alignment</text>
</g>
<!-- 15&#45;&gt;11 -->
<g id="edge17" class="edge">
<title>15&#45;&gt;11</title>
<path fill="none" stroke="#c0c0c0" stroke-width="2" d="M346,-431.8314C346,-424.131 346,-414.9743 346,-406.4166"/>
<polygon fill="#c0c0c0" stroke="#c0c0c0" stroke-width="2" points="349.5001,-406.4132 346,-396.4133 342.5001,-406.4133 349.5001,-406.4132"/>
</g>
<!-- 16 -->
<g id="node17" class="node">
<title>16</title>
<path fill="none" stroke="#68d856" stroke-width="2" d="M643,-468C643,-468 515,-468 515,-468 509,-468 503,-462 503,-456 503,-456 503,-444 503,-444 503,-438 509,-432 515,-432 515,-432 643,-432 643,-432 649,-432 655,-438 655,-444 655,-444 655,-456 655,-456 655,-462 649,-468 643,-468"/>
<text text-anchor="middle" x="579" y="-447.5" font-family="sans" font-size="10.00" fill="#000000">Build_Exonerate_Alignment</text>
</g>
<!-- 16&#45;&gt;12 -->
<g id="edge18" class="edge">
<title>16&#45;&gt;12</title>
<path fill="none" stroke="#c0c0c0" stroke-width="2" d="M579,-431.8314C579,-424.131 579,-414.9743 579,-406.4166"/>
<polygon fill="#c0c0c0" stroke="#c0c0c0" stroke-width="2" points="582.5001,-406.4132 579,-396.4133 575.5001,-406.4133 582.5001,-406.4132"/>
</g>
<!-- 17 -->
<g id="node18" class="node">
<title>17</title>
<path fill="none" stroke="#56d86b" stroke-width="2" d="M827.5,-468C827.5,-468 722.5,-468 722.5,-468 716.5,-468 710.5,-462 710.5,-456 710.5,-456 710.5,-444 710.5,-444 710.5,-438 716.5,-432 722.5,-432 722.5,-432 827.5,-432 827.5,-432 833.5,-432 839.5,-438 839.5,-444 839.5,-444 839.5,-456 839.5,-456 839.5,-462 833.5,-468 827.5,-468"/>
<text text-anchor="middle" x="775" y="-447.5" font-family="sans" font-size="10.00" fill="#000000">Build_Spaln_Alignment</text>
</g>
<!-- 17&#45;&gt;13 -->
<g id="edge19" class="edge">
<title>17&#45;&gt;13</title>
<path fill="none" stroke="#c0c0c0" stroke-width="2" d="M784.3367,-431.8314C788.4243,-423.8771 793.3104,-414.369 797.8309,-405.5723"/>
<polygon fill="#c0c0c0" stroke="#c0c0c0" stroke-width="2" points="801.0799,-406.9074 802.5376,-396.4133 794.8539,-403.7078 801.0799,-406.9074"/>
</g>
<!-- 18 -->
<g id="node19" class="node">
<title>18</title>
<path fill="none" stroke="#d8cb56" stroke-width="2" d="M410,-540C410,-540 282,-540 282,-540 276,-540 270,-534 270,-528 270,-528 270,-516 270,-516 270,-510 276,-504 282,-504 282,-504 410,-504 410,-504 416,-504 422,-510 422,-516 422,-516 422,-528 422,-528 422,-534 416,-540 410,-540"/>
<text text-anchor="middle" x="346" y="-519.5" font-family="sans" font-size="10.00" fill="#000000">Filter_Out_Useless_Regions</text>
</g>
<!-- 18&#45;&gt;14 -->
<g id="edge20" class="edge">
<title>18&#45;&gt;14</title>
<path fill="none" stroke="#c0c0c0" stroke-width="2" d="M296.7939,-503.9243C270.1161,-494.1243 236.9614,-481.945 208.9148,-471.6422"/>
<polygon fill="#c0c0c0" stroke="#c0c0c0" stroke-width="2" points="209.8199,-468.246 199.2263,-468.0831 207.4062,-474.8167 209.8199,-468.246"/>
</g>
<!-- 18&#45;&gt;15 -->
<g id="edge21" class="edge">
<title>18&#45;&gt;15</title>
<path fill="none" stroke="#c0c0c0" stroke-width="2" d="M346,-503.8314C346,-496.131 346,-486.9743 346,-478.4166"/>
<polygon fill="#c0c0c0" stroke="#c0c0c0" stroke-width="2" points="349.5001,-478.4132 346,-468.4133 342.5001,-478.4133 349.5001,-478.4132"/>
</g>
<!-- 19 -->
<g id="node20" class="node">
<title>19</title>
<path fill="none" stroke="#d8cb56" stroke-width="2" d="M643,-540C643,-540 515,-540 515,-540 509,-540 503,-534 503,-528 503,-528 503,-516 503,-516 503,-510 509,-504 515,-504 515,-504 643,-504 643,-504 649,-504 655,-510 655,-516 655,-516 655,-528 655,-528 655,-534 649,-540 643,-540"/>
<text text-anchor="middle" x="579" y="-519.5" font-family="sans" font-size="10.00" fill="#000000">Filter_Out_Useless_Regions</text>
</g>
<!-- 19&#45;&gt;16 -->
<g id="edge22" class="edge">
<title>19&#45;&gt;16</title>
<path fill="none" stroke="#c0c0c0" stroke-width="2" d="M579,-503.8314C579,-496.131 579,-486.9743 579,-478.4166"/>
<polygon fill="#c0c0c0" stroke="#c0c0c0" stroke-width="2" points="582.5001,-478.4132 579,-468.4133 575.5001,-478.4133 582.5001,-478.4132"/>
</g>
<!-- 19&#45;&gt;17 -->
<g id="edge23" class="edge">
<title>19&#45;&gt;17</title>
<path fill="none" stroke="#c0c0c0" stroke-width="2" d="M628.2061,-503.9243C654.8839,-494.1243 688.0386,-481.945 716.0852,-471.6422"/>
<polygon fill="#c0c0c0" stroke="#c0c0c0" stroke-width="2" points="717.5938,-474.8167 725.7737,-468.0831 715.1801,-468.246 717.5938,-474.8167"/>
</g>
<!-- 20 -->
<g id="node21" class="node">
<title>20</title>
<path fill="none" stroke="#d8a456" stroke-width="2" d="M441.5,-612C441.5,-612 368.5,-612 368.5,-612 362.5,-612 356.5,-606 356.5,-600 356.5,-600 356.5,-588 356.5,-588 356.5,-582 362.5,-576 368.5,-576 368.5,-576 441.5,-576 441.5,-576 447.5,-576 453.5,-582 453.5,-588 453.5,-588 453.5,-600 453.5,-600 453.5,-606 447.5,-612 441.5,-612"/>
<text text-anchor="middle" x="405" y="-597" font-family="sans" font-size="10.00" fill="#000000">Find_Candidates</text>
<text text-anchor="middle" x="405" y="-586" font-family="sans" font-size="10.00" fill="#000000">query: proteins1</text>
</g>
<!-- 20&#45;&gt;18 -->
<g id="edge24" class="edge">
<title>20&#45;&gt;18</title>
<path fill="none" stroke="#c0c0c0" stroke-width="2" d="M390.1118,-575.8314C383.247,-567.454 374.9699,-557.3531 367.4489,-548.1749"/>
<polygon fill="#c0c0c0" stroke="#c0c0c0" stroke-width="2" points="370.1341,-545.9297 361.0886,-540.4133 364.7197,-550.3665 370.1341,-545.9297"/>
</g>
<!-- 21 -->
<g id="node22" class="node">
<title>21</title>
<path fill="none" stroke="#d8a456" stroke-width="2" d="M585.5,-612C585.5,-612 512.5,-612 512.5,-612 506.5,-612 500.5,-606 500.5,-600 500.5,-600 500.5,-588 500.5,-588 500.5,-582 506.5,-576 512.5,-576 512.5,-576 585.5,-576 585.5,-576 591.5,-576 597.5,-582 597.5,-588 597.5,-588 597.5,-600 597.5,-600 597.5,-606 591.5,-612 585.5,-612"/>
<text text-anchor="middle" x="549" y="-597" font-family="sans" font-size="10.00" fill="#000000">Find_Candidates</text>
<text text-anchor="middle" x="549" y="-586" font-family="sans" font-size="10.00" fill="#000000">query: proteins2</text>
</g>
<!-- 21&#45;&gt;19 -->
<g id="edge25" class="edge">
<title>21&#45;&gt;19</title>
<path fill="none" stroke="#c0c0c0" stroke-width="2" d="M556.5703,-575.8314C559.8493,-567.9617 563.762,-558.5712 567.3945,-549.8533"/>
<polygon fill="#c0c0c0" stroke="#c0c0c0" stroke-width="2" points="570.7124,-550.9902 571.3278,-540.4133 564.2508,-548.2979 570.7124,-550.9902"/>
</g>
<!-- 22 -->
<g id="node23" class="node">
<title>22</title>
<path fill="none" stroke="#56d0d8" stroke-width="2" d="M512.5,-684C512.5,-684 411.5,-684 411.5,-684 405.5,-684 399.5,-678 399.5,-672 399.5,-672 399.5,-660 399.5,-660 399.5,-654 405.5,-648 411.5,-648 411.5,-648 512.5,-648 512.5,-648 518.5,-648 524.5,-654 524.5,-660 524.5,-660 524.5,-672 524.5,-672 524.5,-678 518.5,-684 512.5,-684"/>
<text text-anchor="middle" x="462" y="-669" font-family="sans" font-size="10.00" fill="#000000">Build_DNA_Databases</text>
<text text-anchor="middle" x="462" y="-658" font-family="sans" font-size="10.00" fill="#000000">subject: genome</text>
</g>
<!-- 22&#45;&gt;20 -->
<g id="edge26" class="edge">
<title>22&#45;&gt;20</title>
<path fill="none" stroke="#c0c0c0" stroke-width="2" d="M447.6165,-647.8314C441.0514,-639.5386 433.1493,-629.557 425.9422,-620.4533"/>
<polygon fill="#c0c0c0" stroke="#c0c0c0" stroke-width="2" points="428.5284,-618.0813 419.5772,-612.4133 423.0401,-622.4262 428.5284,-618.0813"/>
</g>
<!-- 22&#45;&gt;21 -->
<g id="edge27" class="edge">
<title>22&#45;&gt;21</title>
<path fill="none" stroke="#c0c0c0" stroke-width="2" d="M483.9538,-647.8314C494.6695,-638.9632 507.7189,-628.1637 519.309,-618.5718"/>
<polygon fill="#c0c0c0" stroke="#c0c0c0" stroke-width="2" points="521.5808,-621.2349 527.0533,-612.1628 517.1178,-615.8422 521.5808,-621.2349"/>
</g>
</g>
</svg>
