<?xml version="1.0" encoding="UTF-8" standalone="no"?>
<!DOCTYPE svg PUBLIC "-//W3C//DTD SVG 1.1//EN"
 "http://www.w3.org/Graphics/SVG/1.1/DTD/svg11.dtd">
<!-- Generated by graphviz version 2.40.1 (20161225.0304)
 -->
<!-- Title: snakemake_dag Pages: 1 -->
<svg width="926pt" height="620pt"
 viewBox="0.00 0.00 926.00 620.00" xmlns="http://www.w3.org/2000/svg" xmlns:xlink="http://www.w3.org/1999/xlink">
<g id="graph0" class="graph" transform="scale(1 1) rotate(0) translate(4 616)">
<title>snakemake_dag</title>
<polygon fill="#ffffff" stroke="transparent" points="-4,4 -4,-616 922,-616 922,4 -4,4"/>
<!-- 0 -->
<g id="node1" class="node">
<title>0</title>
<path fill="none" stroke="#bed856" stroke-width="2" d="M472,-36C472,-36 442,-36 442,-36 436,-36 430,-30 430,-24 430,-24 430,-12 430,-12 430,-6 436,0 442,0 442,0 472,0 472,0 478,0 484,-6 484,-12 484,-12 484,-24 484,-24 484,-30 478,-36 472,-36"/>
<text text-anchor="middle" x="457" y="-15.5" font-family="sans" font-size="10.00" fill="#000000">all</text>
</g>
<!-- 1 -->
<g id="node2" class="node">
<title>1</title>
<path fill="none" stroke="#d85656" stroke-width="2" d="M472,-108C472,-108 442,-108 442,-108 436,-108 430,-102 430,-96 430,-96 430,-84 430,-84 430,-78 436,-72 442,-72 442,-72 472,-72 472,-72 478,-72 484,-78 484,-84 484,-84 484,-96 484,-96 484,-102 478,-108 472,-108"/>
<text text-anchor="middle" x="457" y="-87.5" font-family="sans" font-size="10.00" fill="#000000">test</text>
</g>
<!-- 1&#45;&gt;0 -->
<g id="edge1" class="edge">
<title>1&#45;&gt;0</title>
<path fill="none" stroke="#c0c0c0" stroke-width="2" d="M457,-71.8314C457,-64.131 457,-54.9743 457,-46.4166"/>
<polygon fill="#c0c0c0" stroke="#c0c0c0" stroke-width="2" points="460.5001,-46.4132 457,-36.4133 453.5001,-46.4133 460.5001,-46.4132"/>
</g>
<!-- 2 -->
<g id="node3" class="node">
<title>2</title>
<path fill="none" stroke="#d88d56" stroke-width="2" d="M198.5,-180C198.5,-180 145.5,-180 145.5,-180 139.5,-180 133.5,-174 133.5,-168 133.5,-168 133.5,-156 133.5,-156 133.5,-150 139.5,-144 145.5,-144 145.5,-144 198.5,-144 198.5,-144 204.5,-144 210.5,-150 210.5,-156 210.5,-156 210.5,-168 210.5,-168 210.5,-174 204.5,-180 198.5,-180"/>
<text text-anchor="middle" x="172" y="-159.5" font-family="sans" font-size="10.00" fill="#000000">get_best_hit</text>
</g>
<!-- 2&#45;&gt;1 -->
<g id="edge2" class="edge">
<title>2&#45;&gt;1</title>
<path fill="none" stroke="#c0c0c0" stroke-width="2" d="M210.733,-152.2148C265.7806,-138.3081 365.9503,-113.002 420.0206,-99.3422"/>
<polygon fill="#c0c0c0" stroke="#c0c0c0" stroke-width="2" points="421.038,-102.6952 429.8761,-96.8523 419.3234,-95.9084 421.038,-102.6952"/>
</g>
<!-- 3 -->
<g id="node4" class="node">
<title>3</title>
<path fill="none" stroke="#d88d56" stroke-width="2" d="M331.5,-180C331.5,-180 278.5,-180 278.5,-180 272.5,-180 266.5,-174 266.5,-168 266.5,-168 266.5,-156 266.5,-156 266.5,-150 272.5,-144 278.5,-144 278.5,-144 331.5,-144 331.5,-144 337.5,-144 343.5,-150 343.5,-156 343.5,-156 343.5,-168 343.5,-168 343.5,-174 337.5,-180 331.5,-180"/>
<text text-anchor="middle" x="305" y="-159.5" font-family="sans" font-size="10.00" fill="#000000">get_best_hit</text>
</g>
<!-- 3&#45;&gt;1 -->
<g id="edge3" class="edge">
<title>3&#45;&gt;1</title>
<path fill="none" stroke="#c0c0c0" stroke-width="2" d="M343.356,-143.8314C367.0089,-132.6274 397.1698,-118.3406 420.4753,-107.3012"/>
<polygon fill="#c0c0c0" stroke="#c0c0c0" stroke-width="2" points="422.1438,-110.3837 429.6828,-102.9397 419.1471,-104.0575 422.1438,-110.3837"/>
</g>
<!-- 4 -->
<g id="node5" class="node">
<title>4</title>
<path fill="none" stroke="#d88d56" stroke-width="2" d="M436.5,-180C436.5,-180 383.5,-180 383.5,-180 377.5,-180 371.5,-174 371.5,-168 371.5,-168 371.5,-156 371.5,-156 371.5,-150 377.5,-144 383.5,-144 383.5,-144 436.5,-144 436.5,-144 442.5,-144 448.5,-150 448.5,-156 448.5,-156 448.5,-168 448.5,-168 448.5,-174 442.5,-180 436.5,-180"/>
<text text-anchor="middle" x="410" y="-159.5" font-family="sans" font-size="10.00" fill="#000000">get_best_hit</text>
</g>
<!-- 4&#45;&gt;1 -->
<g id="edge4" class="edge">
<title>4&#45;&gt;1</title>
<path fill="none" stroke="#c0c0c0" stroke-width="2" d="M421.8601,-143.8314C427.1629,-135.7079 433.5237,-125.9637 439.3673,-117.0118"/>
<polygon fill="#c0c0c0" stroke="#c0c0c0" stroke-width="2" points="442.4448,-118.7003 444.9802,-108.4133 436.5831,-114.8739 442.4448,-118.7003"/>
</g>
<!-- 5 -->
<g id="node6" class="node">
<title>5</title>
<path fill="none" stroke="#d88d56" stroke-width="2" d="M531.5,-180C531.5,-180 478.5,-180 478.5,-180 472.5,-180 466.5,-174 466.5,-168 466.5,-168 466.5,-156 466.5,-156 466.5,-150 472.5,-144 478.5,-144 478.5,-144 531.5,-144 531.5,-144 537.5,-144 543.5,-150 543.5,-156 543.5,-156 543.5,-168 543.5,-168 543.5,-174 537.5,-180 531.5,-180"/>
<text text-anchor="middle" x="505" y="-159.5" font-family="sans" font-size="10.00" fill="#000000">get_best_hit</text>
</g>
<!-- 5&#45;&gt;1 -->
<g id="edge5" class="edge">
<title>5&#45;&gt;1</title>
<path fill="none" stroke="#c0c0c0" stroke-width="2" d="M492.8876,-143.8314C487.4719,-135.7079 480.9758,-125.9637 475.0079,-117.0118"/>
<polygon fill="#c0c0c0" stroke="#c0c0c0" stroke-width="2" points="477.7347,-114.7923 469.2755,-108.4133 471.9104,-118.6753 477.7347,-114.7923"/>
</g>
<!-- 6 -->
<g id="node7" class="node">
<title>6</title>
<path fill="none" stroke="#d88d56" stroke-width="2" d="M636.5,-180C636.5,-180 583.5,-180 583.5,-180 577.5,-180 571.5,-174 571.5,-168 571.5,-168 571.5,-156 571.5,-156 571.5,-150 577.5,-144 583.5,-144 583.5,-144 636.5,-144 636.5,-144 642.5,-144 648.5,-150 648.5,-156 648.5,-156 648.5,-168 648.5,-168 648.5,-174 642.5,-180 636.5,-180"/>
<text text-anchor="middle" x="610" y="-159.5" font-family="sans" font-size="10.00" fill="#000000">get_best_hit</text>
</g>
<!-- 6&#45;&gt;1 -->
<g id="edge6" class="edge">
<title>6&#45;&gt;1</title>
<path fill="none" stroke="#c0c0c0" stroke-width="2" d="M571.3916,-143.8314C547.4275,-132.5541 516.8267,-118.1537 493.3059,-107.0851"/>
<polygon fill="#c0c0c0" stroke="#c0c0c0" stroke-width="2" points="494.5616,-103.8079 484.0231,-102.7168 491.581,-110.1416 494.5616,-103.8079"/>
</g>
<!-- 7 -->
<g id="node8" class="node">
<title>7</title>
<path fill="none" stroke="#d88d56" stroke-width="2" d="M778.5,-180C778.5,-180 725.5,-180 725.5,-180 719.5,-180 713.5,-174 713.5,-168 713.5,-168 713.5,-156 713.5,-156 713.5,-150 719.5,-144 725.5,-144 725.5,-144 778.5,-144 778.5,-144 784.5,-144 790.5,-150 790.5,-156 790.5,-156 790.5,-168 790.5,-168 790.5,-174 784.5,-180 778.5,-180"/>
<text text-anchor="middle" x="752" y="-159.5" font-family="sans" font-size="10.00" fill="#000000">get_best_hit</text>
</g>
<!-- 7&#45;&gt;1 -->
<g id="edge7" class="edge">
<title>7&#45;&gt;1</title>
<path fill="none" stroke="#c0c0c0" stroke-width="2" d="M713.4339,-152.5873C656.3874,-138.664 550.2231,-112.7528 494.0572,-99.0445"/>
<polygon fill="#c0c0c0" stroke="#c0c0c0" stroke-width="2" points="494.7195,-95.6034 484.1748,-96.6325 493.0597,-102.4038 494.7195,-95.6034"/>
</g>
<!-- 8 -->
<g id="node9" class="node">
<title>8</title>
<path fill="none" stroke="#56d88a" stroke-width="2" d="M193,-252C193,-252 151,-252 151,-252 145,-252 139,-246 139,-240 139,-240 139,-228 139,-228 139,-222 145,-216 151,-216 151,-216 193,-216 193,-216 199,-216 205,-222 205,-228 205,-228 205,-240 205,-240 205,-246 199,-252 193,-252"/>
<text text-anchor="middle" x="172" y="-231.5" font-family="sans" font-size="10.00" fill="#000000">alignment</text>
</g>
<!-- 8&#45;&gt;2 -->
<g id="edge8" class="edge">
<title>8&#45;&gt;2</title>
<path fill="none" stroke="#c0c0c0" stroke-width="2" d="M172,-215.8314C172,-208.131 172,-198.9743 172,-190.4166"/>
<polygon fill="#c0c0c0" stroke="#c0c0c0" stroke-width="2" points="175.5001,-190.4132 172,-180.4133 168.5001,-190.4133 175.5001,-190.4132"/>
</g>
<!-- 9 -->
<g id="node10" class="node">
<title>9</title>
<path fill="none" stroke="#88d856" stroke-width="2" d="M126,-324C126,-324 96,-324 96,-324 90,-324 84,-318 84,-312 84,-312 84,-300 84,-300 84,-294 90,-288 96,-288 96,-288 126,-288 126,-288 132,-288 138,-294 138,-300 138,-300 138,-312 138,-312 138,-318 132,-324 126,-324"/>
<text text-anchor="middle" x="111" y="-303.5" font-family="sans" font-size="10.00" fill="#000000">cd_hit</text>
</g>
<!-- 9&#45;&gt;2 -->
<g id="edge9" class="edge">
<title>9&#45;&gt;2</title>
<path fill="none" stroke="#c0c0c0" stroke-width="2" d="M112.3985,-287.9995C114.393,-269.2735 119.1085,-239.466 130,-216 134.5752,-206.1427 141.2453,-196.4333 147.9284,-188.0254"/>
<polygon fill="#c0c0c0" stroke="#c0c0c0" stroke-width="2" points="150.825,-190.0167 154.5386,-180.094 145.4477,-185.535 150.825,-190.0167"/>
</g>
<!-- 9&#45;&gt;8 -->
<g id="edge20" class="edge">
<title>9&#45;&gt;8</title>
<path fill="none" stroke="#c0c0c0" stroke-width="2" d="M126.3929,-287.8314C133.4904,-279.454 142.048,-269.3531 149.824,-260.1749"/>
<polygon fill="#c0c0c0" stroke="#c0c0c0" stroke-width="2" points="152.6061,-262.3056 156.3999,-252.4133 147.2652,-257.7807 152.6061,-262.3056"/>
</g>
<!-- 10 -->
<g id="node11" class="node">
<title>10</title>
<path fill="none" stroke="#56d88a" stroke-width="2" d="M326,-252C326,-252 284,-252 284,-252 278,-252 272,-246 272,-240 272,-240 272,-228 272,-228 272,-222 278,-216 284,-216 284,-216 326,-216 326,-216 332,-216 338,-222 338,-228 338,-228 338,-240 338,-240 338,-246 332,-252 326,-252"/>
<text text-anchor="middle" x="305" y="-231.5" font-family="sans" font-size="10.00" fill="#000000">alignment</text>
</g>
<!-- 10&#45;&gt;3 -->
<g id="edge10" class="edge">
<title>10&#45;&gt;3</title>
<path fill="none" stroke="#c0c0c0" stroke-width="2" d="M305,-215.8314C305,-208.131 305,-198.9743 305,-190.4166"/>
<polygon fill="#c0c0c0" stroke="#c0c0c0" stroke-width="2" points="308.5001,-190.4132 305,-180.4133 301.5001,-190.4133 308.5001,-190.4132"/>
</g>
<!-- 11 -->
<g id="node12" class="node">
<title>11</title>
<path fill="none" stroke="#88d856" stroke-width="2" d="M274,-324C274,-324 244,-324 244,-324 238,-324 232,-318 232,-312 232,-312 232,-300 232,-300 232,-294 238,-288 244,-288 244,-288 274,-288 274,-288 280,-288 286,-294 286,-300 286,-300 286,-312 286,-312 286,-318 280,-324 274,-324"/>
<text text-anchor="middle" x="259" y="-303.5" font-family="sans" font-size="10.00" fill="#000000">cd_hit</text>
</g>
<!-- 11&#45;&gt;3 -->
<g id="edge11" class="edge">
<title>11&#45;&gt;3</title>
<path fill="none" stroke="#c0c0c0" stroke-width="2" d="M256.6498,-287.7794C254.9616,-269.1355 254.3009,-239.6308 263,-216 266.6927,-205.9689 272.98,-196.3168 279.5812,-188.0169"/>
<polygon fill="#c0c0c0" stroke="#c0c0c0" stroke-width="2" points="282.4073,-190.0956 286.2025,-180.2038 277.0671,-185.5699 282.4073,-190.0956"/>
</g>
<!-- 11&#45;&gt;10 -->
<g id="edge23" class="edge">
<title>11&#45;&gt;10</title>
<path fill="none" stroke="#c0c0c0" stroke-width="2" d="M270.6077,-287.8314C275.7978,-279.7079 282.0232,-269.9637 287.7425,-261.0118"/>
<polygon fill="#c0c0c0" stroke="#c0c0c0" stroke-width="2" points="290.8015,-262.7246 293.236,-252.4133 284.9026,-258.9559 290.8015,-262.7246"/>
</g>
<!-- 12 -->
<g id="node13" class="node">
<title>12</title>
<path fill="none" stroke="#56d88a" stroke-width="2" d="M448,-252C448,-252 406,-252 406,-252 400,-252 394,-246 394,-240 394,-240 394,-228 394,-228 394,-222 400,-216 406,-216 406,-216 448,-216 448,-216 454,-216 460,-222 460,-228 460,-228 460,-240 460,-240 460,-246 454,-252 448,-252"/>
<text text-anchor="middle" x="427" y="-231.5" font-family="sans" font-size="10.00" fill="#000000">alignment</text>
</g>
<!-- 12&#45;&gt;4 -->
<g id="edge12" class="edge">
<title>12&#45;&gt;4</title>
<path fill="none" stroke="#c0c0c0" stroke-width="2" d="M422.7102,-215.8314C420.892,-208.131 418.7301,-198.9743 416.7095,-190.4166"/>
<polygon fill="#c0c0c0" stroke="#c0c0c0" stroke-width="2" points="420.0519,-189.3414 414.3476,-180.4133 413.2392,-190.95 420.0519,-189.3414"/>
</g>
<!-- 13 -->
<g id="node14" class="node">
<title>13</title>
<path fill="none" stroke="#88d856" stroke-width="2" d="M435,-324C435,-324 405,-324 405,-324 399,-324 393,-318 393,-312 393,-312 393,-300 393,-300 393,-294 399,-288 405,-288 405,-288 435,-288 435,-288 441,-288 447,-294 447,-300 447,-300 447,-312 447,-312 447,-318 441,-324 435,-324"/>
<text text-anchor="middle" x="420" y="-303.5" font-family="sans" font-size="10.00" fill="#000000">cd_hit</text>
</g>
<!-- 13&#45;&gt;4 -->
<g id="edge13" class="edge">
<title>13&#45;&gt;4</title>
<path fill="none" stroke="#c0c0c0" stroke-width="2" d="M404.4475,-287.8462C396.9954,-277.947 388.8653,-265.0702 385,-252 378.8303,-231.1376 385.9927,-207.4246 394.2082,-189.5781"/>
<polygon fill="#c0c0c0" stroke="#c0c0c0" stroke-width="2" points="397.4914,-190.8357 398.8028,-180.3223 391.2214,-187.7232 397.4914,-190.8357"/>
</g>
<!-- 13&#45;&gt;12 -->
<g id="edge26" class="edge">
<title>13&#45;&gt;12</title>
<path fill="none" stroke="#c0c0c0" stroke-width="2" d="M421.7664,-287.8314C422.515,-280.131 423.4053,-270.9743 424.2373,-262.4166"/>
<polygon fill="#c0c0c0" stroke="#c0c0c0" stroke-width="2" points="427.7256,-262.7051 425.2098,-252.4133 420.7585,-262.0276 427.7256,-262.7051"/>
</g>
<!-- 14 -->
<g id="node15" class="node">
<title>14</title>
<path fill="none" stroke="#56d88a" stroke-width="2" d="M570,-252C570,-252 528,-252 528,-252 522,-252 516,-246 516,-240 516,-240 516,-228 516,-228 516,-222 522,-216 528,-216 528,-216 570,-216 570,-216 576,-216 582,-222 582,-228 582,-228 582,-240 582,-240 582,-246 576,-252 570,-252"/>
<text text-anchor="middle" x="549" y="-231.5" font-family="sans" font-size="10.00" fill="#000000">alignment</text>
</g>
<!-- 14&#45;&gt;5 -->
<g id="edge14" class="edge">
<title>14&#45;&gt;5</title>
<path fill="none" stroke="#c0c0c0" stroke-width="2" d="M537.8969,-215.8314C532.9326,-207.7079 526.9778,-197.9637 521.5072,-189.0118"/>
<polygon fill="#c0c0c0" stroke="#c0c0c0" stroke-width="2" points="524.4536,-187.121 516.2526,-180.4133 518.4806,-190.7712 524.4536,-187.121"/>
</g>
<!-- 15 -->
<g id="node16" class="node">
<title>15</title>
<path fill="none" stroke="#88d856" stroke-width="2" d="M540,-324C540,-324 510,-324 510,-324 504,-324 498,-318 498,-312 498,-312 498,-300 498,-300 498,-294 504,-288 510,-288 510,-288 540,-288 540,-288 546,-288 552,-294 552,-300 552,-300 552,-312 552,-312 552,-318 546,-324 540,-324"/>
<text text-anchor="middle" x="525" y="-303.5" font-family="sans" font-size="10.00" fill="#000000">cd_hit</text>
</g>
<!-- 15&#45;&gt;5 -->
<g id="edge15" class="edge">
<title>15&#45;&gt;5</title>
<path fill="none" stroke="#c0c0c0" stroke-width="2" d="M517.4376,-287.8578C513.5247,-277.5409 509.1309,-264.2678 507,-252 503.4393,-231.501 503.041,-207.984 503.479,-190.1311"/>
<polygon fill="#c0c0c0" stroke="#c0c0c0" stroke-width="2" points="506.9787,-190.198 503.8274,-180.0827 499.9829,-189.9554 506.9787,-190.198"/>
</g>
<!-- 15&#45;&gt;14 -->
<g id="edge29" class="edge">
<title>15&#45;&gt;14</title>
<path fill="none" stroke="#c0c0c0" stroke-width="2" d="M531.0562,-287.8314C533.6512,-280.0463 536.7424,-270.7729 539.6218,-262.1347"/>
<polygon fill="#c0c0c0" stroke="#c0c0c0" stroke-width="2" points="543.0203,-263.0069 542.8622,-252.4133 536.3795,-260.7933 543.0203,-263.0069"/>
</g>
<!-- 16 -->
<g id="node17" class="node">
<title>16</title>
<path fill="none" stroke="#56d88a" stroke-width="2" d="M692,-252C692,-252 650,-252 650,-252 644,-252 638,-246 638,-240 638,-240 638,-228 638,-228 638,-222 644,-216 650,-216 650,-216 692,-216 692,-216 698,-216 704,-222 704,-228 704,-228 704,-240 704,-240 704,-246 698,-252 692,-252"/>
<text text-anchor="middle" x="671" y="-231.5" font-family="sans" font-size="10.00" fill="#000000">alignment</text>
</g>
<!-- 16&#45;&gt;6 -->
<g id="edge16" class="edge">
<title>16&#45;&gt;6</title>
<path fill="none" stroke="#c0c0c0" stroke-width="2" d="M655.6071,-215.8314C648.5096,-207.454 639.952,-197.3531 632.176,-188.1749"/>
<polygon fill="#c0c0c0" stroke="#c0c0c0" stroke-width="2" points="634.7348,-185.7807 625.6001,-180.4133 629.3939,-190.3056 634.7348,-185.7807"/>
</g>
<!-- 17 -->
<g id="node18" class="node">
<title>17</title>
<path fill="none" stroke="#88d856" stroke-width="2" d="M679,-324C679,-324 649,-324 649,-324 643,-324 637,-318 637,-312 637,-312 637,-300 637,-300 637,-294 643,-288 649,-288 649,-288 679,-288 679,-288 685,-288 691,-294 691,-300 691,-300 691,-312 691,-312 691,-318 685,-324 679,-324"/>
<text text-anchor="middle" x="664" y="-303.5" font-family="sans" font-size="10.00" fill="#000000">cd_hit</text>
</g>
<!-- 17&#45;&gt;6 -->
<g id="edge17" class="edge">
<title>17&#45;&gt;6</title>
<path fill="none" stroke="#c0c0c0" stroke-width="2" d="M649.8968,-287.9479C642.6638,-277.8743 634.2869,-264.8047 629,-252 620.7977,-232.1341 615.9684,-208.2814 613.2325,-190.1244"/>
<polygon fill="#c0c0c0" stroke="#c0c0c0" stroke-width="2" points="616.6921,-189.5908 611.8539,-180.1652 609.7582,-190.5507 616.6921,-189.5908"/>
</g>
<!-- 17&#45;&gt;16 -->
<g id="edge32" class="edge">
<title>17&#45;&gt;16</title>
<path fill="none" stroke="#c0c0c0" stroke-width="2" d="M665.7664,-287.8314C666.515,-280.131 667.4053,-270.9743 668.2373,-262.4166"/>
<polygon fill="#c0c0c0" stroke="#c0c0c0" stroke-width="2" points="671.7256,-262.7051 669.2098,-252.4133 664.7585,-262.0276 671.7256,-262.7051"/>
</g>
<!-- 18 -->
<g id="node19" class="node">
<title>18</title>
<path fill="none" stroke="#56d88a" stroke-width="2" d="M834,-252C834,-252 792,-252 792,-252 786,-252 780,-246 780,-240 780,-240 780,-228 780,-228 780,-222 786,-216 792,-216 792,-216 834,-216 834,-216 840,-216 846,-222 846,-228 846,-228 846,-240 846,-240 846,-246 840,-252 834,-252"/>
<text text-anchor="middle" x="813" y="-231.5" font-family="sans" font-size="10.00" fill="#000000">alignment</text>
</g>
<!-- 18&#45;&gt;7 -->
<g id="edge18" class="edge">
<title>18&#45;&gt;7</title>
<path fill="none" stroke="#c0c0c0" stroke-width="2" d="M797.6071,-215.8314C790.5096,-207.454 781.952,-197.3531 774.176,-188.1749"/>
<polygon fill="#c0c0c0" stroke="#c0c0c0" stroke-width="2" points="776.7348,-185.7807 767.6001,-180.4133 771.3939,-190.3056 776.7348,-185.7807"/>
</g>
<!-- 19 -->
<g id="node20" class="node">
<title>19</title>
<path fill="none" stroke="#88d856" stroke-width="2" d="M828,-324C828,-324 798,-324 798,-324 792,-324 786,-318 786,-312 786,-312 786,-300 786,-300 786,-294 792,-288 798,-288 798,-288 828,-288 828,-288 834,-288 840,-294 840,-300 840,-300 840,-312 840,-312 840,-318 834,-324 828,-324"/>
<text text-anchor="middle" x="813" y="-303.5" font-family="sans" font-size="10.00" fill="#000000">cd_hit</text>
</g>
<!-- 19&#45;&gt;7 -->
<g id="edge19" class="edge">
<title>19&#45;&gt;7</title>
<path fill="none" stroke="#c0c0c0" stroke-width="2" d="M795.5386,-287.906C786.9248,-278.0232 777.1002,-265.1431 771,-252 761.8954,-232.3839 757.1065,-208.3364 754.6151,-190.0351"/>
<polygon fill="#c0c0c0" stroke="#c0c0c0" stroke-width="2" points="758.0768,-189.5065 753.3985,-180.0005 751.1276,-190.3491 758.0768,-189.5065"/>
</g>
<!-- 19&#45;&gt;18 -->
<g id="edge35" class="edge">
<title>19&#45;&gt;18</title>
<path fill="none" stroke="#c0c0c0" stroke-width="2" d="M813,-287.8314C813,-280.131 813,-270.9743 813,-262.4166"/>
<polygon fill="#c0c0c0" stroke="#c0c0c0" stroke-width="2" points="816.5001,-262.4132 813,-252.4133 809.5001,-262.4133 816.5001,-262.4132"/>
</g>
<!-- 20 -->
<g id="node21" class="node">
<title>20</title>
<path fill="none" stroke="#59d856" stroke-width="2" d="M54,-396C54,-396 12,-396 12,-396 6,-396 0,-390 0,-384 0,-384 0,-372 0,-372 0,-366 6,-360 12,-360 12,-360 54,-360 54,-360 60,-360 66,-366 66,-372 66,-372 66,-384 66,-384 66,-390 60,-396 54,-396"/>
<text text-anchor="middle" x="33" y="-375.5" font-family="sans" font-size="10.00" fill="#000000">exonerate</text>
</g>
<!-- 20&#45;&gt;9 -->
<g id="edge21" class="edge">
<title>20&#45;&gt;9</title>
<path fill="none" stroke="#c0c0c0" stroke-width="2" d="M52.6827,-359.8314C62.1051,-351.1337 73.5401,-340.5783 83.7796,-331.1265"/>
<polygon fill="#c0c0c0" stroke="#c0c0c0" stroke-width="2" points="86.3495,-333.5175 91.3236,-324.1628 81.6016,-328.3738 86.3495,-333.5175"/>
</g>
<!-- 21 -->
<g id="node22" class="node">
<title>21</title>
<path fill="none" stroke="#d8bc56" stroke-width="2" d="M126,-396C126,-396 96,-396 96,-396 90,-396 84,-390 84,-384 84,-384 84,-372 84,-372 84,-366 90,-360 96,-360 96,-360 126,-360 126,-360 132,-360 138,-366 138,-372 138,-372 138,-384 138,-384 138,-390 132,-396 126,-396"/>
<text text-anchor="middle" x="111" y="-375.5" font-family="sans" font-size="10.00" fill="#000000">spaln</text>
</g>
<!-- 21&#45;&gt;9 -->
<g id="edge22" class="edge">
<title>21&#45;&gt;9</title>
<path fill="none" stroke="#c0c0c0" stroke-width="2" d="M111,-359.8314C111,-352.131 111,-342.9743 111,-334.4166"/>
<polygon fill="#c0c0c0" stroke="#c0c0c0" stroke-width="2" points="114.5001,-334.4132 111,-324.4133 107.5001,-334.4133 114.5001,-334.4132"/>
</g>
<!-- 22 -->
<g id="node23" class="node">
<title>22</title>
<path fill="none" stroke="#59d856" stroke-width="2" d="M210,-396C210,-396 168,-396 168,-396 162,-396 156,-390 156,-384 156,-384 156,-372 156,-372 156,-366 162,-360 168,-360 168,-360 210,-360 210,-360 216,-360 222,-366 222,-372 222,-372 222,-384 222,-384 222,-390 216,-396 210,-396"/>
<text text-anchor="middle" x="189" y="-375.5" font-family="sans" font-size="10.00" fill="#000000">exonerate</text>
</g>
<!-- 22&#45;&gt;11 -->
<g id="edge24" class="edge">
<title>22&#45;&gt;11</title>
<path fill="none" stroke="#c0c0c0" stroke-width="2" d="M206.664,-359.8314C214.9732,-351.2848 225.0264,-340.9443 234.0918,-331.6198"/>
<polygon fill="#c0c0c0" stroke="#c0c0c0" stroke-width="2" points="236.6369,-334.023 241.0982,-324.4133 231.6179,-329.1435 236.6369,-334.023"/>
</g>
<!-- 23 -->
<g id="node24" class="node">
<title>23</title>
<path fill="none" stroke="#d8bc56" stroke-width="2" d="M282,-396C282,-396 252,-396 252,-396 246,-396 240,-390 240,-384 240,-384 240,-372 240,-372 240,-366 246,-360 252,-360 252,-360 282,-360 282,-360 288,-360 294,-366 294,-372 294,-372 294,-384 294,-384 294,-390 288,-396 282,-396"/>
<text text-anchor="middle" x="267" y="-375.5" font-family="sans" font-size="10.00" fill="#000000">spaln</text>
</g>
<!-- 23&#45;&gt;11 -->
<g id="edge25" class="edge">
<title>23&#45;&gt;11</title>
<path fill="none" stroke="#c0c0c0" stroke-width="2" d="M264.9813,-359.8314C264.1257,-352.131 263.1083,-342.9743 262.1574,-334.4166"/>
<polygon fill="#c0c0c0" stroke="#c0c0c0" stroke-width="2" points="265.6289,-333.9656 261.0459,-324.4133 258.6717,-334.7386 265.6289,-333.9656"/>
</g>
<!-- 24 -->
<g id="node25" class="node">
<title>24</title>
<path fill="none" stroke="#59d856" stroke-width="2" d="M366,-396C366,-396 324,-396 324,-396 318,-396 312,-390 312,-384 312,-384 312,-372 312,-372 312,-366 318,-360 324,-360 324,-360 366,-360 366,-360 372,-360 378,-366 378,-372 378,-372 378,-384 378,-384 378,-390 372,-396 366,-396"/>
<text text-anchor="middle" x="345" y="-375.5" font-family="sans" font-size="10.00" fill="#000000">exonerate</text>
</g>
<!-- 24&#45;&gt;13 -->
<g id="edge27" class="edge">
<title>24&#45;&gt;13</title>
<path fill="none" stroke="#c0c0c0" stroke-width="2" d="M363.9257,-359.8314C372.9857,-351.1337 383.9809,-340.5783 393.8265,-331.1265"/>
<polygon fill="#c0c0c0" stroke="#c0c0c0" stroke-width="2" points="396.2904,-333.613 401.0804,-324.1628 391.4426,-328.5633 396.2904,-333.613"/>
</g>
<!-- 25 -->
<g id="node26" class="node">
<title>25</title>
<path fill="none" stroke="#d8bc56" stroke-width="2" d="M438,-396C438,-396 408,-396 408,-396 402,-396 396,-390 396,-384 396,-384 396,-372 396,-372 396,-366 402,-360 408,-360 408,-360 438,-360 438,-360 444,-360 450,-366 450,-372 450,-372 450,-384 450,-384 450,-390 444,-396 438,-396"/>
<text text-anchor="middle" x="423" y="-375.5" font-family="sans" font-size="10.00" fill="#000000">spaln</text>
</g>
<!-- 25&#45;&gt;13 -->
<g id="edge28" class="edge">
<title>25&#45;&gt;13</title>
<path fill="none" stroke="#c0c0c0" stroke-width="2" d="M422.243,-359.8314C421.9221,-352.131 421.5406,-342.9743 421.184,-334.4166"/>
<polygon fill="#c0c0c0" stroke="#c0c0c0" stroke-width="2" points="424.6806,-334.2589 420.7672,-324.4133 417.6867,-334.5503 424.6806,-334.2589"/>
</g>
<!-- 26 -->
<g id="node27" class="node">
<title>26</title>
<path fill="none" stroke="#59d856" stroke-width="2" d="M522,-396C522,-396 480,-396 480,-396 474,-396 468,-390 468,-384 468,-384 468,-372 468,-372 468,-366 474,-360 480,-360 480,-360 522,-360 522,-360 528,-360 534,-366 534,-372 534,-372 534,-384 534,-384 534,-390 528,-396 522,-396"/>
<text text-anchor="middle" x="501" y="-375.5" font-family="sans" font-size="10.00" fill="#000000">exonerate</text>
</g>
<!-- 26&#45;&gt;15 -->
<g id="edge30" class="edge">
<title>26&#45;&gt;15</title>
<path fill="none" stroke="#c0c0c0" stroke-width="2" d="M507.0562,-359.8314C509.6512,-352.0463 512.7424,-342.7729 515.6218,-334.1347"/>
<polygon fill="#c0c0c0" stroke="#c0c0c0" stroke-width="2" points="519.0203,-335.0069 518.8622,-324.4133 512.3795,-332.7933 519.0203,-335.0069"/>
</g>
<!-- 27 -->
<g id="node28" class="node">
<title>27</title>
<path fill="none" stroke="#d8bc56" stroke-width="2" d="M594,-396C594,-396 564,-396 564,-396 558,-396 552,-390 552,-384 552,-384 552,-372 552,-372 552,-366 558,-360 564,-360 564,-360 594,-360 594,-360 600,-360 606,-366 606,-372 606,-372 606,-384 606,-384 606,-390 600,-396 594,-396"/>
<text text-anchor="middle" x="579" y="-375.5" font-family="sans" font-size="10.00" fill="#000000">spaln</text>
</g>
<!-- 27&#45;&gt;15 -->
<g id="edge31" class="edge">
<title>27&#45;&gt;15</title>
<path fill="none" stroke="#c0c0c0" stroke-width="2" d="M565.3735,-359.8314C559.154,-351.5386 551.6678,-341.557 544.84,-332.4533"/>
<polygon fill="#c0c0c0" stroke="#c0c0c0" stroke-width="2" points="547.61,-330.3133 538.81,-324.4133 542.01,-334.5133 547.61,-330.3133"/>
</g>
<!-- 28 -->
<g id="node29" class="node">
<title>28</title>
<path fill="none" stroke="#59d856" stroke-width="2" d="M678,-396C678,-396 636,-396 636,-396 630,-396 624,-390 624,-384 624,-384 624,-372 624,-372 624,-366 630,-360 636,-360 636,-360 678,-360 678,-360 684,-360 690,-366 690,-372 690,-372 690,-384 690,-384 690,-390 684,-396 678,-396"/>
<text text-anchor="middle" x="657" y="-375.5" font-family="sans" font-size="10.00" fill="#000000">exonerate</text>
</g>
<!-- 28&#45;&gt;17 -->
<g id="edge33" class="edge">
<title>28&#45;&gt;17</title>
<path fill="none" stroke="#c0c0c0" stroke-width="2" d="M658.7664,-359.8314C659.515,-352.131 660.4053,-342.9743 661.2373,-334.4166"/>
<polygon fill="#c0c0c0" stroke="#c0c0c0" stroke-width="2" points="664.7256,-334.7051 662.2098,-324.4133 657.7585,-334.0276 664.7256,-334.7051"/>
</g>
<!-- 29 -->
<g id="node30" class="node">
<title>29</title>
<path fill="none" stroke="#d8bc56" stroke-width="2" d="M750,-396C750,-396 720,-396 720,-396 714,-396 708,-390 708,-384 708,-384 708,-372 708,-372 708,-366 714,-360 720,-360 720,-360 750,-360 750,-360 756,-360 762,-366 762,-372 762,-372 762,-384 762,-384 762,-390 756,-396 750,-396"/>
<text text-anchor="middle" x="735" y="-375.5" font-family="sans" font-size="10.00" fill="#000000">spaln</text>
</g>
<!-- 29&#45;&gt;17 -->
<g id="edge34" class="edge">
<title>29&#45;&gt;17</title>
<path fill="none" stroke="#c0c0c0" stroke-width="2" d="M717.0837,-359.8314C708.6558,-351.2848 698.459,-340.9443 689.264,-331.6198"/>
<polygon fill="#c0c0c0" stroke="#c0c0c0" stroke-width="2" points="691.6711,-329.0761 682.1575,-324.4133 686.6869,-333.9912 691.6711,-329.0761"/>
</g>
<!-- 30 -->
<g id="node31" class="node">
<title>30</title>
<path fill="none" stroke="#59d856" stroke-width="2" d="M834,-396C834,-396 792,-396 792,-396 786,-396 780,-390 780,-384 780,-384 780,-372 780,-372 780,-366 786,-360 792,-360 792,-360 834,-360 834,-360 840,-360 846,-366 846,-372 846,-372 846,-384 846,-384 846,-390 840,-396 834,-396"/>
<text text-anchor="middle" x="813" y="-375.5" font-family="sans" font-size="10.00" fill="#000000">exonerate</text>
</g>
<!-- 30&#45;&gt;19 -->
<g id="edge36" class="edge">
<title>30&#45;&gt;19</title>
<path fill="none" stroke="#c0c0c0" stroke-width="2" d="M813,-359.8314C813,-352.131 813,-342.9743 813,-334.4166"/>
<polygon fill="#c0c0c0" stroke="#c0c0c0" stroke-width="2" points="816.5001,-334.4132 813,-324.4133 809.5001,-334.4133 816.5001,-334.4132"/>
</g>
<!-- 31 -->
<g id="node32" class="node">
<title>31</title>
<path fill="none" stroke="#d8bc56" stroke-width="2" d="M906,-396C906,-396 876,-396 876,-396 870,-396 864,-390 864,-384 864,-384 864,-372 864,-372 864,-366 870,-360 876,-360 876,-360 906,-360 906,-360 912,-360 918,-366 918,-372 918,-372 918,-384 918,-384 918,-390 912,-396 906,-396"/>
<text text-anchor="middle" x="891" y="-375.5" font-family="sans" font-size="10.00" fill="#000000">spaln</text>
</g>
<!-- 31&#45;&gt;19 -->
<g id="edge37" class="edge">
<title>31&#45;&gt;19</title>
<path fill="none" stroke="#c0c0c0" stroke-width="2" d="M871.3173,-359.8314C861.8949,-351.1337 850.4599,-340.5783 840.2204,-331.1265"/>
<polygon fill="#c0c0c0" stroke="#c0c0c0" stroke-width="2" points="842.3984,-328.3738 832.6764,-324.1628 837.6505,-333.5175 842.3984,-328.3738"/>
</g>
<!-- 32 -->
<g id="node33" class="node">
<title>32</title>
<path fill="none" stroke="#568ad8" stroke-width="2" d="M120.5,-468C120.5,-468 87.5,-468 87.5,-468 81.5,-468 75.5,-462 75.5,-456 75.5,-456 75.5,-444 75.5,-444 75.5,-438 81.5,-432 87.5,-432 87.5,-432 120.5,-432 120.5,-432 126.5,-432 132.5,-438 132.5,-444 132.5,-444 132.5,-456 132.5,-456 132.5,-462 126.5,-468 120.5,-468"/>
<text text-anchor="middle" x="104" y="-447.5" font-family="sans" font-size="10.00" fill="#000000">matcher</text>
</g>
<!-- 32&#45;&gt;20 -->
<g id="edge38" class="edge">
<title>32&#45;&gt;20</title>
<path fill="none" stroke="#c0c0c0" stroke-width="2" d="M86.0837,-431.8314C77.6558,-423.2848 67.459,-412.9443 58.264,-403.6198"/>
<polygon fill="#c0c0c0" stroke="#c0c0c0" stroke-width="2" points="60.6711,-401.0761 51.1575,-396.4133 55.6869,-405.9912 60.6711,-401.0761"/>
</g>
<!-- 32&#45;&gt;21 -->
<g id="edge39" class="edge">
<title>32&#45;&gt;21</title>
<path fill="none" stroke="#c0c0c0" stroke-width="2" d="M105.7664,-431.8314C106.515,-424.131 107.4053,-414.9743 108.2373,-406.4166"/>
<polygon fill="#c0c0c0" stroke="#c0c0c0" stroke-width="2" points="111.7256,-406.7051 109.2098,-396.4133 104.7585,-406.0276 111.7256,-406.7051"/>
</g>
<!-- 33 -->
<g id="node34" class="node">
<title>33</title>
<path fill="none" stroke="#568ad8" stroke-width="2" d="M234.5,-468C234.5,-468 201.5,-468 201.5,-468 195.5,-468 189.5,-462 189.5,-456 189.5,-456 189.5,-444 189.5,-444 189.5,-438 195.5,-432 201.5,-432 201.5,-432 234.5,-432 234.5,-432 240.5,-432 246.5,-438 246.5,-444 246.5,-444 246.5,-456 246.5,-456 246.5,-462 240.5,-468 234.5,-468"/>
<text text-anchor="middle" x="218" y="-447.5" font-family="sans" font-size="10.00" fill="#000000">matcher</text>
</g>
<!-- 33&#45;&gt;22 -->
<g id="edge40" class="edge">
<title>33&#45;&gt;22</title>
<path fill="none" stroke="#c0c0c0" stroke-width="2" d="M210.6821,-431.8314C207.5124,-423.9617 203.73,-414.5712 200.2187,-405.8533"/>
<polygon fill="#c0c0c0" stroke="#c0c0c0" stroke-width="2" points="203.3992,-404.3815 196.4165,-396.4133 196.9061,-406.9968 203.3992,-404.3815"/>
</g>
<!-- 33&#45;&gt;23 -->
<g id="edge41" class="edge">
<title>33&#45;&gt;23</title>
<path fill="none" stroke="#c0c0c0" stroke-width="2" d="M230.3648,-431.8314C235.9509,-423.6232 242.663,-413.7606 248.8072,-404.7323"/>
<polygon fill="#c0c0c0" stroke="#c0c0c0" stroke-width="2" points="251.736,-406.6496 254.4687,-396.4133 245.949,-402.7112 251.736,-406.6496"/>
</g>
<!-- 34 -->
<g id="node35" class="node">
<title>34</title>
<path fill="none" stroke="#568ad8" stroke-width="2" d="M369.5,-468C369.5,-468 336.5,-468 336.5,-468 330.5,-468 324.5,-462 324.5,-456 324.5,-456 324.5,-444 324.5,-444 324.5,-438 330.5,-432 336.5,-432 336.5,-432 369.5,-432 369.5,-432 375.5,-432 381.5,-438 381.5,-444 381.5,-444 381.5,-456 381.5,-456 381.5,-462 375.5,-468 369.5,-468"/>
<text text-anchor="middle" x="353" y="-447.5" font-family="sans" font-size="10.00" fill="#000000">matcher</text>
</g>
<!-- 34&#45;&gt;24 -->
<g id="edge42" class="edge">
<title>34&#45;&gt;24</title>
<path fill="none" stroke="#c0c0c0" stroke-width="2" d="M350.9813,-431.8314C350.1257,-424.131 349.1083,-414.9743 348.1574,-406.4166"/>
<polygon fill="#c0c0c0" stroke="#c0c0c0" stroke-width="2" points="351.6289,-405.9656 347.0459,-396.4133 344.6717,-406.7386 351.6289,-405.9656"/>
</g>
<!-- 34&#45;&gt;25 -->
<g id="edge43" class="edge">
<title>34&#45;&gt;25</title>
<path fill="none" stroke="#c0c0c0" stroke-width="2" d="M370.664,-431.8314C378.9732,-423.2848 389.0264,-412.9443 398.0918,-403.6198"/>
<polygon fill="#c0c0c0" stroke="#c0c0c0" stroke-width="2" points="400.6369,-406.023 405.0982,-396.4133 395.6179,-401.1435 400.6369,-406.023"/>
</g>
<!-- 35 -->
<g id="node36" class="node">
<title>35</title>
<path fill="none" stroke="#568ad8" stroke-width="2" d="M587.5,-468C587.5,-468 554.5,-468 554.5,-468 548.5,-468 542.5,-462 542.5,-456 542.5,-456 542.5,-444 542.5,-444 542.5,-438 548.5,-432 554.5,-432 554.5,-432 587.5,-432 587.5,-432 593.5,-432 599.5,-438 599.5,-444 599.5,-444 599.5,-456 599.5,-456 599.5,-462 593.5,-468 587.5,-468"/>
<text text-anchor="middle" x="571" y="-447.5" font-family="sans" font-size="10.00" fill="#000000">matcher</text>
</g>
<!-- 35&#45;&gt;26 -->
<g id="edge44" class="edge">
<title>35&#45;&gt;26</title>
<path fill="none" stroke="#c0c0c0" stroke-width="2" d="M553.336,-431.8314C545.0268,-423.2848 534.9736,-412.9443 525.9082,-403.6198"/>
<polygon fill="#c0c0c0" stroke="#c0c0c0" stroke-width="2" points="528.3821,-401.1435 518.9018,-396.4133 523.3631,-406.023 528.3821,-401.1435"/>
</g>
<!-- 35&#45;&gt;27 -->
<g id="edge45" class="edge">
<title>35&#45;&gt;27</title>
<path fill="none" stroke="#c0c0c0" stroke-width="2" d="M573.0187,-431.8314C573.8743,-424.131 574.8917,-414.9743 575.8426,-406.4166"/>
<polygon fill="#c0c0c0" stroke="#c0c0c0" stroke-width="2" points="579.3283,-406.7386 576.9541,-396.4133 572.3711,-405.9656 579.3283,-406.7386"/>
</g>
<!-- 36 -->
<g id="node37" class="node">
<title>36</title>
<path fill="none" stroke="#568ad8" stroke-width="2" d="M701.5,-468C701.5,-468 668.5,-468 668.5,-468 662.5,-468 656.5,-462 656.5,-456 656.5,-456 656.5,-444 656.5,-444 656.5,-438 662.5,-432 668.5,-432 668.5,-432 701.5,-432 701.5,-432 707.5,-432 713.5,-438 713.5,-444 713.5,-444 713.5,-456 713.5,-456 713.5,-462 707.5,-468 701.5,-468"/>
<text text-anchor="middle" x="685" y="-447.5" font-family="sans" font-size="10.00" fill="#000000">matcher</text>
</g>
<!-- 36&#45;&gt;28 -->
<g id="edge46" class="edge">
<title>36&#45;&gt;28</title>
<path fill="none" stroke="#c0c0c0" stroke-width="2" d="M677.9344,-431.8314C674.874,-423.9617 671.2221,-414.5712 667.8318,-405.8533"/>
<polygon fill="#c0c0c0" stroke="#c0c0c0" stroke-width="2" points="671.0473,-404.4647 664.1607,-396.4133 664.5232,-407.0019 671.0473,-404.4647"/>
</g>
<!-- 36&#45;&gt;29 -->
<g id="edge47" class="edge">
<title>36&#45;&gt;29</title>
<path fill="none" stroke="#c0c0c0" stroke-width="2" d="M697.6171,-431.8314C703.3172,-423.6232 710.1663,-413.7606 716.4359,-404.7323"/>
<polygon fill="#c0c0c0" stroke="#c0c0c0" stroke-width="2" points="719.3838,-406.6234 722.213,-396.4133 713.6342,-402.6306 719.3838,-406.6234"/>
</g>
<!-- 37 -->
<g id="node38" class="node">
<title>37</title>
<path fill="none" stroke="#568ad8" stroke-width="2" d="M836.5,-468C836.5,-468 803.5,-468 803.5,-468 797.5,-468 791.5,-462 791.5,-456 791.5,-456 791.5,-444 791.5,-444 791.5,-438 797.5,-432 803.5,-432 803.5,-432 836.5,-432 836.5,-432 842.5,-432 848.5,-438 848.5,-444 848.5,-444 848.5,-456 848.5,-456 848.5,-462 842.5,-468 836.5,-468"/>
<text text-anchor="middle" x="820" y="-447.5" font-family="sans" font-size="10.00" fill="#000000">matcher</text>
</g>
<!-- 37&#45;&gt;30 -->
<g id="edge48" class="edge">
<title>37&#45;&gt;30</title>
<path fill="none" stroke="#c0c0c0" stroke-width="2" d="M818.2336,-431.8314C817.485,-424.131 816.5947,-414.9743 815.7627,-406.4166"/>
<polygon fill="#c0c0c0" stroke="#c0c0c0" stroke-width="2" points="819.2415,-406.0276 814.7902,-396.4133 812.2744,-406.7051 819.2415,-406.0276"/>
</g>
<!-- 37&#45;&gt;31 -->
<g id="edge49" class="edge">
<title>37&#45;&gt;31</title>
<path fill="none" stroke="#c0c0c0" stroke-width="2" d="M837.9163,-431.8314C846.3442,-423.2848 856.541,-412.9443 865.736,-403.6198"/>
<polygon fill="#c0c0c0" stroke="#c0c0c0" stroke-width="2" points="868.3131,-405.9912 872.8425,-396.4133 863.3289,-401.0761 868.3131,-405.9912"/>
</g>
<!-- 38 -->
<g id="node39" class="node">
<title>38</title>
<path fill="none" stroke="#56c1d8" stroke-width="2" d="M129,-540C129,-540 79,-540 79,-540 73,-540 67,-534 67,-528 67,-528 67,-516 67,-516 67,-510 73,-504 79,-504 79,-504 129,-504 129,-504 135,-504 141,-510 141,-516 141,-516 141,-528 141,-528 141,-534 135,-540 129,-540"/>
<text text-anchor="middle" x="104" y="-525" font-family="sans" font-size="10.00" fill="#000000">blast</text>
<text text-anchor="middle" x="104" y="-514" font-family="sans" font-size="10.00" fill="#000000">query: actin</text>
</g>
<!-- 38&#45;&gt;32 -->
<g id="edge50" class="edge">
<title>38&#45;&gt;32</title>
<path fill="none" stroke="#c0c0c0" stroke-width="2" d="M104,-503.8314C104,-496.131 104,-486.9743 104,-478.4166"/>
<polygon fill="#c0c0c0" stroke="#c0c0c0" stroke-width="2" points="107.5001,-478.4132 104,-468.4133 100.5001,-478.4133 107.5001,-478.4132"/>
</g>
<!-- 39 -->
<g id="node40" class="node">
<title>39</title>
<path fill="none" stroke="#56c1d8" stroke-width="2" d="M264.5,-540C264.5,-540 171.5,-540 171.5,-540 165.5,-540 159.5,-534 159.5,-528 159.5,-528 159.5,-516 159.5,-516 159.5,-510 165.5,-504 171.5,-504 171.5,-504 264.5,-504 264.5,-504 270.5,-504 276.5,-510 276.5,-516 276.5,-516 276.5,-528 276.5,-528 276.5,-534 270.5,-540 264.5,-540"/>
<text text-anchor="middle" x="218" y="-525" font-family="sans" font-size="10.00" fill="#000000">blast</text>
<text text-anchor="middle" x="218" y="-514" font-family="sans" font-size="10.00" fill="#000000">query: beta_tubulin2</text>
</g>
<!-- 39&#45;&gt;33 -->
<g id="edge51" class="edge">
<title>39&#45;&gt;33</title>
<path fill="none" stroke="#c0c0c0" stroke-width="2" d="M218,-503.8314C218,-496.131 218,-486.9743 218,-478.4166"/>
<polygon fill="#c0c0c0" stroke="#c0c0c0" stroke-width="2" points="221.5001,-478.4132 218,-468.4133 214.5001,-478.4133 221.5001,-478.4132"/>
</g>
<!-- 40 -->
<g id="node41" class="node">
<title>40</title>
<path fill="none" stroke="#56c1d8" stroke-width="2" d="M399,-540C399,-540 307,-540 307,-540 301,-540 295,-534 295,-528 295,-528 295,-516 295,-516 295,-510 301,-504 307,-504 307,-504 399,-504 399,-504 405,-504 411,-510 411,-516 411,-516 411,-528 411,-528 411,-534 405,-540 399,-540"/>
<text text-anchor="middle" x="353" y="-525" font-family="sans" font-size="10.00" fill="#000000">blast</text>
<text text-anchor="middle" x="353" y="-514" font-family="sans" font-size="10.00" fill="#000000">query: cng_channels</text>
</g>
<!-- 40&#45;&gt;34 -->
<g id="edge52" class="edge">
<title>40&#45;&gt;34</title>
<path fill="none" stroke="#c0c0c0" stroke-width="2" d="M353,-503.8314C353,-496.131 353,-486.9743 353,-478.4166"/>
<polygon fill="#c0c0c0" stroke="#c0c0c0" stroke-width="2" points="356.5001,-478.4132 353,-468.4133 349.5001,-478.4133 356.5001,-478.4132"/>
</g>
<!-- 41 -->
<g id="node42" class="node">
<title>41</title>
<path fill="none" stroke="#56c1d8" stroke-width="2" d="M596,-540C596,-540 546,-540 546,-540 540,-540 534,-534 534,-528 534,-528 534,-516 534,-516 534,-510 540,-504 546,-504 546,-504 596,-504 596,-504 602,-504 608,-510 608,-516 608,-516 608,-528 608,-528 608,-534 602,-540 596,-540"/>
<text text-anchor="middle" x="571" y="-525" font-family="sans" font-size="10.00" fill="#000000">blast</text>
<text text-anchor="middle" x="571" y="-514" font-family="sans" font-size="10.00" fill="#000000">query: actin</text>
</g>
<!-- 41&#45;&gt;35 -->
<g id="edge53" class="edge">
<title>41&#45;&gt;35</title>
<path fill="none" stroke="#c0c0c0" stroke-width="2" d="M571,-503.8314C571,-496.131 571,-486.9743 571,-478.4166"/>
<polygon fill="#c0c0c0" stroke="#c0c0c0" stroke-width="2" points="574.5001,-478.4132 571,-468.4133 567.5001,-478.4133 574.5001,-478.4132"/>
</g>
<!-- 42 -->
<g id="node43" class="node">
<title>42</title>
<path fill="none" stroke="#56c1d8" stroke-width="2" d="M731.5,-540C731.5,-540 638.5,-540 638.5,-540 632.5,-540 626.5,-534 626.5,-528 626.5,-528 626.5,-516 626.5,-516 626.5,-510 632.5,-504 638.5,-504 638.5,-504 731.5,-504 731.5,-504 737.5,-504 743.5,-510 743.5,-516 743.5,-516 743.5,-528 743.5,-528 743.5,-534 737.5,-540 731.5,-540"/>
<text text-anchor="middle" x="685" y="-525" font-family="sans" font-size="10.00" fill="#000000">blast</text>
<text text-anchor="middle" x="685" y="-514" font-family="sans" font-size="10.00" fill="#000000">query: beta_tubulin2</text>
</g>
<!-- 42&#45;&gt;36 -->
<g id="edge54" class="edge">
<title>42&#45;&gt;36</title>
<path fill="none" stroke="#c0c0c0" stroke-width="2" d="M685,-503.8314C685,-496.131 685,-486.9743 685,-478.4166"/>
<polygon fill="#c0c0c0" stroke="#c0c0c0" stroke-width="2" points="688.5001,-478.4132 685,-468.4133 681.5001,-478.4133 688.5001,-478.4132"/>
</g>
<!-- 43 -->
<g id="node44" class="node">
<title>43</title>
<path fill="none" stroke="#56c1d8" stroke-width="2" d="M866,-540C866,-540 774,-540 774,-540 768,-540 762,-534 762,-528 762,-528 762,-516 762,-516 762,-510 768,-504 774,-504 774,-504 866,-504 866,-504 872,-504 878,-510 878,-516 878,-516 878,-528 878,-528 878,-534 872,-540 866,-540"/>
<text text-anchor="middle" x="820" y="-525" font-family="sans" font-size="10.00" fill="#000000">blast</text>
<text text-anchor="middle" x="820" y="-514" font-family="sans" font-size="10.00" fill="#000000">query: cng_channels</text>
</g>
<!-- 43&#45;&gt;37 -->
<g id="edge55" class="edge">
<title>43&#45;&gt;37</title>
<path fill="none" stroke="#c0c0c0" stroke-width="2" d="M820,-503.8314C820,-496.131 820,-486.9743 820,-478.4166"/>
<polygon fill="#c0c0c0" stroke="#c0c0c0" stroke-width="2" points="823.5001,-478.4132 820,-468.4133 816.5001,-478.4133 823.5001,-478.4132"/>
</g>
<!-- 44 -->
<g id="node45" class="node">
<title>44</title>
<path fill="none" stroke="#56d8c1" stroke-width="2" d="M246,-612C246,-612 190,-612 190,-612 184,-612 178,-606 178,-600 178,-600 178,-588 178,-588 178,-582 184,-576 190,-576 190,-576 246,-576 246,-576 252,-576 258,-582 258,-588 258,-588 258,-600 258,-600 258,-606 252,-612 246,-612"/>
<text text-anchor="middle" x="218" y="-597" font-family="sans" font-size="10.00" fill="#000000">makeblastdb</text>
<text text-anchor="middle" x="218" y="-586" font-family="sans" font-size="10.00" fill="#000000">subject: csp</text>
</g>
<!-- 44&#45;&gt;38 -->
<g id="edge56" class="edge">
<title>44&#45;&gt;38</title>
<path fill="none" stroke="#c0c0c0" stroke-width="2" d="M189.233,-575.8314C174.7867,-566.7074 157.1035,-555.539 141.596,-545.7449"/>
<polygon fill="#c0c0c0" stroke="#c0c0c0" stroke-width="2" points="143.0817,-542.5436 132.7578,-540.1628 139.3437,-548.462 143.0817,-542.5436"/>
</g>
<!-- 44&#45;&gt;39 -->
<g id="edge57" class="edge">
<title>44&#45;&gt;39</title>
<path fill="none" stroke="#c0c0c0" stroke-width="2" d="M218,-575.8314C218,-568.131 218,-558.9743 218,-550.4166"/>
<polygon fill="#c0c0c0" stroke="#c0c0c0" stroke-width="2" points="221.5001,-550.4132 218,-540.4133 214.5001,-550.4133 221.5001,-550.4132"/>
</g>
<!-- 44&#45;&gt;40 -->
<g id="edge58" class="edge">
<title>44&#45;&gt;40</title>
<path fill="none" stroke="#c0c0c0" stroke-width="2" d="M252.0662,-575.8314C269.6533,-566.4516 291.2916,-554.9112 310.0168,-544.9244"/>
<polygon fill="#c0c0c0" stroke="#c0c0c0" stroke-width="2" points="311.7682,-547.957 318.9447,-540.1628 308.4741,-541.7805 311.7682,-547.957"/>
</g>
<!-- 45 -->
<g id="node46" class="node">
<title>45</title>
<path fill="none" stroke="#56d8c1" stroke-width="2" d="M720.5,-612C720.5,-612 649.5,-612 649.5,-612 643.5,-612 637.5,-606 637.5,-600 637.5,-600 637.5,-588 637.5,-588 637.5,-582 643.5,-576 649.5,-576 649.5,-576 720.5,-576 720.5,-576 726.5,-576 732.5,-582 732.5,-588 732.5,-588 732.5,-600 732.5,-600 732.5,-606 726.5,-612 720.5,-612"/>
<text text-anchor="middle" x="685" y="-597" font-family="sans" font-size="10.00" fill="#000000">makeblastdb</text>
<text text-anchor="middle" x="685" y="-586" font-family="sans" font-size="10.00" fill="#000000">subject: gonium</text>
</g>
<!-- 45&#45;&gt;41 -->
<g id="edge59" class="edge">
<title>45&#45;&gt;41</title>
<path fill="none" stroke="#c0c0c0" stroke-width="2" d="M656.233,-575.8314C641.7867,-566.7074 624.1035,-555.539 608.596,-545.7449"/>
<polygon fill="#c0c0c0" stroke="#c0c0c0" stroke-width="2" points="610.0817,-542.5436 599.7578,-540.1628 606.3437,-548.462 610.0817,-542.5436"/>
</g>
<!-- 45&#45;&gt;42 -->
<g id="edge60" class="edge">
<title>45&#45;&gt;42</title>
<path fill="none" stroke="#c0c0c0" stroke-width="2" d="M685,-575.8314C685,-568.131 685,-558.9743 685,-550.4166"/>
<polygon fill="#c0c0c0" stroke="#c0c0c0" stroke-width="2" points="688.5001,-550.4132 685,-540.4133 681.5001,-550.4133 688.5001,-550.4132"/>
</g>
<!-- 45&#45;&gt;43 -->
<g id="edge61" class="edge">
<title>45&#45;&gt;43</title>
<path fill="none" stroke="#c0c0c0" stroke-width="2" d="M719.0662,-575.8314C736.6533,-566.4516 758.2916,-554.9112 777.0168,-544.9244"/>
<polygon fill="#c0c0c0" stroke="#c0c0c0" stroke-width="2" points="778.7682,-547.957 785.9447,-540.1628 775.4741,-541.7805 778.7682,-547.957"/>
</g>
</g>
</svg>
