<?xml version="1.0" encoding="UTF-8" standalone="no"?>
<!DOCTYPE svg PUBLIC "-//W3C//DTD SVG 1.1//EN"
 "http://www.w3.org/Graphics/SVG/1.1/DTD/svg11.dtd">
<!-- Generated by graphviz version 2.40.1 (20161225.0304)
 -->
<!-- Title: snakemake_dag Pages: 1 -->
<svg width="1262pt" height="620pt"
 viewBox="0.00 0.00 1261.50 620.00" xmlns="http://www.w3.org/2000/svg" xmlns:xlink="http://www.w3.org/1999/xlink">
<g id="graph0" class="graph" transform="scale(1 1) rotate(0) translate(4 616)">
<title>snakemake_dag</title>
<polygon fill="#ffffff" stroke="transparent" points="-4,4 -4,-616 1257.5,-616 1257.5,4 -4,4"/>
<!-- 0 -->
<g id="node1" class="node">
<title>0</title>
<path fill="none" stroke="#56d86b" stroke-width="2" d="M647,-36C647,-36 617,-36 617,-36 611,-36 605,-30 605,-24 605,-24 605,-12 605,-12 605,-6 611,0 617,0 617,0 647,0 647,0 653,0 659,-6 659,-12 659,-12 659,-24 659,-24 659,-30 653,-36 647,-36"/>
<text text-anchor="middle" x="632" y="-15.5" font-family="sans" font-size="10.00" fill="#000000">finish</text>
</g>
<!-- 1 -->
<g id="node2" class="node">
<title>1</title>
<path fill="none" stroke="#d8b456" stroke-width="2" d="M609.5,-108C609.5,-108 482.5,-108 482.5,-108 476.5,-108 470.5,-102 470.5,-96 470.5,-96 470.5,-84 470.5,-84 470.5,-78 476.5,-72 482.5,-72 482.5,-72 609.5,-72 609.5,-72 615.5,-72 621.5,-78 621.5,-84 621.5,-84 621.5,-96 621.5,-96 621.5,-102 615.5,-108 609.5,-108"/>
<text text-anchor="middle" x="546" y="-87.5" font-family="sans" font-size="10.00" fill="#000000">Visualize_Retained_Results</text>
</g>
<!-- 1&#45;&gt;0 -->
<g id="edge1" class="edge">
<title>1&#45;&gt;0</title>
<path fill="none" stroke="#c0c0c0" stroke-width="2" d="M567.7014,-71.8314C578.1921,-63.0485 590.9455,-52.3712 602.3194,-42.8489"/>
<polygon fill="#c0c0c0" stroke="#c0c0c0" stroke-width="2" points="604.8847,-45.2659 610.3055,-36.1628 600.3911,-39.8986 604.8847,-45.2659"/>
</g>
<!-- 2 -->
<g id="node3" class="node">
<title>2</title>
<path fill="none" stroke="#56d89a" stroke-width="2" d="M784,-108C784,-108 652,-108 652,-108 646,-108 640,-102 640,-96 640,-96 640,-84 640,-84 640,-78 646,-72 652,-72 652,-72 784,-72 784,-72 790,-72 796,-78 796,-84 796,-84 796,-96 796,-96 796,-102 790,-108 784,-108"/>
<text text-anchor="middle" x="718" y="-87.5" font-family="sans" font-size="10.00" fill="#000000">Visualize_Discarded_Results</text>
</g>
<!-- 2&#45;&gt;0 -->
<g id="edge2" class="edge">
<title>2&#45;&gt;0</title>
<path fill="none" stroke="#c0c0c0" stroke-width="2" d="M696.2986,-71.8314C685.8079,-63.0485 673.0545,-52.3712 661.6806,-42.8489"/>
<polygon fill="#c0c0c0" stroke="#c0c0c0" stroke-width="2" points="663.6089,-39.8986 653.6945,-36.1628 659.1153,-45.2659 663.6089,-39.8986"/>
</g>
<!-- 3 -->
<g id="node4" class="node">
<title>3</title>
<path fill="none" stroke="#d88556" stroke-width="2" d="M677,-180C677,-180 587,-180 587,-180 581,-180 575,-174 575,-168 575,-168 575,-156 575,-156 575,-150 581,-144 587,-144 587,-144 677,-144 677,-144 683,-144 689,-150 689,-156 689,-156 689,-168 689,-168 689,-174 683,-180 677,-180"/>
<text text-anchor="middle" x="632" y="-159.5" font-family="sans" font-size="10.00" fill="#000000">Remove_Duplicates</text>
</g>
<!-- 3&#45;&gt;1 -->
<g id="edge3" class="edge">
<title>3&#45;&gt;1</title>
<path fill="none" stroke="#c0c0c0" stroke-width="2" d="M610.2986,-143.8314C599.8079,-135.0485 587.0545,-124.3712 575.6806,-114.8489"/>
<polygon fill="#c0c0c0" stroke="#c0c0c0" stroke-width="2" points="577.6089,-111.8986 567.6945,-108.1628 573.1153,-117.2659 577.6089,-111.8986"/>
</g>
<!-- 3&#45;&gt;2 -->
<g id="edge4" class="edge">
<title>3&#45;&gt;2</title>
<path fill="none" stroke="#c0c0c0" stroke-width="2" d="M653.7014,-143.8314C664.1921,-135.0485 676.9455,-124.3712 688.3194,-114.8489"/>
<polygon fill="#c0c0c0" stroke="#c0c0c0" stroke-width="2" points="690.8847,-117.2659 696.3055,-108.1628 686.3911,-111.8986 690.8847,-117.2659"/>
</g>
<!-- 4 -->
<g id="node5" class="node">
<title>4</title>
<path fill="none" stroke="#56b1d8" stroke-width="2" d="M373.5,-252C373.5,-252 226.5,-252 226.5,-252 220.5,-252 214.5,-246 214.5,-240 214.5,-240 214.5,-228 214.5,-228 214.5,-222 220.5,-216 226.5,-216 226.5,-216 373.5,-216 373.5,-216 379.5,-216 385.5,-222 385.5,-228 385.5,-228 385.5,-240 385.5,-240 385.5,-246 379.5,-252 373.5,-252"/>
<text text-anchor="middle" x="300" y="-231.5" font-family="sans" font-size="10.00" fill="#000000">Retrieve_Sequence_Similarities</text>
</g>
<!-- 4&#45;&gt;3 -->
<g id="edge5" class="edge">
<title>4&#45;&gt;3</title>
<path fill="none" stroke="#c0c0c0" stroke-width="2" d="M383.3491,-215.9243C439.5592,-203.7341 512.7442,-187.8627 565.1368,-176.5004"/>
<polygon fill="#c0c0c0" stroke="#c0c0c0" stroke-width="2" points="565.9666,-179.9019 574.9976,-174.362 564.4829,-173.061 565.9666,-179.9019"/>
</g>
<!-- 5 -->
<g id="node6" class="node">
<title>5</title>
<path fill="none" stroke="#56b1d8" stroke-width="2" d="M611.5,-252C611.5,-252 464.5,-252 464.5,-252 458.5,-252 452.5,-246 452.5,-240 452.5,-240 452.5,-228 452.5,-228 452.5,-222 458.5,-216 464.5,-216 464.5,-216 611.5,-216 611.5,-216 617.5,-216 623.5,-222 623.5,-228 623.5,-228 623.5,-240 623.5,-240 623.5,-246 617.5,-252 611.5,-252"/>
<text text-anchor="middle" x="538" y="-231.5" font-family="sans" font-size="10.00" fill="#000000">Retrieve_Sequence_Similarities</text>
</g>
<!-- 5&#45;&gt;3 -->
<g id="edge6" class="edge">
<title>5&#45;&gt;3</title>
<path fill="none" stroke="#c0c0c0" stroke-width="2" d="M561.7202,-215.8314C573.4094,-206.8779 587.6688,-195.9558 600.2809,-186.2955"/>
<polygon fill="#c0c0c0" stroke="#c0c0c0" stroke-width="2" points="602.4769,-189.0222 608.2874,-180.1628 598.2203,-183.4651 602.4769,-189.0222"/>
</g>
<!-- 6 -->
<g id="node7" class="node">
<title>6</title>
<path fill="none" stroke="#56b1d8" stroke-width="2" d="M800.5,-252C800.5,-252 653.5,-252 653.5,-252 647.5,-252 641.5,-246 641.5,-240 641.5,-240 641.5,-228 641.5,-228 641.5,-222 647.5,-216 653.5,-216 653.5,-216 800.5,-216 800.5,-216 806.5,-216 812.5,-222 812.5,-228 812.5,-228 812.5,-240 812.5,-240 812.5,-246 806.5,-252 800.5,-252"/>
<text text-anchor="middle" x="727" y="-231.5" font-family="sans" font-size="10.00" fill="#000000">Retrieve_Sequence_Similarities</text>
</g>
<!-- 6&#45;&gt;3 -->
<g id="edge7" class="edge">
<title>6&#45;&gt;3</title>
<path fill="none" stroke="#c0c0c0" stroke-width="2" d="M703.0275,-215.8314C691.2139,-206.8779 676.8028,-195.9558 664.0565,-186.2955"/>
<polygon fill="#c0c0c0" stroke="#c0c0c0" stroke-width="2" points="666.0486,-183.4137 655.9648,-180.1628 661.8205,-188.9925 666.0486,-183.4137"/>
</g>
<!-- 7 -->
<g id="node8" class="node">
<title>7</title>
<path fill="none" stroke="#56b1d8" stroke-width="2" d="M1046.5,-252C1046.5,-252 899.5,-252 899.5,-252 893.5,-252 887.5,-246 887.5,-240 887.5,-240 887.5,-228 887.5,-228 887.5,-222 893.5,-216 899.5,-216 899.5,-216 1046.5,-216 1046.5,-216 1052.5,-216 1058.5,-222 1058.5,-228 1058.5,-228 1058.5,-240 1058.5,-240 1058.5,-246 1052.5,-252 1046.5,-252"/>
<text text-anchor="middle" x="973" y="-231.5" font-family="sans" font-size="10.00" fill="#000000">Retrieve_Sequence_Similarities</text>
</g>
<!-- 7&#45;&gt;3 -->
<g id="edge8" class="edge">
<title>7&#45;&gt;3</title>
<path fill="none" stroke="#c0c0c0" stroke-width="2" d="M887.3915,-215.9243C829.0732,-203.6108 752.9652,-187.541 699.0483,-176.1568"/>
<polygon fill="#c0c0c0" stroke="#c0c0c0" stroke-width="2" points="699.7558,-172.7291 689.2484,-174.0876 698.3096,-179.5781 699.7558,-172.7291"/>
</g>
<!-- 8 -->
<g id="node9" class="node">
<title>8</title>
<path fill="none" stroke="#d85656" stroke-width="2" d="M267,-324C267,-324 203,-324 203,-324 197,-324 191,-318 191,-312 191,-312 191,-300 191,-300 191,-294 197,-288 203,-288 203,-288 267,-288 267,-288 273,-288 279,-294 279,-300 279,-300 279,-312 279,-312 279,-318 273,-324 267,-324"/>
<text text-anchor="middle" x="235" y="-303.5" font-family="sans" font-size="10.00" fill="#000000">Merge_Results</text>
</g>
<!-- 8&#45;&gt;4 -->
<g id="edge9" class="edge">
<title>8&#45;&gt;4</title>
<path fill="none" stroke="#c0c0c0" stroke-width="2" d="M251.4022,-287.8314C259.0415,-279.3694 268.2683,-269.1489 276.6207,-259.8971"/>
<polygon fill="#c0c0c0" stroke="#c0c0c0" stroke-width="2" points="279.2738,-262.1813 283.3769,-252.4133 274.0779,-257.4906 279.2738,-262.1813"/>
</g>
<!-- 9 -->
<g id="node10" class="node">
<title>9</title>
<path fill="none" stroke="#d85656" stroke-width="2" d="M570,-324C570,-324 506,-324 506,-324 500,-324 494,-318 494,-312 494,-312 494,-300 494,-300 494,-294 500,-288 506,-288 506,-288 570,-288 570,-288 576,-288 582,-294 582,-300 582,-300 582,-312 582,-312 582,-318 576,-324 570,-324"/>
<text text-anchor="middle" x="538" y="-303.5" font-family="sans" font-size="10.00" fill="#000000">Merge_Results</text>
</g>
<!-- 9&#45;&gt;5 -->
<g id="edge10" class="edge">
<title>9&#45;&gt;5</title>
<path fill="none" stroke="#c0c0c0" stroke-width="2" d="M538,-287.8314C538,-280.131 538,-270.9743 538,-262.4166"/>
<polygon fill="#c0c0c0" stroke="#c0c0c0" stroke-width="2" points="541.5001,-262.4132 538,-252.4133 534.5001,-262.4133 541.5001,-262.4132"/>
</g>
<!-- 10 -->
<g id="node11" class="node">
<title>10</title>
<path fill="none" stroke="#d85656" stroke-width="2" d="M759,-324C759,-324 695,-324 695,-324 689,-324 683,-318 683,-312 683,-312 683,-300 683,-300 683,-294 689,-288 695,-288 695,-288 759,-288 759,-288 765,-288 771,-294 771,-300 771,-300 771,-312 771,-312 771,-318 765,-324 759,-324"/>
<text text-anchor="middle" x="727" y="-303.5" font-family="sans" font-size="10.00" fill="#000000">Merge_Results</text>
</g>
<!-- 10&#45;&gt;6 -->
<g id="edge11" class="edge">
<title>10&#45;&gt;6</title>
<path fill="none" stroke="#c0c0c0" stroke-width="2" d="M727,-287.8314C727,-280.131 727,-270.9743 727,-262.4166"/>
<polygon fill="#c0c0c0" stroke="#c0c0c0" stroke-width="2" points="730.5001,-262.4132 727,-252.4133 723.5001,-262.4133 730.5001,-262.4132"/>
</g>
<!-- 11 -->
<g id="node12" class="node">
<title>11</title>
<path fill="none" stroke="#d85656" stroke-width="2" d="M1062,-324C1062,-324 998,-324 998,-324 992,-324 986,-318 986,-312 986,-312 986,-300 986,-300 986,-294 992,-288 998,-288 998,-288 1062,-288 1062,-288 1068,-288 1074,-294 1074,-300 1074,-300 1074,-312 1074,-312 1074,-318 1068,-324 1062,-324"/>
<text text-anchor="middle" x="1030" y="-303.5" font-family="sans" font-size="10.00" fill="#000000">Merge_Results</text>
</g>
<!-- 11&#45;&gt;7 -->
<g id="edge12" class="edge">
<title>11&#45;&gt;7</title>
<path fill="none" stroke="#c0c0c0" stroke-width="2" d="M1015.6165,-287.8314C1009.0514,-279.5386 1001.1493,-269.557 993.9422,-260.4533"/>
<polygon fill="#c0c0c0" stroke="#c0c0c0" stroke-width="2" points="996.5284,-258.0813 987.5772,-252.4133 991.0401,-262.4262 996.5284,-258.0813"/>
</g>
<!-- 12 -->
<g id="node13" class="node">
<title>12</title>
<path fill="none" stroke="#5682d8" stroke-width="2" d="M140,-396C140,-396 12,-396 12,-396 6,-396 0,-390 0,-384 0,-384 0,-372 0,-372 0,-366 6,-360 12,-360 12,-360 140,-360 140,-360 146,-360 152,-366 152,-372 152,-372 152,-384 152,-384 152,-390 146,-396 140,-396"/>
<text text-anchor="middle" x="76" y="-375.5" font-family="sans" font-size="10.00" fill="#000000">Build_Exonerate_Alignment</text>
</g>
<!-- 12&#45;&gt;8 -->
<g id="edge13" class="edge">
<title>12&#45;&gt;8</title>
<path fill="none" stroke="#c0c0c0" stroke-width="2" d="M116.1224,-359.8314C137.2932,-350.2446 163.4483,-338.4008 185.8303,-328.2655"/>
<polygon fill="#c0c0c0" stroke="#c0c0c0" stroke-width="2" points="187.5003,-331.3515 195.1661,-324.038 184.6128,-324.9748 187.5003,-331.3515"/>
</g>
<!-- 13 -->
<g id="node14" class="node">
<title>13</title>
<path fill="none" stroke="#9fd856" stroke-width="2" d="M287.5,-396C287.5,-396 182.5,-396 182.5,-396 176.5,-396 170.5,-390 170.5,-384 170.5,-384 170.5,-372 170.5,-372 170.5,-366 176.5,-360 182.5,-360 182.5,-360 287.5,-360 287.5,-360 293.5,-360 299.5,-366 299.5,-372 299.5,-372 299.5,-384 299.5,-384 299.5,-390 293.5,-396 287.5,-396"/>
<text text-anchor="middle" x="235" y="-375.5" font-family="sans" font-size="10.00" fill="#000000">Build_Spaln_Alignment</text>
</g>
<!-- 13&#45;&gt;8 -->
<g id="edge14" class="edge">
<title>13&#45;&gt;8</title>
<path fill="none" stroke="#c0c0c0" stroke-width="2" d="M235,-359.8314C235,-352.131 235,-342.9743 235,-334.4166"/>
<polygon fill="#c0c0c0" stroke="#c0c0c0" stroke-width="2" points="238.5001,-334.4132 235,-324.4133 231.5001,-334.4133 238.5001,-334.4132"/>
</g>
<!-- 14 -->
<g id="node15" class="node">
<title>14</title>
<path fill="none" stroke="#5682d8" stroke-width="2" d="M458,-396C458,-396 330,-396 330,-396 324,-396 318,-390 318,-384 318,-384 318,-372 318,-372 318,-366 324,-360 330,-360 330,-360 458,-360 458,-360 464,-360 470,-366 470,-372 470,-372 470,-384 470,-384 470,-390 464,-396 458,-396"/>
<text text-anchor="middle" x="394" y="-375.5" font-family="sans" font-size="10.00" fill="#000000">Build_Exonerate_Alignment</text>
</g>
<!-- 14&#45;&gt;9 -->
<g id="edge15" class="edge">
<title>14&#45;&gt;9</title>
<path fill="none" stroke="#c0c0c0" stroke-width="2" d="M430.3373,-359.8314C449.3396,-350.3302 472.7758,-338.6121 492.9252,-328.5374"/>
<polygon fill="#c0c0c0" stroke="#c0c0c0" stroke-width="2" points="494.545,-331.6407 501.924,-324.038 491.4145,-325.3797 494.545,-331.6407"/>
</g>
<!-- 15 -->
<g id="node16" class="node">
<title>15</title>
<path fill="none" stroke="#9fd856" stroke-width="2" d="M605.5,-396C605.5,-396 500.5,-396 500.5,-396 494.5,-396 488.5,-390 488.5,-384 488.5,-384 488.5,-372 488.5,-372 488.5,-366 494.5,-360 500.5,-360 500.5,-360 605.5,-360 605.5,-360 611.5,-360 617.5,-366 617.5,-372 617.5,-372 617.5,-384 617.5,-384 617.5,-390 611.5,-396 605.5,-396"/>
<text text-anchor="middle" x="553" y="-375.5" font-family="sans" font-size="10.00" fill="#000000">Build_Spaln_Alignment</text>
</g>
<!-- 15&#45;&gt;9 -->
<g id="edge16" class="edge">
<title>15&#45;&gt;9</title>
<path fill="none" stroke="#c0c0c0" stroke-width="2" d="M549.2149,-359.8314C547.6106,-352.131 545.703,-342.9743 543.9201,-334.4166"/>
<polygon fill="#c0c0c0" stroke="#c0c0c0" stroke-width="2" points="547.3021,-333.4892 541.8361,-324.4133 540.4493,-334.9169 547.3021,-333.4892"/>
</g>
<!-- 16 -->
<g id="node17" class="node">
<title>16</title>
<path fill="none" stroke="#5682d8" stroke-width="2" d="M776,-396C776,-396 648,-396 648,-396 642,-396 636,-390 636,-384 636,-384 636,-372 636,-372 636,-366 642,-360 648,-360 648,-360 776,-360 776,-360 782,-360 788,-366 788,-372 788,-372 788,-384 788,-384 788,-390 782,-396 776,-396"/>
<text text-anchor="middle" x="712" y="-375.5" font-family="sans" font-size="10.00" fill="#000000">Build_Exonerate_Alignment</text>
</g>
<!-- 16&#45;&gt;10 -->
<g id="edge17" class="edge">
<title>16&#45;&gt;10</title>
<path fill="none" stroke="#c0c0c0" stroke-width="2" d="M715.7851,-359.8314C717.3894,-352.131 719.297,-342.9743 721.0799,-334.4166"/>
<polygon fill="#c0c0c0" stroke="#c0c0c0" stroke-width="2" points="724.5507,-334.9169 723.1639,-324.4133 717.6979,-333.4892 724.5507,-334.9169"/>
</g>
<!-- 17 -->
<g id="node18" class="node">
<title>17</title>
<path fill="none" stroke="#9fd856" stroke-width="2" d="M923.5,-396C923.5,-396 818.5,-396 818.5,-396 812.5,-396 806.5,-390 806.5,-384 806.5,-384 806.5,-372 806.5,-372 806.5,-366 812.5,-360 818.5,-360 818.5,-360 923.5,-360 923.5,-360 929.5,-360 935.5,-366 935.5,-372 935.5,-372 935.5,-384 935.5,-384 935.5,-390 929.5,-396 923.5,-396"/>
<text text-anchor="middle" x="871" y="-375.5" font-family="sans" font-size="10.00" fill="#000000">Build_Spaln_Alignment</text>
</g>
<!-- 17&#45;&gt;10 -->
<g id="edge18" class="edge">
<title>17&#45;&gt;10</title>
<path fill="none" stroke="#c0c0c0" stroke-width="2" d="M834.6627,-359.8314C815.6604,-350.3302 792.2242,-338.6121 772.0748,-328.5374"/>
<polygon fill="#c0c0c0" stroke="#c0c0c0" stroke-width="2" points="773.5855,-325.3797 763.076,-324.038 770.455,-331.6407 773.5855,-325.3797"/>
</g>
<!-- 18 -->
<g id="node19" class="node">
<title>18</title>
<path fill="none" stroke="#5682d8" stroke-width="2" d="M1094,-396C1094,-396 966,-396 966,-396 960,-396 954,-390 954,-384 954,-384 954,-372 954,-372 954,-366 960,-360 966,-360 966,-360 1094,-360 1094,-360 1100,-360 1106,-366 1106,-372 1106,-372 1106,-384 1106,-384 1106,-390 1100,-396 1094,-396"/>
<text text-anchor="middle" x="1030" y="-375.5" font-family="sans" font-size="10.00" fill="#000000">Build_Exonerate_Alignment</text>
</g>
<!-- 18&#45;&gt;11 -->
<g id="edge19" class="edge">
<title>18&#45;&gt;11</title>
<path fill="none" stroke="#c0c0c0" stroke-width="2" d="M1030,-359.8314C1030,-352.131 1030,-342.9743 1030,-334.4166"/>
<polygon fill="#c0c0c0" stroke="#c0c0c0" stroke-width="2" points="1033.5001,-334.4132 1030,-324.4133 1026.5001,-334.4133 1033.5001,-334.4132"/>
</g>
<!-- 19 -->
<g id="node20" class="node">
<title>19</title>
<path fill="none" stroke="#9fd856" stroke-width="2" d="M1241.5,-396C1241.5,-396 1136.5,-396 1136.5,-396 1130.5,-396 1124.5,-390 1124.5,-384 1124.5,-384 1124.5,-372 1124.5,-372 1124.5,-366 1130.5,-360 1136.5,-360 1136.5,-360 1241.5,-360 1241.5,-360 1247.5,-360 1253.5,-366 1253.5,-372 1253.5,-372 1253.5,-384 1253.5,-384 1253.5,-390 1247.5,-396 1241.5,-396"/>
<text text-anchor="middle" x="1189" y="-375.5" font-family="sans" font-size="10.00" fill="#000000">Build_Spaln_Alignment</text>
</g>
<!-- 19&#45;&gt;11 -->
<g id="edge20" class="edge">
<title>19&#45;&gt;11</title>
<path fill="none" stroke="#c0c0c0" stroke-width="2" d="M1148.8776,-359.8314C1127.7068,-350.2446 1101.5517,-338.4008 1079.1697,-328.2655"/>
<polygon fill="#c0c0c0" stroke="#c0c0c0" stroke-width="2" points="1080.3872,-324.9748 1069.8339,-324.038 1077.4997,-331.3515 1080.3872,-324.9748"/>
</g>
<!-- 20 -->
<g id="node21" class="node">
<title>20</title>
<path fill="none" stroke="#56d8c9" stroke-width="2" d="M294,-468C294,-468 166,-468 166,-468 160,-468 154,-462 154,-456 154,-456 154,-444 154,-444 154,-438 160,-432 166,-432 166,-432 294,-432 294,-432 300,-432 306,-438 306,-444 306,-444 306,-456 306,-456 306,-462 300,-468 294,-468"/>
<text text-anchor="middle" x="230" y="-447.5" font-family="sans" font-size="10.00" fill="#000000">Filter_Out_Useless_Regions</text>
</g>
<!-- 20&#45;&gt;12 -->
<g id="edge21" class="edge">
<title>20&#45;&gt;12</title>
<path fill="none" stroke="#c0c0c0" stroke-width="2" d="M191.1393,-431.8314C170.7258,-422.2874 145.5277,-410.5065 123.914,-400.4013"/>
<polygon fill="#c0c0c0" stroke="#c0c0c0" stroke-width="2" points="125.1225,-397.1027 114.5813,-396.038 122.1577,-403.4439 125.1225,-397.1027"/>
</g>
<!-- 20&#45;&gt;13 -->
<g id="edge22" class="edge">
<title>20&#45;&gt;13</title>
<path fill="none" stroke="#c0c0c0" stroke-width="2" d="M231.2617,-431.8314C231.7965,-424.131 232.4323,-414.9743 233.0266,-406.4166"/>
<polygon fill="#c0c0c0" stroke="#c0c0c0" stroke-width="2" points="236.52,-406.6317 233.7213,-396.4133 229.5368,-406.1467 236.52,-406.6317"/>
</g>
<!-- 21 -->
<g id="node22" class="node">
<title>21</title>
<path fill="none" stroke="#56d8c9" stroke-width="2" d="M464,-468C464,-468 336,-468 336,-468 330,-468 324,-462 324,-456 324,-456 324,-444 324,-444 324,-438 330,-432 336,-432 336,-432 464,-432 464,-432 470,-432 476,-438 476,-444 476,-444 476,-456 476,-456 476,-462 470,-468 464,-468"/>
<text text-anchor="middle" x="400" y="-447.5" font-family="sans" font-size="10.00" fill="#000000">Filter_Out_Useless_Regions</text>
</g>
<!-- 21&#45;&gt;14 -->
<g id="edge23" class="edge">
<title>21&#45;&gt;14</title>
<path fill="none" stroke="#c0c0c0" stroke-width="2" d="M398.4859,-431.8314C397.8442,-424.131 397.0812,-414.9743 396.3681,-406.4166"/>
<polygon fill="#c0c0c0" stroke="#c0c0c0" stroke-width="2" points="399.8529,-406.088 395.5344,-396.4133 392.8771,-406.6694 399.8529,-406.088"/>
</g>
<!-- 21&#45;&gt;15 -->
<g id="edge24" class="edge">
<title>21&#45;&gt;15</title>
<path fill="none" stroke="#c0c0c0" stroke-width="2" d="M438.6084,-431.8314C458.8893,-422.2874 483.9238,-410.5065 505.3971,-400.4013"/>
<polygon fill="#c0c0c0" stroke="#c0c0c0" stroke-width="2" points="507.1114,-403.4629 514.6693,-396.038 504.1308,-397.1291 507.1114,-403.4629"/>
</g>
<!-- 22 -->
<g id="node23" class="node">
<title>22</title>
<path fill="none" stroke="#56d8c9" stroke-width="2" d="M929,-468C929,-468 801,-468 801,-468 795,-468 789,-462 789,-456 789,-456 789,-444 789,-444 789,-438 795,-432 801,-432 801,-432 929,-432 929,-432 935,-432 941,-438 941,-444 941,-444 941,-456 941,-456 941,-462 935,-468 929,-468"/>
<text text-anchor="middle" x="865" y="-447.5" font-family="sans" font-size="10.00" fill="#000000">Filter_Out_Useless_Regions</text>
</g>
<!-- 22&#45;&gt;16 -->
<g id="edge25" class="edge">
<title>22&#45;&gt;16</title>
<path fill="none" stroke="#c0c0c0" stroke-width="2" d="M826.3916,-431.8314C806.1107,-422.2874 781.0762,-410.5065 759.6029,-400.4013"/>
<polygon fill="#c0c0c0" stroke="#c0c0c0" stroke-width="2" points="760.8692,-397.1291 750.3307,-396.038 757.8886,-403.4629 760.8692,-397.1291"/>
</g>
<!-- 22&#45;&gt;17 -->
<g id="edge26" class="edge">
<title>22&#45;&gt;17</title>
<path fill="none" stroke="#c0c0c0" stroke-width="2" d="M866.5141,-431.8314C867.1558,-424.131 867.9188,-414.9743 868.6319,-406.4166"/>
<polygon fill="#c0c0c0" stroke="#c0c0c0" stroke-width="2" points="872.1229,-406.6694 869.4656,-396.4133 865.1471,-406.088 872.1229,-406.6694"/>
</g>
<!-- 23 -->
<g id="node24" class="node">
<title>23</title>
<path fill="none" stroke="#56d8c9" stroke-width="2" d="M1099,-468C1099,-468 971,-468 971,-468 965,-468 959,-462 959,-456 959,-456 959,-444 959,-444 959,-438 965,-432 971,-432 971,-432 1099,-432 1099,-432 1105,-432 1111,-438 1111,-444 1111,-444 1111,-456 1111,-456 1111,-462 1105,-468 1099,-468"/>
<text text-anchor="middle" x="1035" y="-447.5" font-family="sans" font-size="10.00" fill="#000000">Filter_Out_Useless_Regions</text>
</g>
<!-- 23&#45;&gt;18 -->
<g id="edge27" class="edge">
<title>23&#45;&gt;18</title>
<path fill="none" stroke="#c0c0c0" stroke-width="2" d="M1033.7383,-431.8314C1033.2035,-424.131 1032.5677,-414.9743 1031.9734,-406.4166"/>
<polygon fill="#c0c0c0" stroke="#c0c0c0" stroke-width="2" points="1035.4632,-406.1467 1031.2787,-396.4133 1028.48,-406.6317 1035.4632,-406.1467"/>
</g>
<!-- 23&#45;&gt;19 -->
<g id="edge28" class="edge">
<title>23&#45;&gt;19</title>
<path fill="none" stroke="#c0c0c0" stroke-width="2" d="M1073.8607,-431.8314C1094.2742,-422.2874 1119.4723,-410.5065 1141.086,-400.4013"/>
<polygon fill="#c0c0c0" stroke="#c0c0c0" stroke-width="2" points="1142.8423,-403.4439 1150.4187,-396.038 1139.8775,-397.1027 1142.8423,-403.4439"/>
</g>
<!-- 24 -->
<g id="node25" class="node">
<title>24</title>
<path fill="none" stroke="#70d856" stroke-width="2" d="M280.5,-540C280.5,-540 207.5,-540 207.5,-540 201.5,-540 195.5,-534 195.5,-528 195.5,-528 195.5,-516 195.5,-516 195.5,-510 201.5,-504 207.5,-504 207.5,-504 280.5,-504 280.5,-504 286.5,-504 292.5,-510 292.5,-516 292.5,-516 292.5,-528 292.5,-528 292.5,-534 286.5,-540 280.5,-540"/>
<text text-anchor="middle" x="244" y="-525" font-family="sans" font-size="10.00" fill="#000000">Find_Candidates</text>
<text text-anchor="middle" x="244" y="-514" font-family="sans" font-size="10.00" fill="#000000">query: proteins1</text>
</g>
<!-- 24&#45;&gt;20 -->
<g id="edge29" class="edge">
<title>24&#45;&gt;20</title>
<path fill="none" stroke="#c0c0c0" stroke-width="2" d="M240.4672,-503.8314C238.9699,-496.131 237.1895,-486.9743 235.5255,-478.4166"/>
<polygon fill="#c0c0c0" stroke="#c0c0c0" stroke-width="2" points="238.9248,-477.5614 233.5804,-468.4133 232.0535,-478.8975 238.9248,-477.5614"/>
</g>
<!-- 25 -->
<g id="node26" class="node">
<title>25</title>
<path fill="none" stroke="#70d856" stroke-width="2" d="M409.5,-540C409.5,-540 336.5,-540 336.5,-540 330.5,-540 324.5,-534 324.5,-528 324.5,-528 324.5,-516 324.5,-516 324.5,-510 330.5,-504 336.5,-504 336.5,-504 409.5,-504 409.5,-504 415.5,-504 421.5,-510 421.5,-516 421.5,-516 421.5,-528 421.5,-528 421.5,-534 415.5,-540 409.5,-540"/>
<text text-anchor="middle" x="373" y="-525" font-family="sans" font-size="10.00" fill="#000000">Find_Candidates</text>
<text text-anchor="middle" x="373" y="-514" font-family="sans" font-size="10.00" fill="#000000">query: proteins2</text>
</g>
<!-- 25&#45;&gt;21 -->
<g id="edge30" class="edge">
<title>25&#45;&gt;21</title>
<path fill="none" stroke="#c0c0c0" stroke-width="2" d="M379.8132,-503.8314C382.7644,-495.9617 386.2858,-486.5712 389.555,-477.8533"/>
<polygon fill="#c0c0c0" stroke="#c0c0c0" stroke-width="2" points="392.8609,-479.0055 393.095,-468.4133 386.3066,-476.5476 392.8609,-479.0055"/>
</g>
<!-- 26 -->
<g id="node27" class="node">
<title>26</title>
<path fill="none" stroke="#70d856" stroke-width="2" d="M915.5,-540C915.5,-540 842.5,-540 842.5,-540 836.5,-540 830.5,-534 830.5,-528 830.5,-528 830.5,-516 830.5,-516 830.5,-510 836.5,-504 842.5,-504 842.5,-504 915.5,-504 915.5,-504 921.5,-504 927.5,-510 927.5,-516 927.5,-516 927.5,-528 927.5,-528 927.5,-534 921.5,-540 915.5,-540"/>
<text text-anchor="middle" x="879" y="-525" font-family="sans" font-size="10.00" fill="#000000">Find_Candidates</text>
<text text-anchor="middle" x="879" y="-514" font-family="sans" font-size="10.00" fill="#000000">query: proteins1</text>
</g>
<!-- 26&#45;&gt;22 -->
<g id="edge31" class="edge">
<title>26&#45;&gt;22</title>
<path fill="none" stroke="#c0c0c0" stroke-width="2" d="M875.4672,-503.8314C873.9699,-496.131 872.1895,-486.9743 870.5255,-478.4166"/>
<polygon fill="#c0c0c0" stroke="#c0c0c0" stroke-width="2" points="873.9248,-477.5614 868.5804,-468.4133 867.0535,-478.8975 873.9248,-477.5614"/>
</g>
<!-- 27 -->
<g id="node28" class="node">
<title>27</title>
<path fill="none" stroke="#70d856" stroke-width="2" d="M1057.5,-540C1057.5,-540 984.5,-540 984.5,-540 978.5,-540 972.5,-534 972.5,-528 972.5,-528 972.5,-516 972.5,-516 972.5,-510 978.5,-504 984.5,-504 984.5,-504 1057.5,-504 1057.5,-504 1063.5,-504 1069.5,-510 1069.5,-516 1069.5,-516 1069.5,-528 1069.5,-528 1069.5,-534 1063.5,-540 1057.5,-540"/>
<text text-anchor="middle" x="1021" y="-525" font-family="sans" font-size="10.00" fill="#000000">Find_Candidates</text>
<text text-anchor="middle" x="1021" y="-514" font-family="sans" font-size="10.00" fill="#000000">query: proteins2</text>
</g>
<!-- 27&#45;&gt;23 -->
<g id="edge32" class="edge">
<title>27&#45;&gt;23</title>
<path fill="none" stroke="#c0c0c0" stroke-width="2" d="M1024.5328,-503.8314C1026.0301,-496.131 1027.8105,-486.9743 1029.4745,-478.4166"/>
<polygon fill="#c0c0c0" stroke="#c0c0c0" stroke-width="2" points="1032.9465,-478.8975 1031.4196,-468.4133 1026.0752,-477.5614 1032.9465,-478.8975"/>
</g>
<!-- 28 -->
<g id="node29" class="node">
<title>28</title>
<path fill="none" stroke="#ced856" stroke-width="2" d="M359.5,-612C359.5,-612 258.5,-612 258.5,-612 252.5,-612 246.5,-606 246.5,-600 246.5,-600 246.5,-588 246.5,-588 246.5,-582 252.5,-576 258.5,-576 258.5,-576 359.5,-576 359.5,-576 365.5,-576 371.5,-582 371.5,-588 371.5,-588 371.5,-600 371.5,-600 371.5,-606 365.5,-612 359.5,-612"/>
<text text-anchor="middle" x="309" y="-597" font-family="sans" font-size="10.00" fill="#000000">Build_DNA_Databases</text>
<text text-anchor="middle" x="309" y="-586" font-family="sans" font-size="10.00" fill="#000000">subject: genome1</text>
</g>
<!-- 28&#45;&gt;24 -->
<g id="edge33" class="edge">
<title>28&#45;&gt;24</title>
<path fill="none" stroke="#c0c0c0" stroke-width="2" d="M292.5978,-575.8314C284.9585,-567.3694 275.7317,-557.1489 267.3793,-547.8971"/>
<polygon fill="#c0c0c0" stroke="#c0c0c0" stroke-width="2" points="269.9221,-545.4906 260.6231,-540.4133 264.7262,-550.1813 269.9221,-545.4906"/>
</g>
<!-- 28&#45;&gt;25 -->
<g id="edge34" class="edge">
<title>28&#45;&gt;25</title>
<path fill="none" stroke="#c0c0c0" stroke-width="2" d="M325.1499,-575.8314C332.6717,-567.3694 341.7565,-557.1489 349.9804,-547.8971"/>
<polygon fill="#c0c0c0" stroke="#c0c0c0" stroke-width="2" points="352.6049,-550.2127 356.6327,-540.4133 347.373,-545.5621 352.6049,-550.2127"/>
</g>
<!-- 29 -->
<g id="node30" class="node">
<title>29</title>
<path fill="none" stroke="#ced856" stroke-width="2" d="M1000.5,-612C1000.5,-612 899.5,-612 899.5,-612 893.5,-612 887.5,-606 887.5,-600 887.5,-600 887.5,-588 887.5,-588 887.5,-582 893.5,-576 899.5,-576 899.5,-576 1000.5,-576 1000.5,-576 1006.5,-576 1012.5,-582 1012.5,-588 1012.5,-588 1012.5,-600 1012.5,-600 1012.5,-606 1006.5,-612 1000.5,-612"/>
<text text-anchor="middle" x="950" y="-597" font-family="sans" font-size="10.00" fill="#000000">Build_DNA_Databases</text>
<text text-anchor="middle" x="950" y="-586" font-family="sans" font-size="10.00" fill="#000000">subject: genome2</text>
</g>
<!-- 29&#45;&gt;26 -->
<g id="edge35" class="edge">
<title>29&#45;&gt;26</title>
<path fill="none" stroke="#c0c0c0" stroke-width="2" d="M932.0837,-575.8314C923.6558,-567.2848 913.459,-556.9443 904.264,-547.6198"/>
<polygon fill="#c0c0c0" stroke="#c0c0c0" stroke-width="2" points="906.6711,-545.0761 897.1575,-540.4133 901.6869,-549.9912 906.6711,-545.0761"/>
</g>
<!-- 29&#45;&gt;27 -->
<g id="edge36" class="edge">
<title>29&#45;&gt;27</title>
<path fill="none" stroke="#c0c0c0" stroke-width="2" d="M967.9163,-575.8314C976.3442,-567.2848 986.541,-556.9443 995.736,-547.6198"/>
<polygon fill="#c0c0c0" stroke="#c0c0c0" stroke-width="2" points="998.3131,-549.9912 1002.8425,-540.4133 993.3289,-545.0761 998.3131,-549.9912"/>
</g>
</g>
</svg>
