<?xml version="1.0" encoding="UTF-8" standalone="no"?>
<!DOCTYPE svg PUBLIC "-//W3C//DTD SVG 1.1//EN"
 "http://www.w3.org/Graphics/SVG/1.1/DTD/svg11.dtd">
<!-- Generated by graphviz version 2.40.1 (20161225.0304)
 -->
<!-- Title: snakemake_dag Pages: 1 -->
<svg width="856pt" height="764pt"
 viewBox="0.00 0.00 856.00 764.00" xmlns="http://www.w3.org/2000/svg" xmlns:xlink="http://www.w3.org/1999/xlink">
<g id="graph0" class="graph" transform="scale(1 1) rotate(0) translate(4 760)">
<title>snakemake_dag</title>
<polygon fill="#ffffff" stroke="transparent" points="-4,4 -4,-760 852,-760 852,4 -4,4"/>
<!-- 0 -->
<g id="node1" class="node">
<title>0</title>
<path fill="none" stroke="#56d8d0" stroke-width="2" d="M423.5,-36C423.5,-36 393.5,-36 393.5,-36 387.5,-36 381.5,-30 381.5,-24 381.5,-24 381.5,-12 381.5,-12 381.5,-6 387.5,0 393.5,0 393.5,0 423.5,0 423.5,0 429.5,0 435.5,-6 435.5,-12 435.5,-12 435.5,-24 435.5,-24 435.5,-30 429.5,-36 423.5,-36"/>
<text text-anchor="middle" x="408.5" y="-15.5" font-family="sans" font-size="10.00" fill="#000000">finish</text>
</g>
<!-- 1 -->
<g id="node2" class="node">
<title>1</title>
<path fill="none" stroke="#68d856" stroke-width="2" d="M424.5,-108C424.5,-108 392.5,-108 392.5,-108 386.5,-108 380.5,-102 380.5,-96 380.5,-96 380.5,-84 380.5,-84 380.5,-78 386.5,-72 392.5,-72 392.5,-72 424.5,-72 424.5,-72 430.5,-72 436.5,-78 436.5,-84 436.5,-84 436.5,-96 436.5,-96 436.5,-102 430.5,-108 424.5,-108"/>
<text text-anchor="middle" x="408.5" y="-87.5" font-family="sans" font-size="10.00" fill="#000000">finished</text>
</g>
<!-- 1&#45;&gt;0 -->
<g id="edge1" class="edge">
<title>1&#45;&gt;0</title>
<path fill="none" stroke="#c0c0c0" stroke-width="2" d="M408.5,-71.8314C408.5,-64.131 408.5,-54.9743 408.5,-46.4166"/>
<polygon fill="#c0c0c0" stroke="#c0c0c0" stroke-width="2" points="412.0001,-46.4132 408.5,-36.4133 405.0001,-46.4133 412.0001,-46.4132"/>
</g>
<!-- 2 -->
<g id="node3" class="node">
<title>2</title>
<path fill="none" stroke="#56c1d8" stroke-width="2" d="M179,-180C179,-180 12,-180 12,-180 6,-180 0,-174 0,-168 0,-168 0,-156 0,-156 0,-150 6,-144 12,-144 12,-144 179,-144 179,-144 185,-144 191,-150 191,-156 191,-156 191,-168 191,-168 191,-174 185,-180 179,-180"/>
<text text-anchor="middle" x="95.5" y="-159.5" font-family="sans" font-size="10.00" fill="#000000">Visualize_Results_Above_Threshold</text>
</g>
<!-- 2&#45;&gt;1 -->
<g id="edge2" class="edge">
<title>2&#45;&gt;1</title>
<path fill="none" stroke="#c0c0c0" stroke-width="2" d="M174.0791,-143.9243C236.8011,-129.4962 321.9417,-109.9112 370.4649,-98.7493"/>
<polygon fill="#c0c0c0" stroke="#c0c0c0" stroke-width="2" points="371.2813,-102.153 380.2422,-96.5002 369.712,-95.3311 371.2813,-102.153"/>
</g>
<!-- 3 -->
<g id="node4" class="node">
<title>3</title>
<path fill="none" stroke="#56c1d8" stroke-width="2" d="M597,-180C597,-180 430,-180 430,-180 424,-180 418,-174 418,-168 418,-168 418,-156 418,-156 418,-150 424,-144 430,-144 430,-144 597,-144 597,-144 603,-144 609,-150 609,-156 609,-156 609,-168 609,-168 609,-174 603,-180 597,-180"/>
<text text-anchor="middle" x="513.5" y="-159.5" font-family="sans" font-size="10.00" fill="#000000">Visualize_Results_Above_Threshold</text>
</g>
<!-- 3&#45;&gt;1 -->
<g id="edge3" class="edge">
<title>3&#45;&gt;1</title>
<path fill="none" stroke="#c0c0c0" stroke-width="2" d="M487.0041,-143.8314C473.8226,-134.7927 457.7153,-123.7476 443.5289,-114.0198"/>
<polygon fill="#c0c0c0" stroke="#c0c0c0" stroke-width="2" points="445.2141,-110.9316 434.9875,-108.1628 441.2554,-116.7047 445.2141,-110.9316"/>
</g>
<!-- 4 -->
<g id="node5" class="node">
<title>4</title>
<path fill="none" stroke="#56d8a9" stroke-width="2" d="M388,-180C388,-180 221,-180 221,-180 215,-180 209,-174 209,-168 209,-168 209,-156 209,-156 209,-150 215,-144 221,-144 221,-144 388,-144 388,-144 394,-144 400,-150 400,-156 400,-156 400,-168 400,-168 400,-174 394,-180 388,-180"/>
<text text-anchor="middle" x="304.5" y="-159.5" font-family="sans" font-size="10.00" fill="#000000">Visualize_Results_Below_Threshold</text>
</g>
<!-- 4&#45;&gt;1 -->
<g id="edge4" class="edge">
<title>4&#45;&gt;1</title>
<path fill="none" stroke="#c0c0c0" stroke-width="2" d="M330.7436,-143.8314C343.7995,-134.7927 359.7535,-123.7476 373.8047,-114.0198"/>
<polygon fill="#c0c0c0" stroke="#c0c0c0" stroke-width="2" points="376.0351,-116.7326 382.2648,-108.1628 372.0506,-110.9773 376.0351,-116.7326"/>
</g>
<!-- 5 -->
<g id="node6" class="node">
<title>5</title>
<path fill="none" stroke="#56d8a9" stroke-width="2" d="M806,-180C806,-180 639,-180 639,-180 633,-180 627,-174 627,-168 627,-168 627,-156 627,-156 627,-150 633,-144 639,-144 639,-144 806,-144 806,-144 812,-144 818,-150 818,-156 818,-156 818,-168 818,-168 818,-174 812,-180 806,-180"/>
<text text-anchor="middle" x="722.5" y="-159.5" font-family="sans" font-size="10.00" fill="#000000">Visualize_Results_Below_Threshold</text>
</g>
<!-- 5&#45;&gt;1 -->
<g id="edge5" class="edge">
<title>5&#45;&gt;1</title>
<path fill="none" stroke="#c0c0c0" stroke-width="2" d="M643.6698,-143.9243C580.7475,-129.4962 495.3348,-109.9112 446.6566,-98.7493"/>
<polygon fill="#c0c0c0" stroke="#c0c0c0" stroke-width="2" points="447.3774,-95.3238 436.8481,-96.5002 445.8129,-102.1467 447.3774,-95.3238"/>
</g>
<!-- 6 -->
<g id="node7" class="node">
<title>6</title>
<path fill="none" stroke="#d87556" stroke-width="2" d="M236,-252C236,-252 161,-252 161,-252 155,-252 149,-246 149,-240 149,-240 149,-228 149,-228 149,-222 155,-216 161,-216 161,-216 236,-216 236,-216 242,-216 248,-222 248,-228 248,-228 248,-240 248,-240 248,-246 242,-252 236,-252"/>
<text text-anchor="middle" x="198.5" y="-231.5" font-family="sans" font-size="10.00" fill="#000000">Filter_Sequences</text>
</g>
<!-- 6&#45;&gt;2 -->
<g id="edge6" class="edge">
<title>6&#45;&gt;2</title>
<path fill="none" stroke="#c0c0c0" stroke-width="2" d="M172.5088,-215.8314C159.5784,-206.7927 143.7778,-195.7476 129.8617,-186.0198"/>
<polygon fill="#c0c0c0" stroke="#c0c0c0" stroke-width="2" points="131.6843,-183.0235 121.4829,-180.1628 127.6737,-188.7608 131.6843,-183.0235"/>
</g>
<!-- 6&#45;&gt;4 -->
<g id="edge8" class="edge">
<title>6&#45;&gt;4</title>
<path fill="none" stroke="#c0c0c0" stroke-width="2" d="M225.2483,-215.8314C238.5553,-206.7927 254.816,-195.7476 269.1375,-186.0198"/>
<polygon fill="#c0c0c0" stroke="#c0c0c0" stroke-width="2" points="271.4547,-188.677 277.7603,-180.1628 267.5215,-182.8864 271.4547,-188.677"/>
</g>
<!-- 7 -->
<g id="node8" class="node">
<title>7</title>
<path fill="none" stroke="#d87556" stroke-width="2" d="M630,-252C630,-252 555,-252 555,-252 549,-252 543,-246 543,-240 543,-240 543,-228 543,-228 543,-222 549,-216 555,-216 555,-216 630,-216 630,-216 636,-216 642,-222 642,-228 642,-228 642,-240 642,-240 642,-246 636,-252 630,-252"/>
<text text-anchor="middle" x="592.5" y="-231.5" font-family="sans" font-size="10.00" fill="#000000">Filter_Sequences</text>
</g>
<!-- 7&#45;&gt;3 -->
<g id="edge7" class="edge">
<title>7&#45;&gt;3</title>
<path fill="none" stroke="#c0c0c0" stroke-width="2" d="M572.565,-215.8314C563.0217,-207.1337 551.4401,-196.5783 541.0694,-187.1265"/>
<polygon fill="#c0c0c0" stroke="#c0c0c0" stroke-width="2" points="543.1772,-184.3121 533.4287,-180.1628 538.462,-189.4857 543.1772,-184.3121"/>
</g>
<!-- 7&#45;&gt;5 -->
<g id="edge9" class="edge">
<title>7&#45;&gt;5</title>
<path fill="none" stroke="#c0c0c0" stroke-width="2" d="M625.3045,-215.8314C642.0862,-206.5368 662.6985,-195.1208 680.6163,-185.1971"/>
<polygon fill="#c0c0c0" stroke="#c0c0c0" stroke-width="2" points="682.6538,-188.0696 689.706,-180.1628 679.2623,-181.9461 682.6538,-188.0696"/>
</g>
<!-- 8 -->
<g id="node9" class="node">
<title>8</title>
<path fill="none" stroke="#56d86b" stroke-width="2" d="M230.5,-324C230.5,-324 166.5,-324 166.5,-324 160.5,-324 154.5,-318 154.5,-312 154.5,-312 154.5,-300 154.5,-300 154.5,-294 160.5,-288 166.5,-288 166.5,-288 230.5,-288 230.5,-288 236.5,-288 242.5,-294 242.5,-300 242.5,-300 242.5,-312 242.5,-312 242.5,-318 236.5,-324 230.5,-324"/>
<text text-anchor="middle" x="198.5" y="-303.5" font-family="sans" font-size="10.00" fill="#000000">Merge_Results</text>
</g>
<!-- 8&#45;&gt;6 -->
<g id="edge10" class="edge">
<title>8&#45;&gt;6</title>
<path fill="none" stroke="#c0c0c0" stroke-width="2" d="M198.5,-287.8314C198.5,-280.131 198.5,-270.9743 198.5,-262.4166"/>
<polygon fill="#c0c0c0" stroke="#c0c0c0" stroke-width="2" points="202.0001,-262.4132 198.5,-252.4133 195.0001,-262.4133 202.0001,-262.4132"/>
</g>
<!-- 9 -->
<g id="node10" class="node">
<title>9</title>
<path fill="none" stroke="#56d86b" stroke-width="2" d="M624.5,-324C624.5,-324 560.5,-324 560.5,-324 554.5,-324 548.5,-318 548.5,-312 548.5,-312 548.5,-300 548.5,-300 548.5,-294 554.5,-288 560.5,-288 560.5,-288 624.5,-288 624.5,-288 630.5,-288 636.5,-294 636.5,-300 636.5,-300 636.5,-312 636.5,-312 636.5,-318 630.5,-324 624.5,-324"/>
<text text-anchor="middle" x="592.5" y="-303.5" font-family="sans" font-size="10.00" fill="#000000">Merge_Results</text>
</g>
<!-- 9&#45;&gt;7 -->
<g id="edge11" class="edge">
<title>9&#45;&gt;7</title>
<path fill="none" stroke="#c0c0c0" stroke-width="2" d="M592.5,-287.8314C592.5,-280.131 592.5,-270.9743 592.5,-262.4166"/>
<polygon fill="#c0c0c0" stroke="#c0c0c0" stroke-width="2" points="596.0001,-262.4132 592.5,-252.4133 589.0001,-262.4133 596.0001,-262.4132"/>
</g>
<!-- 10 -->
<g id="node11" class="node">
<title>10</title>
<path fill="none" stroke="#56d88a" stroke-width="2" d="M203,-396C203,-396 34,-396 34,-396 28,-396 22,-390 22,-384 22,-384 22,-372 22,-372 22,-366 28,-360 34,-360 34,-360 203,-360 203,-360 209,-360 215,-366 215,-372 215,-372 215,-384 215,-384 215,-390 209,-396 203,-396"/>
<text text-anchor="middle" x="118.5" y="-375.5" font-family="sans" font-size="10.00" fill="#000000">Calculate_Ex_Sequence_Similarities</text>
</g>
<!-- 10&#45;&gt;8 -->
<g id="edge12" class="edge">
<title>10&#45;&gt;8</title>
<path fill="none" stroke="#c0c0c0" stroke-width="2" d="M138.6874,-359.8314C148.3514,-351.1337 160.0796,-340.5783 170.5816,-331.1265"/>
<polygon fill="#c0c0c0" stroke="#c0c0c0" stroke-width="2" points="173.2275,-333.454 178.3191,-324.1628 168.5447,-328.251 173.2275,-333.454"/>
</g>
<!-- 11 -->
<g id="node12" class="node">
<title>11</title>
<path fill="none" stroke="#ced856" stroke-width="2" d="M414,-396C414,-396 245,-396 245,-396 239,-396 233,-390 233,-384 233,-384 233,-372 233,-372 233,-366 239,-360 245,-360 245,-360 414,-360 414,-360 420,-360 426,-366 426,-372 426,-372 426,-384 426,-384 426,-390 420,-396 414,-396"/>
<text text-anchor="middle" x="329.5" y="-375.5" font-family="sans" font-size="10.00" fill="#000000">Calculate_Sp_Sequence_Similarities</text>
</g>
<!-- 11&#45;&gt;8 -->
<g id="edge13" class="edge">
<title>11&#45;&gt;8</title>
<path fill="none" stroke="#c0c0c0" stroke-width="2" d="M296.4432,-359.8314C279.5323,-350.5368 258.7615,-339.1208 240.7059,-329.1971"/>
<polygon fill="#c0c0c0" stroke="#c0c0c0" stroke-width="2" points="241.9957,-325.9122 231.5463,-324.1628 238.624,-332.0468 241.9957,-325.9122"/>
</g>
<!-- 12 -->
<g id="node13" class="node">
<title>12</title>
<path fill="none" stroke="#56d88a" stroke-width="2" d="M625,-396C625,-396 456,-396 456,-396 450,-396 444,-390 444,-384 444,-384 444,-372 444,-372 444,-366 450,-360 456,-360 456,-360 625,-360 625,-360 631,-360 637,-366 637,-372 637,-372 637,-384 637,-384 637,-390 631,-396 625,-396"/>
<text text-anchor="middle" x="540.5" y="-375.5" font-family="sans" font-size="10.00" fill="#000000">Calculate_Ex_Sequence_Similarities</text>
</g>
<!-- 12&#45;&gt;9 -->
<g id="edge14" class="edge">
<title>12&#45;&gt;9</title>
<path fill="none" stroke="#c0c0c0" stroke-width="2" d="M553.6218,-359.8314C559.5499,-351.6232 566.6729,-341.7606 573.1933,-332.7323"/>
<polygon fill="#c0c0c0" stroke="#c0c0c0" stroke-width="2" points="576.184,-334.5693 579.2015,-324.4133 570.5092,-330.4708 576.184,-334.5693"/>
</g>
<!-- 13 -->
<g id="node14" class="node">
<title>13</title>
<path fill="none" stroke="#ced856" stroke-width="2" d="M836,-396C836,-396 667,-396 667,-396 661,-396 655,-390 655,-384 655,-384 655,-372 655,-372 655,-366 661,-360 667,-360 667,-360 836,-360 836,-360 842,-360 848,-366 848,-372 848,-372 848,-384 848,-384 848,-390 842,-396 836,-396"/>
<text text-anchor="middle" x="751.5" y="-375.5" font-family="sans" font-size="10.00" fill="#000000">Calculate_Sp_Sequence_Similarities</text>
</g>
<!-- 13&#45;&gt;9 -->
<g id="edge15" class="edge">
<title>13&#45;&gt;9</title>
<path fill="none" stroke="#c0c0c0" stroke-width="2" d="M711.3776,-359.8314C690.2068,-350.2446 664.0517,-338.4008 641.6697,-328.2655"/>
<polygon fill="#c0c0c0" stroke="#c0c0c0" stroke-width="2" points="642.8872,-324.9748 632.3339,-324.038 639.9997,-331.3515 642.8872,-324.9748"/>
</g>
<!-- 14 -->
<g id="node15" class="node">
<title>14</title>
<path fill="none" stroke="#88d856" stroke-width="2" d="M186,-468C186,-468 77,-468 77,-468 71,-468 65,-462 65,-456 65,-456 65,-444 65,-444 65,-438 71,-432 77,-432 77,-432 186,-432 186,-432 192,-432 198,-438 198,-444 198,-444 198,-456 198,-456 198,-462 192,-468 186,-468"/>
<text text-anchor="middle" x="131.5" y="-447.5" font-family="sans" font-size="10.00" fill="#000000">Retrieve_Ex_Sequences</text>
</g>
<!-- 14&#45;&gt;10 -->
<g id="edge16" class="edge">
<title>14&#45;&gt;10</title>
<path fill="none" stroke="#c0c0c0" stroke-width="2" d="M128.2196,-431.8314C126.8292,-424.131 125.1759,-414.9743 123.6308,-406.4166"/>
<polygon fill="#c0c0c0" stroke="#c0c0c0" stroke-width="2" points="127.0458,-405.6322 121.8246,-396.4133 120.1572,-406.8761 127.0458,-405.6322"/>
</g>
<!-- 15 -->
<g id="node16" class="node">
<title>15</title>
<path fill="none" stroke="#567bd8" stroke-width="2" d="M384,-468C384,-468 275,-468 275,-468 269,-468 263,-462 263,-456 263,-456 263,-444 263,-444 263,-438 269,-432 275,-432 275,-432 384,-432 384,-432 390,-432 396,-438 396,-444 396,-444 396,-456 396,-456 396,-462 390,-468 384,-468"/>
<text text-anchor="middle" x="329.5" y="-447.5" font-family="sans" font-size="10.00" fill="#000000">Retrieve_Sp_Sequences</text>
</g>
<!-- 15&#45;&gt;11 -->
<g id="edge17" class="edge">
<title>15&#45;&gt;11</title>
<path fill="none" stroke="#c0c0c0" stroke-width="2" d="M329.5,-431.8314C329.5,-424.131 329.5,-414.9743 329.5,-406.4166"/>
<polygon fill="#c0c0c0" stroke="#c0c0c0" stroke-width="2" points="333.0001,-406.4132 329.5,-396.4133 326.0001,-406.4133 333.0001,-406.4132"/>
</g>
<!-- 16 -->
<g id="node17" class="node">
<title>16</title>
<path fill="none" stroke="#88d856" stroke-width="2" d="M595,-468C595,-468 486,-468 486,-468 480,-468 474,-462 474,-456 474,-456 474,-444 474,-444 474,-438 480,-432 486,-432 486,-432 595,-432 595,-432 601,-432 607,-438 607,-444 607,-444 607,-456 607,-456 607,-462 601,-468 595,-468"/>
<text text-anchor="middle" x="540.5" y="-447.5" font-family="sans" font-size="10.00" fill="#000000">Retrieve_Ex_Sequences</text>
</g>
<!-- 16&#45;&gt;12 -->
<g id="edge18" class="edge">
<title>16&#45;&gt;12</title>
<path fill="none" stroke="#c0c0c0" stroke-width="2" d="M540.5,-431.8314C540.5,-424.131 540.5,-414.9743 540.5,-406.4166"/>
<polygon fill="#c0c0c0" stroke="#c0c0c0" stroke-width="2" points="544.0001,-406.4132 540.5,-396.4133 537.0001,-406.4133 544.0001,-406.4132"/>
</g>
<!-- 17 -->
<g id="node18" class="node">
<title>17</title>
<path fill="none" stroke="#567bd8" stroke-width="2" d="M793,-468C793,-468 684,-468 684,-468 678,-468 672,-462 672,-456 672,-456 672,-444 672,-444 672,-438 678,-432 684,-432 684,-432 793,-432 793,-432 799,-432 805,-438 805,-444 805,-444 805,-456 805,-456 805,-462 799,-468 793,-468"/>
<text text-anchor="middle" x="738.5" y="-447.5" font-family="sans" font-size="10.00" fill="#000000">Retrieve_Sp_Sequences</text>
</g>
<!-- 17&#45;&gt;13 -->
<g id="edge19" class="edge">
<title>17&#45;&gt;13</title>
<path fill="none" stroke="#c0c0c0" stroke-width="2" d="M741.7804,-431.8314C743.1708,-424.131 744.8241,-414.9743 746.3692,-406.4166"/>
<polygon fill="#c0c0c0" stroke="#c0c0c0" stroke-width="2" points="749.8428,-406.8761 748.1754,-396.4133 742.9542,-405.6322 749.8428,-406.8761"/>
</g>
<!-- 18 -->
<g id="node19" class="node">
<title>18</title>
<path fill="none" stroke="#afd856" stroke-width="2" d="M221.5,-540C221.5,-540 93.5,-540 93.5,-540 87.5,-540 81.5,-534 81.5,-528 81.5,-528 81.5,-516 81.5,-516 81.5,-510 87.5,-504 93.5,-504 93.5,-504 221.5,-504 221.5,-504 227.5,-504 233.5,-510 233.5,-516 233.5,-516 233.5,-528 233.5,-528 233.5,-534 227.5,-540 221.5,-540"/>
<text text-anchor="middle" x="157.5" y="-519.5" font-family="sans" font-size="10.00" fill="#000000">Build_Exonerate_Alignment</text>
</g>
<!-- 18&#45;&gt;14 -->
<g id="edge20" class="edge">
<title>18&#45;&gt;14</title>
<path fill="none" stroke="#c0c0c0" stroke-width="2" d="M150.9391,-503.8314C148.0973,-495.9617 144.7063,-486.5712 141.5581,-477.8533"/>
<polygon fill="#c0c0c0" stroke="#c0c0c0" stroke-width="2" points="144.8377,-476.63 138.1492,-468.4133 138.2538,-479.0076 144.8377,-476.63"/>
</g>
<!-- 19 -->
<g id="node20" class="node">
<title>19</title>
<path fill="none" stroke="#d8bc56" stroke-width="2" d="M382,-540C382,-540 277,-540 277,-540 271,-540 265,-534 265,-528 265,-528 265,-516 265,-516 265,-510 271,-504 277,-504 277,-504 382,-504 382,-504 388,-504 394,-510 394,-516 394,-516 394,-528 394,-528 394,-534 388,-540 382,-540"/>
<text text-anchor="middle" x="329.5" y="-519.5" font-family="sans" font-size="10.00" fill="#000000">Build_Spaln_Alignment</text>
</g>
<!-- 19&#45;&gt;15 -->
<g id="edge21" class="edge">
<title>19&#45;&gt;15</title>
<path fill="none" stroke="#c0c0c0" stroke-width="2" d="M329.5,-503.8314C329.5,-496.131 329.5,-486.9743 329.5,-478.4166"/>
<polygon fill="#c0c0c0" stroke="#c0c0c0" stroke-width="2" points="333.0001,-478.4132 329.5,-468.4133 326.0001,-478.4133 333.0001,-478.4132"/>
</g>
<!-- 20 -->
<g id="node21" class="node">
<title>20</title>
<path fill="none" stroke="#afd856" stroke-width="2" d="M604.5,-540C604.5,-540 476.5,-540 476.5,-540 470.5,-540 464.5,-534 464.5,-528 464.5,-528 464.5,-516 464.5,-516 464.5,-510 470.5,-504 476.5,-504 476.5,-504 604.5,-504 604.5,-504 610.5,-504 616.5,-510 616.5,-516 616.5,-516 616.5,-528 616.5,-528 616.5,-534 610.5,-540 604.5,-540"/>
<text text-anchor="middle" x="540.5" y="-519.5" font-family="sans" font-size="10.00" fill="#000000">Build_Exonerate_Alignment</text>
</g>
<!-- 20&#45;&gt;16 -->
<g id="edge22" class="edge">
<title>20&#45;&gt;16</title>
<path fill="none" stroke="#c0c0c0" stroke-width="2" d="M540.5,-503.8314C540.5,-496.131 540.5,-486.9743 540.5,-478.4166"/>
<polygon fill="#c0c0c0" stroke="#c0c0c0" stroke-width="2" points="544.0001,-478.4132 540.5,-468.4133 537.0001,-478.4133 544.0001,-478.4132"/>
</g>
<!-- 21 -->
<g id="node22" class="node">
<title>21</title>
<path fill="none" stroke="#d8bc56" stroke-width="2" d="M778,-540C778,-540 673,-540 673,-540 667,-540 661,-534 661,-528 661,-528 661,-516 661,-516 661,-510 667,-504 673,-504 673,-504 778,-504 778,-504 784,-504 790,-510 790,-516 790,-516 790,-528 790,-528 790,-534 784,-540 778,-540"/>
<text text-anchor="middle" x="725.5" y="-519.5" font-family="sans" font-size="10.00" fill="#000000">Build_Spaln_Alignment</text>
</g>
<!-- 21&#45;&gt;17 -->
<g id="edge23" class="edge">
<title>21&#45;&gt;17</title>
<path fill="none" stroke="#c0c0c0" stroke-width="2" d="M728.7804,-503.8314C730.1708,-496.131 731.8241,-486.9743 733.3692,-478.4166"/>
<polygon fill="#c0c0c0" stroke="#c0c0c0" stroke-width="2" points="736.8428,-478.8761 735.1754,-468.4133 729.9542,-477.6322 736.8428,-478.8761"/>
</g>
<!-- 22 -->
<g id="node23" class="node">
<title>22</title>
<path fill="none" stroke="#569ad8" stroke-width="2" d="M393.5,-612C393.5,-612 265.5,-612 265.5,-612 259.5,-612 253.5,-606 253.5,-600 253.5,-600 253.5,-588 253.5,-588 253.5,-582 259.5,-576 265.5,-576 265.5,-576 393.5,-576 393.5,-576 399.5,-576 405.5,-582 405.5,-588 405.5,-588 405.5,-600 405.5,-600 405.5,-606 399.5,-612 393.5,-612"/>
<text text-anchor="middle" x="329.5" y="-591.5" font-family="sans" font-size="10.00" fill="#000000">Filter_Out_Useless_Regions</text>
</g>
<!-- 22&#45;&gt;18 -->
<g id="edge24" class="edge">
<title>22&#45;&gt;18</title>
<path fill="none" stroke="#c0c0c0" stroke-width="2" d="M286.0971,-575.8314C262.9909,-566.159 234.3962,-554.1891 210.0423,-543.9944"/>
<polygon fill="#c0c0c0" stroke="#c0c0c0" stroke-width="2" points="211.1667,-540.6709 200.5908,-540.038 208.4637,-547.128 211.1667,-540.6709"/>
</g>
<!-- 22&#45;&gt;19 -->
<g id="edge25" class="edge">
<title>22&#45;&gt;19</title>
<path fill="none" stroke="#c0c0c0" stroke-width="2" d="M329.5,-575.8314C329.5,-568.131 329.5,-558.9743 329.5,-550.4166"/>
<polygon fill="#c0c0c0" stroke="#c0c0c0" stroke-width="2" points="333.0001,-550.4132 329.5,-540.4133 326.0001,-550.4133 333.0001,-550.4132"/>
</g>
<!-- 23 -->
<g id="node24" class="node">
<title>23</title>
<path fill="none" stroke="#569ad8" stroke-width="2" d="M604.5,-612C604.5,-612 476.5,-612 476.5,-612 470.5,-612 464.5,-606 464.5,-600 464.5,-600 464.5,-588 464.5,-588 464.5,-582 470.5,-576 476.5,-576 476.5,-576 604.5,-576 604.5,-576 610.5,-576 616.5,-582 616.5,-588 616.5,-588 616.5,-600 616.5,-600 616.5,-606 610.5,-612 604.5,-612"/>
<text text-anchor="middle" x="540.5" y="-591.5" font-family="sans" font-size="10.00" fill="#000000">Filter_Out_Useless_Regions</text>
</g>
<!-- 23&#45;&gt;20 -->
<g id="edge26" class="edge">
<title>23&#45;&gt;20</title>
<path fill="none" stroke="#c0c0c0" stroke-width="2" d="M540.5,-575.8314C540.5,-568.131 540.5,-558.9743 540.5,-550.4166"/>
<polygon fill="#c0c0c0" stroke="#c0c0c0" stroke-width="2" points="544.0001,-550.4132 540.5,-540.4133 537.0001,-550.4133 544.0001,-550.4132"/>
</g>
<!-- 23&#45;&gt;21 -->
<g id="edge27" class="edge">
<title>23&#45;&gt;21</title>
<path fill="none" stroke="#c0c0c0" stroke-width="2" d="M587.1833,-575.8314C612.2559,-566.0734 643.3367,-553.977 669.6809,-543.7242"/>
<polygon fill="#c0c0c0" stroke="#c0c0c0" stroke-width="2" points="671.1027,-546.9266 679.1524,-540.038 668.5638,-540.4033 671.1027,-546.9266"/>
</g>
<!-- 24 -->
<g id="node25" class="node">
<title>24</title>
<path fill="none" stroke="#d85656" stroke-width="2" d="M414,-684C414,-684 341,-684 341,-684 335,-684 329,-678 329,-672 329,-672 329,-660 329,-660 329,-654 335,-648 341,-648 341,-648 414,-648 414,-648 420,-648 426,-654 426,-660 426,-660 426,-672 426,-672 426,-678 420,-684 414,-684"/>
<text text-anchor="middle" x="377.5" y="-669" font-family="sans" font-size="10.00" fill="#000000">Find_Candidates</text>
<text text-anchor="middle" x="377.5" y="-658" font-family="sans" font-size="10.00" fill="#000000">query: proteins1</text>
</g>
<!-- 24&#45;&gt;22 -->
<g id="edge28" class="edge">
<title>24&#45;&gt;22</title>
<path fill="none" stroke="#c0c0c0" stroke-width="2" d="M365.3876,-647.8314C359.9719,-639.7079 353.4758,-629.9637 347.5079,-621.0118"/>
<polygon fill="#c0c0c0" stroke="#c0c0c0" stroke-width="2" points="350.2347,-618.7923 341.7755,-612.4133 344.4104,-622.6753 350.2347,-618.7923"/>
</g>
<!-- 25 -->
<g id="node26" class="node">
<title>25</title>
<path fill="none" stroke="#d85656" stroke-width="2" d="M553,-684C553,-684 480,-684 480,-684 474,-684 468,-678 468,-672 468,-672 468,-660 468,-660 468,-654 474,-648 480,-648 480,-648 553,-648 553,-648 559,-648 565,-654 565,-660 565,-660 565,-672 565,-672 565,-678 559,-684 553,-684"/>
<text text-anchor="middle" x="516.5" y="-669" font-family="sans" font-size="10.00" fill="#000000">Find_Candidates</text>
<text text-anchor="middle" x="516.5" y="-658" font-family="sans" font-size="10.00" fill="#000000">query: proteins2</text>
</g>
<!-- 25&#45;&gt;23 -->
<g id="edge29" class="edge">
<title>25&#45;&gt;23</title>
<path fill="none" stroke="#c0c0c0" stroke-width="2" d="M522.5562,-647.8314C525.1512,-640.0463 528.2424,-630.7729 531.1218,-622.1347"/>
<polygon fill="#c0c0c0" stroke="#c0c0c0" stroke-width="2" points="534.5203,-623.0069 534.3622,-612.4133 527.8795,-620.7933 534.5203,-623.0069"/>
</g>
<!-- 26 -->
<g id="node27" class="node">
<title>26</title>
<path fill="none" stroke="#d89c56" stroke-width="2" d="M485,-756C485,-756 384,-756 384,-756 378,-756 372,-750 372,-744 372,-744 372,-732 372,-732 372,-726 378,-720 384,-720 384,-720 485,-720 485,-720 491,-720 497,-726 497,-732 497,-732 497,-744 497,-744 497,-750 491,-756 485,-756"/>
<text text-anchor="middle" x="434.5" y="-741" font-family="sans" font-size="10.00" fill="#000000">Build_DNA_Databases</text>
<text text-anchor="middle" x="434.5" y="-730" font-family="sans" font-size="10.00" fill="#000000">subject: genome</text>
</g>
<!-- 26&#45;&gt;24 -->
<g id="edge30" class="edge">
<title>26&#45;&gt;24</title>
<path fill="none" stroke="#c0c0c0" stroke-width="2" d="M420.1165,-719.8314C413.5514,-711.5386 405.6493,-701.557 398.4422,-692.4533"/>
<polygon fill="#c0c0c0" stroke="#c0c0c0" stroke-width="2" points="401.0284,-690.0813 392.0772,-684.4133 395.5401,-694.4262 401.0284,-690.0813"/>
</g>
<!-- 26&#45;&gt;25 -->
<g id="edge31" class="edge">
<title>26&#45;&gt;25</title>
<path fill="none" stroke="#c0c0c0" stroke-width="2" d="M455.1921,-719.8314C465.1948,-711.0485 477.355,-700.3712 488.1999,-690.8489"/>
<polygon fill="#c0c0c0" stroke="#c0c0c0" stroke-width="2" points="490.6094,-693.3909 495.8146,-684.1628 485.9908,-688.1308 490.6094,-693.3909"/>
</g>
</g>
</svg>
