<?xml version="1.0" encoding="UTF-8" standalone="no"?>
<!DOCTYPE svg PUBLIC "-//W3C//DTD SVG 1.1//EN"
 "http://www.w3.org/Graphics/SVG/1.1/DTD/svg11.dtd">
<!-- Generated by graphviz version 2.40.1 (20161225.0304)
 -->
<!-- Title: snakemake_dag Pages: 1 -->
<svg width="1262pt" height="764pt"
 viewBox="0.00 0.00 1261.50 764.00" xmlns="http://www.w3.org/2000/svg" xmlns:xlink="http://www.w3.org/1999/xlink">
<g id="graph0" class="graph" transform="scale(1 1) rotate(0) translate(4 760)">
<title>snakemake_dag</title>
<polygon fill="#ffffff" stroke="transparent" points="-4,4 -4,-760 1257.5,-760 1257.5,4 -4,4"/>
<!-- 0 -->
<g id="node1" class="node">
<title>0</title>
<path fill="none" stroke="#56d8a9" stroke-width="2" d="M589,-36C589,-36 559,-36 559,-36 553,-36 547,-30 547,-24 547,-24 547,-12 547,-12 547,-6 553,0 559,0 559,0 589,0 589,0 595,0 601,-6 601,-12 601,-12 601,-24 601,-24 601,-30 595,-36 589,-36"/>
<text text-anchor="middle" x="574" y="-15.5" font-family="sans" font-size="10.00" fill="#000000">finish</text>
</g>
<!-- 1 -->
<g id="node2" class="node">
<title>1</title>
<path fill="none" stroke="#ced856" stroke-width="2" d="M780,-108C780,-108 682,-108 682,-108 676,-108 670,-102 670,-96 670,-96 670,-84 670,-84 670,-78 676,-72 682,-72 682,-72 780,-72 780,-72 786,-72 792,-78 792,-84 792,-84 792,-96 792,-96 792,-102 786,-108 780,-108"/>
<text text-anchor="middle" x="731" y="-87.5" font-family="sans" font-size="10.00" fill="#000000">Join_Mapping_Results</text>
</g>
<!-- 1&#45;&gt;0 -->
<g id="edge1" class="edge">
<title>1&#45;&gt;0</title>
<path fill="none" stroke="#c0c0c0" stroke-width="2" d="M691.3823,-71.8314C666.522,-60.4305 634.7012,-45.8375 610.4637,-34.7222"/>
<polygon fill="#c0c0c0" stroke="#c0c0c0" stroke-width="2" points="611.7952,-31.4824 601.2464,-30.4952 608.8772,-37.8452 611.7952,-31.4824"/>
</g>
<!-- 2 -->
<g id="node3" class="node">
<title>2</title>
<path fill="none" stroke="#569ad8" stroke-width="2" d="M465.5,-108C465.5,-108 338.5,-108 338.5,-108 332.5,-108 326.5,-102 326.5,-96 326.5,-96 326.5,-84 326.5,-84 326.5,-78 332.5,-72 338.5,-72 338.5,-72 465.5,-72 465.5,-72 471.5,-72 477.5,-78 477.5,-84 477.5,-84 477.5,-96 477.5,-96 477.5,-102 471.5,-108 465.5,-108"/>
<text text-anchor="middle" x="402" y="-87.5" font-family="sans" font-size="10.00" fill="#000000">Visualize_Retained_Results</text>
</g>
<!-- 2&#45;&gt;0 -->
<g id="edge2" class="edge">
<title>2&#45;&gt;0</title>
<path fill="none" stroke="#c0c0c0" stroke-width="2" d="M445.4029,-71.8314C473.7657,-59.9585 510.3984,-44.6239 537.3061,-33.3603"/>
<polygon fill="#c0c0c0" stroke="#c0c0c0" stroke-width="2" points="538.8732,-36.4986 546.7461,-29.4086 536.1702,-30.0415 538.8732,-36.4986"/>
</g>
<!-- 3 -->
<g id="node4" class="node">
<title>3</title>
<path fill="none" stroke="#68d856" stroke-width="2" d="M640,-108C640,-108 508,-108 508,-108 502,-108 496,-102 496,-96 496,-96 496,-84 496,-84 496,-78 502,-72 508,-72 508,-72 640,-72 640,-72 646,-72 652,-78 652,-84 652,-84 652,-96 652,-96 652,-102 646,-108 640,-108"/>
<text text-anchor="middle" x="574" y="-87.5" font-family="sans" font-size="10.00" fill="#000000">Visualize_Discarded_Results</text>
</g>
<!-- 3&#45;&gt;0 -->
<g id="edge3" class="edge">
<title>3&#45;&gt;0</title>
<path fill="none" stroke="#c0c0c0" stroke-width="2" d="M574,-71.8314C574,-64.131 574,-54.9743 574,-46.4166"/>
<polygon fill="#c0c0c0" stroke="#c0c0c0" stroke-width="2" points="577.5001,-46.4132 574,-36.4133 570.5001,-46.4133 577.5001,-46.4132"/>
</g>
<!-- 4 -->
<g id="node5" class="node">
<title>4</title>
<path fill="none" stroke="#d8bc56" stroke-width="2" d="M623.5,-180C623.5,-180 520.5,-180 520.5,-180 514.5,-180 508.5,-174 508.5,-168 508.5,-168 508.5,-156 508.5,-156 508.5,-150 514.5,-144 520.5,-144 520.5,-144 623.5,-144 623.5,-144 629.5,-144 635.5,-150 635.5,-156 635.5,-156 635.5,-168 635.5,-168 635.5,-174 629.5,-180 623.5,-180"/>
<text text-anchor="middle" x="572" y="-165" font-family="sans" font-size="10.00" fill="#000000">Map_Retained_Results</text>
<text text-anchor="middle" x="572" y="-154" font-family="sans" font-size="10.00" fill="#000000">subject: genome1</text>
</g>
<!-- 4&#45;&gt;1 -->
<g id="edge4" class="edge">
<title>4&#45;&gt;1</title>
<path fill="none" stroke="#c0c0c0" stroke-width="2" d="M612.1224,-143.8314C633.2932,-134.2446 659.4483,-122.4008 681.8303,-112.2655"/>
<polygon fill="#c0c0c0" stroke="#c0c0c0" stroke-width="2" points="683.5003,-115.3515 691.1661,-108.038 680.6128,-108.9748 683.5003,-115.3515"/>
</g>
<!-- 5 -->
<g id="node6" class="node">
<title>5</title>
<path fill="none" stroke="#d8bc56" stroke-width="2" d="M768.5,-180C768.5,-180 665.5,-180 665.5,-180 659.5,-180 653.5,-174 653.5,-168 653.5,-168 653.5,-156 653.5,-156 653.5,-150 659.5,-144 665.5,-144 665.5,-144 768.5,-144 768.5,-144 774.5,-144 780.5,-150 780.5,-156 780.5,-156 780.5,-168 780.5,-168 780.5,-174 774.5,-180 768.5,-180"/>
<text text-anchor="middle" x="717" y="-165" font-family="sans" font-size="10.00" fill="#000000">Map_Retained_Results</text>
<text text-anchor="middle" x="717" y="-154" font-family="sans" font-size="10.00" fill="#000000">subject: genome2</text>
</g>
<!-- 5&#45;&gt;1 -->
<g id="edge5" class="edge">
<title>5&#45;&gt;1</title>
<path fill="none" stroke="#c0c0c0" stroke-width="2" d="M720.5328,-143.8314C722.0301,-136.131 723.8105,-126.9743 725.4745,-118.4166"/>
<polygon fill="#c0c0c0" stroke="#c0c0c0" stroke-width="2" points="728.9465,-118.8975 727.4196,-108.4133 722.0752,-117.5614 728.9465,-118.8975"/>
</g>
<!-- 6 -->
<g id="node7" class="node">
<title>6</title>
<path fill="none" stroke="#56c1d8" stroke-width="2" d="M919,-180C919,-180 811,-180 811,-180 805,-180 799,-174 799,-168 799,-168 799,-156 799,-156 799,-150 805,-144 811,-144 811,-144 919,-144 919,-144 925,-144 931,-150 931,-156 931,-156 931,-168 931,-168 931,-174 925,-180 919,-180"/>
<text text-anchor="middle" x="865" y="-165" font-family="sans" font-size="10.00" fill="#000000">Map_Discarded_Results</text>
<text text-anchor="middle" x="865" y="-154" font-family="sans" font-size="10.00" fill="#000000">subject: genome1</text>
</g>
<!-- 6&#45;&gt;1 -->
<g id="edge6" class="edge">
<title>6&#45;&gt;1</title>
<path fill="none" stroke="#c0c0c0" stroke-width="2" d="M831.1861,-143.8314C813.7293,-134.4516 792.2513,-122.9112 773.6648,-112.9244"/>
<polygon fill="#c0c0c0" stroke="#c0c0c0" stroke-width="2" points="775.2686,-109.8129 764.803,-108.1628 771.9554,-115.9792 775.2686,-109.8129"/>
</g>
<!-- 7 -->
<g id="node8" class="node">
<title>7</title>
<path fill="none" stroke="#56c1d8" stroke-width="2" d="M1069,-180C1069,-180 961,-180 961,-180 955,-180 949,-174 949,-168 949,-168 949,-156 949,-156 949,-150 955,-144 961,-144 961,-144 1069,-144 1069,-144 1075,-144 1081,-150 1081,-156 1081,-156 1081,-168 1081,-168 1081,-174 1075,-180 1069,-180"/>
<text text-anchor="middle" x="1015" y="-165" font-family="sans" font-size="10.00" fill="#000000">Map_Discarded_Results</text>
<text text-anchor="middle" x="1015" y="-154" font-family="sans" font-size="10.00" fill="#000000">subject: genome2</text>
</g>
<!-- 7&#45;&gt;1 -->
<g id="edge7" class="edge">
<title>7&#45;&gt;1</title>
<path fill="none" stroke="#c0c0c0" stroke-width="2" d="M948.773,-145.2101C904.8873,-134.0841 847.3459,-119.4961 802.433,-108.1098"/>
<polygon fill="#c0c0c0" stroke="#c0c0c0" stroke-width="2" points="803.0242,-104.649 792.4707,-105.5841 801.3039,-111.4343 803.0242,-104.649"/>
</g>
<!-- 8 -->
<g id="node9" class="node">
<title>8</title>
<path fill="none" stroke="#88d856" stroke-width="2" d="M687.5,-252C687.5,-252 600.5,-252 600.5,-252 594.5,-252 588.5,-246 588.5,-240 588.5,-240 588.5,-228 588.5,-228 588.5,-222 594.5,-216 600.5,-216 600.5,-216 687.5,-216 687.5,-216 693.5,-216 699.5,-222 699.5,-228 699.5,-228 699.5,-240 699.5,-240 699.5,-246 693.5,-252 687.5,-252"/>
<text text-anchor="middle" x="644" y="-231.5" font-family="sans" font-size="10.00" fill="#000000">Join_ProDA_Results</text>
</g>
<!-- 8&#45;&gt;2 -->
<g id="edge8" class="edge">
<title>8&#45;&gt;2</title>
<path fill="none" stroke="#c0c0c0" stroke-width="2" d="M588.4537,-221.4305C557.5749,-212.8287 519.3719,-199.4157 489,-180 462.4043,-162.9983 437.9812,-136.3165 421.827,-116.4124"/>
<polygon fill="#c0c0c0" stroke="#c0c0c0" stroke-width="2" points="424.3845,-114.0045 415.4278,-108.345 418.9003,-118.3547 424.3845,-114.0045"/>
</g>
<!-- 8&#45;&gt;3 -->
<g id="edge9" class="edge">
<title>8&#45;&gt;3</title>
<path fill="none" stroke="#c0c0c0" stroke-width="2" d="M588.2736,-220.2983C552.0878,-210.1453 509.7281,-195.4432 499,-180 489.8716,-166.8595 491.7056,-158.2405 499,-144 505.237,-131.8238 515.6395,-121.7682 526.7407,-113.7713"/>
<polygon fill="#c0c0c0" stroke="#c0c0c0" stroke-width="2" points="528.9316,-116.5171 535.3086,-108.0563 525.0473,-110.6937 528.9316,-116.5171"/>
</g>
<!-- 8&#45;&gt;4 -->
<g id="edge10" class="edge">
<title>8&#45;&gt;4</title>
<path fill="none" stroke="#c0c0c0" stroke-width="2" d="M625.8314,-215.8314C617.2848,-207.2848 606.9443,-196.9443 597.6198,-187.6198"/>
<polygon fill="#c0c0c0" stroke="#c0c0c0" stroke-width="2" points="599.9592,-185.0095 590.4133,-180.4133 595.0095,-189.9592 599.9592,-185.0095"/>
</g>
<!-- 8&#45;&gt;5 -->
<g id="edge11" class="edge">
<title>8&#45;&gt;5</title>
<path fill="none" stroke="#c0c0c0" stroke-width="2" d="M662.421,-215.8314C671.1529,-207.219 681.7317,-196.7851 691.2423,-187.4048"/>
<polygon fill="#c0c0c0" stroke="#c0c0c0" stroke-width="2" points="693.923,-189.6769 698.5849,-180.1628 689.0075,-184.6931 693.923,-189.6769"/>
</g>
<!-- 8&#45;&gt;6 -->
<g id="edge12" class="edge">
<title>8&#45;&gt;6</title>
<path fill="none" stroke="#c0c0c0" stroke-width="2" d="M699.4824,-215.9243C729.9571,-205.9959 767.9273,-193.6255 799.8105,-183.2382"/>
<polygon fill="#c0c0c0" stroke="#c0c0c0" stroke-width="2" points="801.0709,-186.5087 809.4948,-180.0831 798.9025,-179.853 801.0709,-186.5087"/>
</g>
<!-- 8&#45;&gt;7 -->
<g id="edge13" class="edge">
<title>8&#45;&gt;7</title>
<path fill="none" stroke="#c0c0c0" stroke-width="2" d="M699.551,-224.806C757.0152,-215.084 849.5723,-198.837 938.7756,-180.2045"/>
<polygon fill="#c0c0c0" stroke="#c0c0c0" stroke-width="2" points="939.7252,-183.5815 948.7914,-178.0992 938.2853,-176.7312 939.7252,-183.5815"/>
</g>
<!-- 9 -->
<g id="node10" class="node">
<title>9</title>
<path fill="none" stroke="#afd856" stroke-width="2" d="M362.5,-324C362.5,-324 153.5,-324 153.5,-324 147.5,-324 141.5,-318 141.5,-312 141.5,-312 141.5,-300 141.5,-300 141.5,-294 147.5,-288 153.5,-288 153.5,-288 362.5,-288 362.5,-288 368.5,-288 374.5,-294 374.5,-300 374.5,-300 374.5,-312 374.5,-312 374.5,-318 368.5,-324 362.5,-324"/>
<text text-anchor="middle" x="258" y="-303.5" font-family="sans" font-size="10.00" fill="#000000">Retrieve_Sequence_With_Highest_Similarity</text>
</g>
<!-- 9&#45;&gt;8 -->
<g id="edge14" class="edge">
<title>9&#45;&gt;8</title>
<path fill="none" stroke="#c0c0c0" stroke-width="2" d="M354.9059,-287.9243C424.7157,-274.9028 517.0451,-257.6807 578.3733,-246.2412"/>
<polygon fill="#c0c0c0" stroke="#c0c0c0" stroke-width="2" points="579.1296,-249.6606 588.3183,-244.3862 577.846,-242.7793 579.1296,-249.6606"/>
</g>
<!-- 10 -->
<g id="node11" class="node">
<title>10</title>
<path fill="none" stroke="#afd856" stroke-width="2" d="M623.5,-324C623.5,-324 414.5,-324 414.5,-324 408.5,-324 402.5,-318 402.5,-312 402.5,-312 402.5,-300 402.5,-300 402.5,-294 408.5,-288 414.5,-288 414.5,-288 623.5,-288 623.5,-288 629.5,-288 635.5,-294 635.5,-300 635.5,-300 635.5,-312 635.5,-312 635.5,-318 629.5,-324 623.5,-324"/>
<text text-anchor="middle" x="519" y="-303.5" font-family="sans" font-size="10.00" fill="#000000">Retrieve_Sequence_With_Highest_Similarity</text>
</g>
<!-- 10&#45;&gt;8 -->
<g id="edge15" class="edge">
<title>10&#45;&gt;8</title>
<path fill="none" stroke="#c0c0c0" stroke-width="2" d="M550.5428,-287.8314C566.6791,-278.5368 586.4986,-267.1208 603.7272,-257.1971"/>
<polygon fill="#c0c0c0" stroke="#c0c0c0" stroke-width="2" points="605.5489,-260.187 612.4673,-252.1628 602.055,-254.1212 605.5489,-260.187"/>
</g>
<!-- 11 -->
<g id="node12" class="node">
<title>11</title>
<path fill="none" stroke="#afd856" stroke-width="2" d="M874.5,-324C874.5,-324 665.5,-324 665.5,-324 659.5,-324 653.5,-318 653.5,-312 653.5,-312 653.5,-300 653.5,-300 653.5,-294 659.5,-288 665.5,-288 665.5,-288 874.5,-288 874.5,-288 880.5,-288 886.5,-294 886.5,-300 886.5,-300 886.5,-312 886.5,-312 886.5,-318 880.5,-324 874.5,-324"/>
<text text-anchor="middle" x="770" y="-303.5" font-family="sans" font-size="10.00" fill="#000000">Retrieve_Sequence_With_Highest_Similarity</text>
</g>
<!-- 11&#45;&gt;8 -->
<g id="edge16" class="edge">
<title>11&#45;&gt;8</title>
<path fill="none" stroke="#c0c0c0" stroke-width="2" d="M738.2049,-287.8314C721.9395,-278.5368 701.9614,-267.1208 684.5949,-257.1971"/>
<polygon fill="#c0c0c0" stroke="#c0c0c0" stroke-width="2" points="686.2039,-254.0854 675.7849,-252.1628 682.7309,-260.1631 686.2039,-254.0854"/>
</g>
<!-- 12 -->
<g id="node13" class="node">
<title>12</title>
<path fill="none" stroke="#afd856" stroke-width="2" d="M1130.5,-324C1130.5,-324 921.5,-324 921.5,-324 915.5,-324 909.5,-318 909.5,-312 909.5,-312 909.5,-300 909.5,-300 909.5,-294 915.5,-288 921.5,-288 921.5,-288 1130.5,-288 1130.5,-288 1136.5,-288 1142.5,-294 1142.5,-300 1142.5,-300 1142.5,-312 1142.5,-312 1142.5,-318 1136.5,-324 1130.5,-324"/>
<text text-anchor="middle" x="1026" y="-303.5" font-family="sans" font-size="10.00" fill="#000000">Retrieve_Sequence_With_Highest_Similarity</text>
</g>
<!-- 12&#45;&gt;8 -->
<g id="edge17" class="edge">
<title>12&#45;&gt;8</title>
<path fill="none" stroke="#c0c0c0" stroke-width="2" d="M930.0983,-287.9243C861.2213,-274.9422 770.1929,-257.785 709.4992,-246.3454"/>
<polygon fill="#c0c0c0" stroke="#c0c0c0" stroke-width="2" points="710.1291,-242.9026 699.6538,-244.4897 708.8325,-249.7815 710.1291,-242.9026"/>
</g>
<!-- 13 -->
<g id="node14" class="node">
<title>13</title>
<path fill="none" stroke="#d87556" stroke-width="2" d="M329.5,-396C329.5,-396 182.5,-396 182.5,-396 176.5,-396 170.5,-390 170.5,-384 170.5,-384 170.5,-372 170.5,-372 170.5,-366 176.5,-360 182.5,-360 182.5,-360 329.5,-360 329.5,-360 335.5,-360 341.5,-366 341.5,-372 341.5,-372 341.5,-384 341.5,-384 341.5,-390 335.5,-396 329.5,-396"/>
<text text-anchor="middle" x="256" y="-375.5" font-family="sans" font-size="10.00" fill="#000000">Retrieve_Sequence_Similarities</text>
</g>
<!-- 13&#45;&gt;9 -->
<g id="edge18" class="edge">
<title>13&#45;&gt;9</title>
<path fill="none" stroke="#c0c0c0" stroke-width="2" d="M256.5047,-359.8314C256.7186,-352.131 256.9729,-342.9743 257.2106,-334.4166"/>
<polygon fill="#c0c0c0" stroke="#c0c0c0" stroke-width="2" points="260.7094,-334.5066 257.4885,-324.4133 253.7121,-334.3122 260.7094,-334.5066"/>
</g>
<!-- 14 -->
<g id="node15" class="node">
<title>14</title>
<path fill="none" stroke="#d87556" stroke-width="2" d="M592.5,-396C592.5,-396 445.5,-396 445.5,-396 439.5,-396 433.5,-390 433.5,-384 433.5,-384 433.5,-372 433.5,-372 433.5,-366 439.5,-360 445.5,-360 445.5,-360 592.5,-360 592.5,-360 598.5,-360 604.5,-366 604.5,-372 604.5,-372 604.5,-384 604.5,-384 604.5,-390 598.5,-396 592.5,-396"/>
<text text-anchor="middle" x="519" y="-375.5" font-family="sans" font-size="10.00" fill="#000000">Retrieve_Sequence_Similarities</text>
</g>
<!-- 14&#45;&gt;10 -->
<g id="edge19" class="edge">
<title>14&#45;&gt;10</title>
<path fill="none" stroke="#c0c0c0" stroke-width="2" d="M519,-359.8314C519,-352.131 519,-342.9743 519,-334.4166"/>
<polygon fill="#c0c0c0" stroke="#c0c0c0" stroke-width="2" points="522.5001,-334.4132 519,-324.4133 515.5001,-334.4133 522.5001,-334.4132"/>
</g>
<!-- 15 -->
<g id="node16" class="node">
<title>15</title>
<path fill="none" stroke="#d87556" stroke-width="2" d="M843.5,-396C843.5,-396 696.5,-396 696.5,-396 690.5,-396 684.5,-390 684.5,-384 684.5,-384 684.5,-372 684.5,-372 684.5,-366 690.5,-360 696.5,-360 696.5,-360 843.5,-360 843.5,-360 849.5,-360 855.5,-366 855.5,-372 855.5,-372 855.5,-384 855.5,-384 855.5,-390 849.5,-396 843.5,-396"/>
<text text-anchor="middle" x="770" y="-375.5" font-family="sans" font-size="10.00" fill="#000000">Retrieve_Sequence_Similarities</text>
</g>
<!-- 15&#45;&gt;11 -->
<g id="edge20" class="edge">
<title>15&#45;&gt;11</title>
<path fill="none" stroke="#c0c0c0" stroke-width="2" d="M770,-359.8314C770,-352.131 770,-342.9743 770,-334.4166"/>
<polygon fill="#c0c0c0" stroke="#c0c0c0" stroke-width="2" points="773.5001,-334.4132 770,-324.4133 766.5001,-334.4133 773.5001,-334.4132"/>
</g>
<!-- 16 -->
<g id="node17" class="node">
<title>16</title>
<path fill="none" stroke="#d87556" stroke-width="2" d="M1100.5,-396C1100.5,-396 953.5,-396 953.5,-396 947.5,-396 941.5,-390 941.5,-384 941.5,-384 941.5,-372 941.5,-372 941.5,-366 947.5,-360 953.5,-360 953.5,-360 1100.5,-360 1100.5,-360 1106.5,-360 1112.5,-366 1112.5,-372 1112.5,-372 1112.5,-384 1112.5,-384 1112.5,-390 1106.5,-396 1100.5,-396"/>
<text text-anchor="middle" x="1027" y="-375.5" font-family="sans" font-size="10.00" fill="#000000">Retrieve_Sequence_Similarities</text>
</g>
<!-- 16&#45;&gt;12 -->
<g id="edge21" class="edge">
<title>16&#45;&gt;12</title>
<path fill="none" stroke="#c0c0c0" stroke-width="2" d="M1026.7477,-359.8314C1026.6407,-352.131 1026.5135,-342.9743 1026.3947,-334.4166"/>
<polygon fill="#c0c0c0" stroke="#c0c0c0" stroke-width="2" points="1029.8944,-334.3637 1026.2557,-324.4133 1022.8951,-334.4609 1029.8944,-334.3637"/>
</g>
<!-- 17 -->
<g id="node18" class="node">
<title>17</title>
<path fill="none" stroke="#d89c56" stroke-width="2" d="M267,-468C267,-468 203,-468 203,-468 197,-468 191,-462 191,-456 191,-456 191,-444 191,-444 191,-438 197,-432 203,-432 203,-432 267,-432 267,-432 273,-432 279,-438 279,-444 279,-444 279,-456 279,-456 279,-462 273,-468 267,-468"/>
<text text-anchor="middle" x="235" y="-447.5" font-family="sans" font-size="10.00" fill="#000000">Merge_Results</text>
</g>
<!-- 17&#45;&gt;13 -->
<g id="edge22" class="edge">
<title>17&#45;&gt;13</title>
<path fill="none" stroke="#c0c0c0" stroke-width="2" d="M240.2992,-431.8314C242.5698,-424.0463 245.2746,-414.7729 247.794,-406.1347"/>
<polygon fill="#c0c0c0" stroke="#c0c0c0" stroke-width="2" points="251.1894,-406.9933 250.6295,-396.4133 244.4694,-405.0332 251.1894,-406.9933"/>
</g>
<!-- 18 -->
<g id="node19" class="node">
<title>18</title>
<path fill="none" stroke="#d89c56" stroke-width="2" d="M551,-468C551,-468 487,-468 487,-468 481,-468 475,-462 475,-456 475,-456 475,-444 475,-444 475,-438 481,-432 487,-432 487,-432 551,-432 551,-432 557,-432 563,-438 563,-444 563,-444 563,-456 563,-456 563,-462 557,-468 551,-468"/>
<text text-anchor="middle" x="519" y="-447.5" font-family="sans" font-size="10.00" fill="#000000">Merge_Results</text>
</g>
<!-- 18&#45;&gt;14 -->
<g id="edge23" class="edge">
<title>18&#45;&gt;14</title>
<path fill="none" stroke="#c0c0c0" stroke-width="2" d="M519,-431.8314C519,-424.131 519,-414.9743 519,-406.4166"/>
<polygon fill="#c0c0c0" stroke="#c0c0c0" stroke-width="2" points="522.5001,-406.4132 519,-396.4133 515.5001,-406.4133 522.5001,-406.4132"/>
</g>
<!-- 19 -->
<g id="node20" class="node">
<title>19</title>
<path fill="none" stroke="#d89c56" stroke-width="2" d="M802,-468C802,-468 738,-468 738,-468 732,-468 726,-462 726,-456 726,-456 726,-444 726,-444 726,-438 732,-432 738,-432 738,-432 802,-432 802,-432 808,-432 814,-438 814,-444 814,-444 814,-456 814,-456 814,-462 808,-468 802,-468"/>
<text text-anchor="middle" x="770" y="-447.5" font-family="sans" font-size="10.00" fill="#000000">Merge_Results</text>
</g>
<!-- 19&#45;&gt;15 -->
<g id="edge24" class="edge">
<title>19&#45;&gt;15</title>
<path fill="none" stroke="#c0c0c0" stroke-width="2" d="M770,-431.8314C770,-424.131 770,-414.9743 770,-406.4166"/>
<polygon fill="#c0c0c0" stroke="#c0c0c0" stroke-width="2" points="773.5001,-406.4132 770,-396.4133 766.5001,-406.4133 773.5001,-406.4132"/>
</g>
<!-- 20 -->
<g id="node21" class="node">
<title>20</title>
<path fill="none" stroke="#d89c56" stroke-width="2" d="M1062,-468C1062,-468 998,-468 998,-468 992,-468 986,-462 986,-456 986,-456 986,-444 986,-444 986,-438 992,-432 998,-432 998,-432 1062,-432 1062,-432 1068,-432 1074,-438 1074,-444 1074,-444 1074,-456 1074,-456 1074,-462 1068,-468 1062,-468"/>
<text text-anchor="middle" x="1030" y="-447.5" font-family="sans" font-size="10.00" fill="#000000">Merge_Results</text>
</g>
<!-- 20&#45;&gt;16 -->
<g id="edge25" class="edge">
<title>20&#45;&gt;16</title>
<path fill="none" stroke="#c0c0c0" stroke-width="2" d="M1029.243,-431.8314C1028.9221,-424.131 1028.5406,-414.9743 1028.184,-406.4166"/>
<polygon fill="#c0c0c0" stroke="#c0c0c0" stroke-width="2" points="1031.6806,-406.2589 1027.7672,-396.4133 1024.6867,-406.5503 1031.6806,-406.2589"/>
</g>
<!-- 21 -->
<g id="node22" class="node">
<title>21</title>
<path fill="none" stroke="#567bd8" stroke-width="2" d="M140,-540C140,-540 12,-540 12,-540 6,-540 0,-534 0,-528 0,-528 0,-516 0,-516 0,-510 6,-504 12,-504 12,-504 140,-504 140,-504 146,-504 152,-510 152,-516 152,-516 152,-528 152,-528 152,-534 146,-540 140,-540"/>
<text text-anchor="middle" x="76" y="-519.5" font-family="sans" font-size="10.00" fill="#000000">Build_Exonerate_Alignment</text>
</g>
<!-- 21&#45;&gt;17 -->
<g id="edge26" class="edge">
<title>21&#45;&gt;17</title>
<path fill="none" stroke="#c0c0c0" stroke-width="2" d="M116.1224,-503.8314C137.2932,-494.2446 163.4483,-482.4008 185.8303,-472.2655"/>
<polygon fill="#c0c0c0" stroke="#c0c0c0" stroke-width="2" points="187.5003,-475.3515 195.1661,-468.038 184.6128,-468.9748 187.5003,-475.3515"/>
</g>
<!-- 22 -->
<g id="node23" class="node">
<title>22</title>
<path fill="none" stroke="#d85656" stroke-width="2" d="M287.5,-540C287.5,-540 182.5,-540 182.5,-540 176.5,-540 170.5,-534 170.5,-528 170.5,-528 170.5,-516 170.5,-516 170.5,-510 176.5,-504 182.5,-504 182.5,-504 287.5,-504 287.5,-504 293.5,-504 299.5,-510 299.5,-516 299.5,-516 299.5,-528 299.5,-528 299.5,-534 293.5,-540 287.5,-540"/>
<text text-anchor="middle" x="235" y="-519.5" font-family="sans" font-size="10.00" fill="#000000">Build_Spaln_Alignment</text>
</g>
<!-- 22&#45;&gt;17 -->
<g id="edge27" class="edge">
<title>22&#45;&gt;17</title>
<path fill="none" stroke="#c0c0c0" stroke-width="2" d="M235,-503.8314C235,-496.131 235,-486.9743 235,-478.4166"/>
<polygon fill="#c0c0c0" stroke="#c0c0c0" stroke-width="2" points="238.5001,-478.4132 235,-468.4133 231.5001,-478.4133 238.5001,-478.4132"/>
</g>
<!-- 23 -->
<g id="node24" class="node">
<title>23</title>
<path fill="none" stroke="#567bd8" stroke-width="2" d="M458,-540C458,-540 330,-540 330,-540 324,-540 318,-534 318,-528 318,-528 318,-516 318,-516 318,-510 324,-504 330,-504 330,-504 458,-504 458,-504 464,-504 470,-510 470,-516 470,-516 470,-528 470,-528 470,-534 464,-540 458,-540"/>
<text text-anchor="middle" x="394" y="-519.5" font-family="sans" font-size="10.00" fill="#000000">Build_Exonerate_Alignment</text>
</g>
<!-- 23&#45;&gt;18 -->
<g id="edge28" class="edge">
<title>23&#45;&gt;18</title>
<path fill="none" stroke="#c0c0c0" stroke-width="2" d="M425.5428,-503.8314C441.6791,-494.5368 461.4986,-483.1208 478.7272,-473.1971"/>
<polygon fill="#c0c0c0" stroke="#c0c0c0" stroke-width="2" points="480.5489,-476.187 487.4673,-468.1628 477.055,-470.1212 480.5489,-476.187"/>
</g>
<!-- 24 -->
<g id="node25" class="node">
<title>24</title>
<path fill="none" stroke="#d85656" stroke-width="2" d="M605.5,-540C605.5,-540 500.5,-540 500.5,-540 494.5,-540 488.5,-534 488.5,-528 488.5,-528 488.5,-516 488.5,-516 488.5,-510 494.5,-504 500.5,-504 500.5,-504 605.5,-504 605.5,-504 611.5,-504 617.5,-510 617.5,-516 617.5,-516 617.5,-528 617.5,-528 617.5,-534 611.5,-540 605.5,-540"/>
<text text-anchor="middle" x="553" y="-519.5" font-family="sans" font-size="10.00" fill="#000000">Build_Spaln_Alignment</text>
</g>
<!-- 24&#45;&gt;18 -->
<g id="edge29" class="edge">
<title>24&#45;&gt;18</title>
<path fill="none" stroke="#c0c0c0" stroke-width="2" d="M544.4204,-503.8314C540.6642,-495.8771 536.1743,-486.369 532.0202,-477.5723"/>
<polygon fill="#c0c0c0" stroke="#c0c0c0" stroke-width="2" points="535.1301,-475.9612 527.6952,-468.4133 528.8004,-478.9503 535.1301,-475.9612"/>
</g>
<!-- 25 -->
<g id="node26" class="node">
<title>25</title>
<path fill="none" stroke="#567bd8" stroke-width="2" d="M776,-540C776,-540 648,-540 648,-540 642,-540 636,-534 636,-528 636,-528 636,-516 636,-516 636,-510 642,-504 648,-504 648,-504 776,-504 776,-504 782,-504 788,-510 788,-516 788,-516 788,-528 788,-528 788,-534 782,-540 776,-540"/>
<text text-anchor="middle" x="712" y="-519.5" font-family="sans" font-size="10.00" fill="#000000">Build_Exonerate_Alignment</text>
</g>
<!-- 25&#45;&gt;19 -->
<g id="edge30" class="edge">
<title>25&#45;&gt;19</title>
<path fill="none" stroke="#c0c0c0" stroke-width="2" d="M726.6358,-503.8314C733.3161,-495.5386 741.3568,-485.557 748.6904,-476.4533"/>
<polygon fill="#c0c0c0" stroke="#c0c0c0" stroke-width="2" points="751.6194,-478.3965 755.1671,-468.4133 746.1681,-474.0052 751.6194,-478.3965"/>
</g>
<!-- 26 -->
<g id="node27" class="node">
<title>26</title>
<path fill="none" stroke="#d85656" stroke-width="2" d="M923.5,-540C923.5,-540 818.5,-540 818.5,-540 812.5,-540 806.5,-534 806.5,-528 806.5,-528 806.5,-516 806.5,-516 806.5,-510 812.5,-504 818.5,-504 818.5,-504 923.5,-504 923.5,-504 929.5,-504 935.5,-510 935.5,-516 935.5,-516 935.5,-528 935.5,-528 935.5,-534 929.5,-540 923.5,-540"/>
<text text-anchor="middle" x="871" y="-519.5" font-family="sans" font-size="10.00" fill="#000000">Build_Spaln_Alignment</text>
</g>
<!-- 26&#45;&gt;19 -->
<g id="edge31" class="edge">
<title>26&#45;&gt;19</title>
<path fill="none" stroke="#c0c0c0" stroke-width="2" d="M845.5134,-503.8314C832.8341,-494.7927 817.3404,-483.7476 803.6945,-474.0198"/>
<polygon fill="#c0c0c0" stroke="#c0c0c0" stroke-width="2" points="805.6529,-471.1176 795.4784,-468.1628 801.5895,-476.8176 805.6529,-471.1176"/>
</g>
<!-- 27 -->
<g id="node28" class="node">
<title>27</title>
<path fill="none" stroke="#567bd8" stroke-width="2" d="M1094,-540C1094,-540 966,-540 966,-540 960,-540 954,-534 954,-528 954,-528 954,-516 954,-516 954,-510 960,-504 966,-504 966,-504 1094,-504 1094,-504 1100,-504 1106,-510 1106,-516 1106,-516 1106,-528 1106,-528 1106,-534 1100,-540 1094,-540"/>
<text text-anchor="middle" x="1030" y="-519.5" font-family="sans" font-size="10.00" fill="#000000">Build_Exonerate_Alignment</text>
</g>
<!-- 27&#45;&gt;20 -->
<g id="edge32" class="edge">
<title>27&#45;&gt;20</title>
<path fill="none" stroke="#c0c0c0" stroke-width="2" d="M1030,-503.8314C1030,-496.131 1030,-486.9743 1030,-478.4166"/>
<polygon fill="#c0c0c0" stroke="#c0c0c0" stroke-width="2" points="1033.5001,-478.4132 1030,-468.4133 1026.5001,-478.4133 1033.5001,-478.4132"/>
</g>
<!-- 28 -->
<g id="node29" class="node">
<title>28</title>
<path fill="none" stroke="#d85656" stroke-width="2" d="M1241.5,-540C1241.5,-540 1136.5,-540 1136.5,-540 1130.5,-540 1124.5,-534 1124.5,-528 1124.5,-528 1124.5,-516 1124.5,-516 1124.5,-510 1130.5,-504 1136.5,-504 1136.5,-504 1241.5,-504 1241.5,-504 1247.5,-504 1253.5,-510 1253.5,-516 1253.5,-516 1253.5,-528 1253.5,-528 1253.5,-534 1247.5,-540 1241.5,-540"/>
<text text-anchor="middle" x="1189" y="-519.5" font-family="sans" font-size="10.00" fill="#000000">Build_Spaln_Alignment</text>
</g>
<!-- 28&#45;&gt;20 -->
<g id="edge33" class="edge">
<title>28&#45;&gt;20</title>
<path fill="none" stroke="#c0c0c0" stroke-width="2" d="M1148.8776,-503.8314C1127.7068,-494.2446 1101.5517,-482.4008 1079.1697,-472.2655"/>
<polygon fill="#c0c0c0" stroke="#c0c0c0" stroke-width="2" points="1080.3872,-468.9748 1069.8339,-468.038 1077.4997,-475.3515 1080.3872,-468.9748"/>
</g>
<!-- 29 -->
<g id="node30" class="node">
<title>29</title>
<path fill="none" stroke="#56d86b" stroke-width="2" d="M294,-612C294,-612 166,-612 166,-612 160,-612 154,-606 154,-600 154,-600 154,-588 154,-588 154,-582 160,-576 166,-576 166,-576 294,-576 294,-576 300,-576 306,-582 306,-588 306,-588 306,-600 306,-600 306,-606 300,-612 294,-612"/>
<text text-anchor="middle" x="230" y="-591.5" font-family="sans" font-size="10.00" fill="#000000">Filter_Out_Useless_Regions</text>
</g>
<!-- 29&#45;&gt;21 -->
<g id="edge34" class="edge">
<title>29&#45;&gt;21</title>
<path fill="none" stroke="#c0c0c0" stroke-width="2" d="M191.1393,-575.8314C170.7258,-566.2874 145.5277,-554.5065 123.914,-544.4013"/>
<polygon fill="#c0c0c0" stroke="#c0c0c0" stroke-width="2" points="125.1225,-541.1027 114.5813,-540.038 122.1577,-547.4439 125.1225,-541.1027"/>
</g>
<!-- 29&#45;&gt;22 -->
<g id="edge35" class="edge">
<title>29&#45;&gt;22</title>
<path fill="none" stroke="#c0c0c0" stroke-width="2" d="M231.2617,-575.8314C231.7965,-568.131 232.4323,-558.9743 233.0266,-550.4166"/>
<polygon fill="#c0c0c0" stroke="#c0c0c0" stroke-width="2" points="236.52,-550.6317 233.7213,-540.4133 229.5368,-550.1467 236.52,-550.6317"/>
</g>
<!-- 30 -->
<g id="node31" class="node">
<title>30</title>
<path fill="none" stroke="#56d86b" stroke-width="2" d="M464,-612C464,-612 336,-612 336,-612 330,-612 324,-606 324,-600 324,-600 324,-588 324,-588 324,-582 330,-576 336,-576 336,-576 464,-576 464,-576 470,-576 476,-582 476,-588 476,-588 476,-600 476,-600 476,-606 470,-612 464,-612"/>
<text text-anchor="middle" x="400" y="-591.5" font-family="sans" font-size="10.00" fill="#000000">Filter_Out_Useless_Regions</text>
</g>
<!-- 30&#45;&gt;23 -->
<g id="edge36" class="edge">
<title>30&#45;&gt;23</title>
<path fill="none" stroke="#c0c0c0" stroke-width="2" d="M398.4859,-575.8314C397.8442,-568.131 397.0812,-558.9743 396.3681,-550.4166"/>
<polygon fill="#c0c0c0" stroke="#c0c0c0" stroke-width="2" points="399.8529,-550.088 395.5344,-540.4133 392.8771,-550.6694 399.8529,-550.088"/>
</g>
<!-- 30&#45;&gt;24 -->
<g id="edge37" class="edge">
<title>30&#45;&gt;24</title>
<path fill="none" stroke="#c0c0c0" stroke-width="2" d="M438.6084,-575.8314C458.8893,-566.2874 483.9238,-554.5065 505.3971,-544.4013"/>
<polygon fill="#c0c0c0" stroke="#c0c0c0" stroke-width="2" points="507.1114,-547.4629 514.6693,-540.038 504.1308,-541.1291 507.1114,-547.4629"/>
</g>
<!-- 31 -->
<g id="node32" class="node">
<title>31</title>
<path fill="none" stroke="#56d86b" stroke-width="2" d="M929,-612C929,-612 801,-612 801,-612 795,-612 789,-606 789,-600 789,-600 789,-588 789,-588 789,-582 795,-576 801,-576 801,-576 929,-576 929,-576 935,-576 941,-582 941,-588 941,-588 941,-600 941,-600 941,-606 935,-612 929,-612"/>
<text text-anchor="middle" x="865" y="-591.5" font-family="sans" font-size="10.00" fill="#000000">Filter_Out_Useless_Regions</text>
</g>
<!-- 31&#45;&gt;25 -->
<g id="edge38" class="edge">
<title>31&#45;&gt;25</title>
<path fill="none" stroke="#c0c0c0" stroke-width="2" d="M826.3916,-575.8314C806.1107,-566.2874 781.0762,-554.5065 759.6029,-544.4013"/>
<polygon fill="#c0c0c0" stroke="#c0c0c0" stroke-width="2" points="760.8692,-541.1291 750.3307,-540.038 757.8886,-547.4629 760.8692,-541.1291"/>
</g>
<!-- 31&#45;&gt;26 -->
<g id="edge39" class="edge">
<title>31&#45;&gt;26</title>
<path fill="none" stroke="#c0c0c0" stroke-width="2" d="M866.5141,-575.8314C867.1558,-568.131 867.9188,-558.9743 868.6319,-550.4166"/>
<polygon fill="#c0c0c0" stroke="#c0c0c0" stroke-width="2" points="872.1229,-550.6694 869.4656,-540.4133 865.1471,-550.088 872.1229,-550.6694"/>
</g>
<!-- 32 -->
<g id="node33" class="node">
<title>32</title>
<path fill="none" stroke="#56d86b" stroke-width="2" d="M1099,-612C1099,-612 971,-612 971,-612 965,-612 959,-606 959,-600 959,-600 959,-588 959,-588 959,-582 965,-576 971,-576 971,-576 1099,-576 1099,-576 1105,-576 1111,-582 1111,-588 1111,-588 1111,-600 1111,-600 1111,-606 1105,-612 1099,-612"/>
<text text-anchor="middle" x="1035" y="-591.5" font-family="sans" font-size="10.00" fill="#000000">Filter_Out_Useless_Regions</text>
</g>
<!-- 32&#45;&gt;27 -->
<g id="edge40" class="edge">
<title>32&#45;&gt;27</title>
<path fill="none" stroke="#c0c0c0" stroke-width="2" d="M1033.7383,-575.8314C1033.2035,-568.131 1032.5677,-558.9743 1031.9734,-550.4166"/>
<polygon fill="#c0c0c0" stroke="#c0c0c0" stroke-width="2" points="1035.4632,-550.1467 1031.2787,-540.4133 1028.48,-550.6317 1035.4632,-550.1467"/>
</g>
<!-- 32&#45;&gt;28 -->
<g id="edge41" class="edge">
<title>32&#45;&gt;28</title>
<path fill="none" stroke="#c0c0c0" stroke-width="2" d="M1073.8607,-575.8314C1094.2742,-566.2874 1119.4723,-554.5065 1141.086,-544.4013"/>
<polygon fill="#c0c0c0" stroke="#c0c0c0" stroke-width="2" points="1142.8423,-547.4439 1150.4187,-540.038 1139.8775,-541.1027 1142.8423,-547.4439"/>
</g>
<!-- 33 -->
<g id="node34" class="node">
<title>33</title>
<path fill="none" stroke="#56d88a" stroke-width="2" d="M280.5,-684C280.5,-684 207.5,-684 207.5,-684 201.5,-684 195.5,-678 195.5,-672 195.5,-672 195.5,-660 195.5,-660 195.5,-654 201.5,-648 207.5,-648 207.5,-648 280.5,-648 280.5,-648 286.5,-648 292.5,-654 292.5,-660 292.5,-660 292.5,-672 292.5,-672 292.5,-678 286.5,-684 280.5,-684"/>
<text text-anchor="middle" x="244" y="-669" font-family="sans" font-size="10.00" fill="#000000">Find_Candidates</text>
<text text-anchor="middle" x="244" y="-658" font-family="sans" font-size="10.00" fill="#000000">query: proteins1</text>
</g>
<!-- 33&#45;&gt;29 -->
<g id="edge42" class="edge">
<title>33&#45;&gt;29</title>
<path fill="none" stroke="#c0c0c0" stroke-width="2" d="M240.4672,-647.8314C238.9699,-640.131 237.1895,-630.9743 235.5255,-622.4166"/>
<polygon fill="#c0c0c0" stroke="#c0c0c0" stroke-width="2" points="238.9248,-621.5614 233.5804,-612.4133 232.0535,-622.8975 238.9248,-621.5614"/>
</g>
<!-- 34 -->
<g id="node35" class="node">
<title>34</title>
<path fill="none" stroke="#56d88a" stroke-width="2" d="M409.5,-684C409.5,-684 336.5,-684 336.5,-684 330.5,-684 324.5,-678 324.5,-672 324.5,-672 324.5,-660 324.5,-660 324.5,-654 330.5,-648 336.5,-648 336.5,-648 409.5,-648 409.5,-648 415.5,-648 421.5,-654 421.5,-660 421.5,-660 421.5,-672 421.5,-672 421.5,-678 415.5,-684 409.5,-684"/>
<text text-anchor="middle" x="373" y="-669" font-family="sans" font-size="10.00" fill="#000000">Find_Candidates</text>
<text text-anchor="middle" x="373" y="-658" font-family="sans" font-size="10.00" fill="#000000">query: proteins2</text>
</g>
<!-- 34&#45;&gt;30 -->
<g id="edge43" class="edge">
<title>34&#45;&gt;30</title>
<path fill="none" stroke="#c0c0c0" stroke-width="2" d="M379.8132,-647.8314C382.7644,-639.9617 386.2858,-630.5712 389.555,-621.8533"/>
<polygon fill="#c0c0c0" stroke="#c0c0c0" stroke-width="2" points="392.8609,-623.0055 393.095,-612.4133 386.3066,-620.5476 392.8609,-623.0055"/>
</g>
<!-- 35 -->
<g id="node36" class="node">
<title>35</title>
<path fill="none" stroke="#56d88a" stroke-width="2" d="M915.5,-684C915.5,-684 842.5,-684 842.5,-684 836.5,-684 830.5,-678 830.5,-672 830.5,-672 830.5,-660 830.5,-660 830.5,-654 836.5,-648 842.5,-648 842.5,-648 915.5,-648 915.5,-648 921.5,-648 927.5,-654 927.5,-660 927.5,-660 927.5,-672 927.5,-672 927.5,-678 921.5,-684 915.5,-684"/>
<text text-anchor="middle" x="879" y="-669" font-family="sans" font-size="10.00" fill="#000000">Find_Candidates</text>
<text text-anchor="middle" x="879" y="-658" font-family="sans" font-size="10.00" fill="#000000">query: proteins1</text>
</g>
<!-- 35&#45;&gt;31 -->
<g id="edge44" class="edge">
<title>35&#45;&gt;31</title>
<path fill="none" stroke="#c0c0c0" stroke-width="2" d="M875.4672,-647.8314C873.9699,-640.131 872.1895,-630.9743 870.5255,-622.4166"/>
<polygon fill="#c0c0c0" stroke="#c0c0c0" stroke-width="2" points="873.9248,-621.5614 868.5804,-612.4133 867.0535,-622.8975 873.9248,-621.5614"/>
</g>
<!-- 36 -->
<g id="node37" class="node">
<title>36</title>
<path fill="none" stroke="#56d88a" stroke-width="2" d="M1057.5,-684C1057.5,-684 984.5,-684 984.5,-684 978.5,-684 972.5,-678 972.5,-672 972.5,-672 972.5,-660 972.5,-660 972.5,-654 978.5,-648 984.5,-648 984.5,-648 1057.5,-648 1057.5,-648 1063.5,-648 1069.5,-654 1069.5,-660 1069.5,-660 1069.5,-672 1069.5,-672 1069.5,-678 1063.5,-684 1057.5,-684"/>
<text text-anchor="middle" x="1021" y="-669" font-family="sans" font-size="10.00" fill="#000000">Find_Candidates</text>
<text text-anchor="middle" x="1021" y="-658" font-family="sans" font-size="10.00" fill="#000000">query: proteins2</text>
</g>
<!-- 36&#45;&gt;32 -->
<g id="edge45" class="edge">
<title>36&#45;&gt;32</title>
<path fill="none" stroke="#c0c0c0" stroke-width="2" d="M1024.5328,-647.8314C1026.0301,-640.131 1027.8105,-630.9743 1029.4745,-622.4166"/>
<polygon fill="#c0c0c0" stroke="#c0c0c0" stroke-width="2" points="1032.9465,-622.8975 1031.4196,-612.4133 1026.0752,-621.5614 1032.9465,-622.8975"/>
</g>
<!-- 37 -->
<g id="node38" class="node">
<title>37</title>
<path fill="none" stroke="#56d8d0" stroke-width="2" d="M359.5,-756C359.5,-756 258.5,-756 258.5,-756 252.5,-756 246.5,-750 246.5,-744 246.5,-744 246.5,-732 246.5,-732 246.5,-726 252.5,-720 258.5,-720 258.5,-720 359.5,-720 359.5,-720 365.5,-720 371.5,-726 371.5,-732 371.5,-732 371.5,-744 371.5,-744 371.5,-750 365.5,-756 359.5,-756"/>
<text text-anchor="middle" x="309" y="-741" font-family="sans" font-size="10.00" fill="#000000">Build_DNA_Databases</text>
<text text-anchor="middle" x="309" y="-730" font-family="sans" font-size="10.00" fill="#000000">subject: genome1</text>
</g>
<!-- 37&#45;&gt;33 -->
<g id="edge46" class="edge">
<title>37&#45;&gt;33</title>
<path fill="none" stroke="#c0c0c0" stroke-width="2" d="M292.5978,-719.8314C284.9585,-711.3694 275.7317,-701.1489 267.3793,-691.8971"/>
<polygon fill="#c0c0c0" stroke="#c0c0c0" stroke-width="2" points="269.9221,-689.4906 260.6231,-684.4133 264.7262,-694.1813 269.9221,-689.4906"/>
</g>
<!-- 37&#45;&gt;34 -->
<g id="edge47" class="edge">
<title>37&#45;&gt;34</title>
<path fill="none" stroke="#c0c0c0" stroke-width="2" d="M325.1499,-719.8314C332.6717,-711.3694 341.7565,-701.1489 349.9804,-691.8971"/>
<polygon fill="#c0c0c0" stroke="#c0c0c0" stroke-width="2" points="352.6049,-694.2127 356.6327,-684.4133 347.373,-689.5621 352.6049,-694.2127"/>
</g>
<!-- 38 -->
<g id="node39" class="node">
<title>38</title>
<path fill="none" stroke="#56d8d0" stroke-width="2" d="M1000.5,-756C1000.5,-756 899.5,-756 899.5,-756 893.5,-756 887.5,-750 887.5,-744 887.5,-744 887.5,-732 887.5,-732 887.5,-726 893.5,-720 899.5,-720 899.5,-720 1000.5,-720 1000.5,-720 1006.5,-720 1012.5,-726 1012.5,-732 1012.5,-732 1012.5,-744 1012.5,-744 1012.5,-750 1006.5,-756 1000.5,-756"/>
<text text-anchor="middle" x="950" y="-741" font-family="sans" font-size="10.00" fill="#000000">Build_DNA_Databases</text>
<text text-anchor="middle" x="950" y="-730" font-family="sans" font-size="10.00" fill="#000000">subject: genome2</text>
</g>
<!-- 38&#45;&gt;35 -->
<g id="edge48" class="edge">
<title>38&#45;&gt;35</title>
<path fill="none" stroke="#c0c0c0" stroke-width="2" d="M932.0837,-719.8314C923.6558,-711.2848 913.459,-700.9443 904.264,-691.6198"/>
<polygon fill="#c0c0c0" stroke="#c0c0c0" stroke-width="2" points="906.6711,-689.0761 897.1575,-684.4133 901.6869,-693.9912 906.6711,-689.0761"/>
</g>
<!-- 38&#45;&gt;36 -->
<g id="edge49" class="edge">
<title>38&#45;&gt;36</title>
<path fill="none" stroke="#c0c0c0" stroke-width="2" d="M967.9163,-719.8314C976.3442,-711.2848 986.541,-700.9443 995.736,-691.6198"/>
<polygon fill="#c0c0c0" stroke="#c0c0c0" stroke-width="2" points="998.3131,-693.9912 1002.8425,-684.4133 993.3289,-689.0761 998.3131,-693.9912"/>
</g>
</g>
</svg>
