<?xml version="1.0" encoding="UTF-8" standalone="no"?>
<!DOCTYPE svg PUBLIC "-//W3C//DTD SVG 1.1//EN"
 "http://www.w3.org/Graphics/SVG/1.1/DTD/svg11.dtd">
<!-- Generated by graphviz version 2.40.1 (20161225.0304)
 -->
<!-- Title: snakemake_dag Pages: 1 -->
<svg width="614pt" height="692pt"
 viewBox="0.00 0.00 614.00 692.00" xmlns="http://www.w3.org/2000/svg" xmlns:xlink="http://www.w3.org/1999/xlink">
<g id="graph0" class="graph" transform="scale(1 1) rotate(0) translate(4 688)">
<title>snakemake_dag</title>
<polygon fill="#ffffff" stroke="transparent" points="-4,4 -4,-688 610,-688 610,4 -4,4"/>
<!-- 0 -->
<g id="node1" class="node">
<title>0</title>
<path fill="none" stroke="#d8ac56" stroke-width="2" d="M320,-36C320,-36 290,-36 290,-36 284,-36 278,-30 278,-24 278,-24 278,-12 278,-12 278,-6 284,0 290,0 290,0 320,0 320,0 326,0 332,-6 332,-12 332,-12 332,-24 332,-24 332,-30 326,-36 320,-36"/>
<text text-anchor="middle" x="305" y="-15.5" font-family="sans" font-size="10.00" fill="#000000">all</text>
</g>
<!-- 1 -->
<g id="node2" class="node">
<title>1</title>
<path fill="none" stroke="#d6d856" stroke-width="2" d="M320,-108C320,-108 290,-108 290,-108 284,-108 278,-102 278,-96 278,-96 278,-84 278,-84 278,-78 284,-72 290,-72 290,-72 320,-72 320,-72 326,-72 332,-78 332,-84 332,-84 332,-96 332,-96 332,-102 326,-108 320,-108"/>
<text text-anchor="middle" x="305" y="-87.5" font-family="sans" font-size="10.00" fill="#000000">finisher</text>
</g>
<!-- 1&#45;&gt;0 -->
<g id="edge1" class="edge">
<title>1&#45;&gt;0</title>
<path fill="none" stroke="#c0c0c0" stroke-width="2" d="M305,-71.8314C305,-64.131 305,-54.9743 305,-46.4166"/>
<polygon fill="#c0c0c0" stroke="#c0c0c0" stroke-width="2" points="308.5001,-46.4132 305,-36.4133 301.5001,-46.4133 308.5001,-46.4132"/>
</g>
<!-- 2 -->
<g id="node3" class="node">
<title>2</title>
<path fill="none" stroke="#afd856" stroke-width="2" d="M329.5,-180C329.5,-180 280.5,-180 280.5,-180 274.5,-180 268.5,-174 268.5,-168 268.5,-168 268.5,-156 268.5,-156 268.5,-150 274.5,-144 280.5,-144 280.5,-144 329.5,-144 329.5,-144 335.5,-144 341.5,-150 341.5,-156 341.5,-156 341.5,-168 341.5,-168 341.5,-174 335.5,-180 329.5,-180"/>
<text text-anchor="middle" x="305" y="-159.5" font-family="sans" font-size="10.00" fill="#000000">join_results</text>
</g>
<!-- 2&#45;&gt;1 -->
<g id="edge2" class="edge">
<title>2&#45;&gt;1</title>
<path fill="none" stroke="#c0c0c0" stroke-width="2" d="M305,-143.8314C305,-136.131 305,-126.9743 305,-118.4166"/>
<polygon fill="#c0c0c0" stroke="#c0c0c0" stroke-width="2" points="308.5001,-118.4132 305,-108.4133 301.5001,-118.4133 308.5001,-118.4132"/>
</g>
<!-- 3 -->
<g id="node4" class="node">
<title>3</title>
<path fill="none" stroke="#56d882" stroke-width="2" d="M178.5,-252C178.5,-252 125.5,-252 125.5,-252 119.5,-252 113.5,-246 113.5,-240 113.5,-240 113.5,-228 113.5,-228 113.5,-222 119.5,-216 125.5,-216 125.5,-216 178.5,-216 178.5,-216 184.5,-216 190.5,-222 190.5,-228 190.5,-228 190.5,-240 190.5,-240 190.5,-246 184.5,-252 178.5,-252"/>
<text text-anchor="middle" x="152" y="-231.5" font-family="sans" font-size="10.00" fill="#000000">get_best_hit</text>
</g>
<!-- 3&#45;&gt;2 -->
<g id="edge3" class="edge">
<title>3&#45;&gt;2</title>
<path fill="none" stroke="#c0c0c0" stroke-width="2" d="M190.6084,-215.8314C211.445,-206.0259 237.2992,-193.8592 259.1541,-183.5746"/>
<polygon fill="#c0c0c0" stroke="#c0c0c0" stroke-width="2" points="260.6914,-186.7193 268.2493,-179.2945 257.7108,-180.3856 260.6914,-186.7193"/>
</g>
<!-- 4 -->
<g id="node5" class="node">
<title>4</title>
<path fill="none" stroke="#56d882" stroke-width="2" d="M284.5,-252C284.5,-252 231.5,-252 231.5,-252 225.5,-252 219.5,-246 219.5,-240 219.5,-240 219.5,-228 219.5,-228 219.5,-222 225.5,-216 231.5,-216 231.5,-216 284.5,-216 284.5,-216 290.5,-216 296.5,-222 296.5,-228 296.5,-228 296.5,-240 296.5,-240 296.5,-246 290.5,-252 284.5,-252"/>
<text text-anchor="middle" x="258" y="-231.5" font-family="sans" font-size="10.00" fill="#000000">get_best_hit</text>
</g>
<!-- 4&#45;&gt;2 -->
<g id="edge4" class="edge">
<title>4&#45;&gt;2</title>
<path fill="none" stroke="#c0c0c0" stroke-width="2" d="M269.8601,-215.8314C275.1629,-207.7079 281.5237,-197.9637 287.3673,-189.0118"/>
<polygon fill="#c0c0c0" stroke="#c0c0c0" stroke-width="2" points="290.4448,-190.7003 292.9802,-180.4133 284.5831,-186.8739 290.4448,-190.7003"/>
</g>
<!-- 5 -->
<g id="node6" class="node">
<title>5</title>
<path fill="none" stroke="#56d882" stroke-width="2" d="M379.5,-252C379.5,-252 326.5,-252 326.5,-252 320.5,-252 314.5,-246 314.5,-240 314.5,-240 314.5,-228 314.5,-228 314.5,-222 320.5,-216 326.5,-216 326.5,-216 379.5,-216 379.5,-216 385.5,-216 391.5,-222 391.5,-228 391.5,-228 391.5,-240 391.5,-240 391.5,-246 385.5,-252 379.5,-252"/>
<text text-anchor="middle" x="353" y="-231.5" font-family="sans" font-size="10.00" fill="#000000">get_best_hit</text>
</g>
<!-- 5&#45;&gt;2 -->
<g id="edge5" class="edge">
<title>5&#45;&gt;2</title>
<path fill="none" stroke="#c0c0c0" stroke-width="2" d="M340.8876,-215.8314C335.4719,-207.7079 328.9758,-197.9637 323.0079,-189.0118"/>
<polygon fill="#c0c0c0" stroke="#c0c0c0" stroke-width="2" points="325.7347,-186.7923 317.2755,-180.4133 319.9104,-190.6753 325.7347,-186.7923"/>
</g>
<!-- 6 -->
<g id="node7" class="node">
<title>6</title>
<path fill="none" stroke="#56d882" stroke-width="2" d="M486.5,-252C486.5,-252 433.5,-252 433.5,-252 427.5,-252 421.5,-246 421.5,-240 421.5,-240 421.5,-228 421.5,-228 421.5,-222 427.5,-216 433.5,-216 433.5,-216 486.5,-216 486.5,-216 492.5,-216 498.5,-222 498.5,-228 498.5,-228 498.5,-240 498.5,-240 498.5,-246 492.5,-252 486.5,-252"/>
<text text-anchor="middle" x="460" y="-231.5" font-family="sans" font-size="10.00" fill="#000000">get_best_hit</text>
</g>
<!-- 6&#45;&gt;2 -->
<g id="edge6" class="edge">
<title>6&#45;&gt;2</title>
<path fill="none" stroke="#c0c0c0" stroke-width="2" d="M421.2868,-216.0171C399.9459,-206.1039 373.3181,-193.7349 350.93,-183.3352"/>
<polygon fill="#c0c0c0" stroke="#c0c0c0" stroke-width="2" points="352.1662,-180.0503 341.6224,-179.0117 349.2172,-186.3988 352.1662,-180.0503"/>
</g>
<!-- 7 -->
<g id="node8" class="node">
<title>7</title>
<path fill="none" stroke="#56a9d8" stroke-width="2" d="M151,-324C151,-324 109,-324 109,-324 103,-324 97,-318 97,-312 97,-312 97,-300 97,-300 97,-294 103,-288 109,-288 109,-288 151,-288 151,-288 157,-288 163,-294 163,-300 163,-300 163,-312 163,-312 163,-318 157,-324 151,-324"/>
<text text-anchor="middle" x="130" y="-303.5" font-family="sans" font-size="10.00" fill="#000000">alignment</text>
</g>
<!-- 7&#45;&gt;3 -->
<g id="edge7" class="edge">
<title>7&#45;&gt;3</title>
<path fill="none" stroke="#c0c0c0" stroke-width="2" d="M135.5515,-287.8314C137.9303,-280.0463 140.7638,-270.7729 143.4033,-262.1347"/>
<polygon fill="#c0c0c0" stroke="#c0c0c0" stroke-width="2" points="146.7987,-262.9996 146.3737,-252.4133 140.1042,-260.954 146.7987,-262.9996"/>
</g>
<!-- 8 -->
<g id="node9" class="node">
<title>8</title>
<path fill="none" stroke="#56a9d8" stroke-width="2" d="M279,-324C279,-324 237,-324 237,-324 231,-324 225,-318 225,-312 225,-312 225,-300 225,-300 225,-294 231,-288 237,-288 237,-288 279,-288 279,-288 285,-288 291,-294 291,-300 291,-300 291,-312 291,-312 291,-318 285,-324 279,-324"/>
<text text-anchor="middle" x="258" y="-303.5" font-family="sans" font-size="10.00" fill="#000000">alignment</text>
</g>
<!-- 8&#45;&gt;4 -->
<g id="edge8" class="edge">
<title>8&#45;&gt;4</title>
<path fill="none" stroke="#c0c0c0" stroke-width="2" d="M258,-287.8314C258,-280.131 258,-270.9743 258,-262.4166"/>
<polygon fill="#c0c0c0" stroke="#c0c0c0" stroke-width="2" points="261.5001,-262.4132 258,-252.4133 254.5001,-262.4133 261.5001,-262.4132"/>
</g>
<!-- 9 -->
<g id="node10" class="node">
<title>9</title>
<path fill="none" stroke="#56a9d8" stroke-width="2" d="M374,-324C374,-324 332,-324 332,-324 326,-324 320,-318 320,-312 320,-312 320,-300 320,-300 320,-294 326,-288 332,-288 332,-288 374,-288 374,-288 380,-288 386,-294 386,-300 386,-300 386,-312 386,-312 386,-318 380,-324 374,-324"/>
<text text-anchor="middle" x="353" y="-303.5" font-family="sans" font-size="10.00" fill="#000000">alignment</text>
</g>
<!-- 9&#45;&gt;5 -->
<g id="edge9" class="edge">
<title>9&#45;&gt;5</title>
<path fill="none" stroke="#c0c0c0" stroke-width="2" d="M353,-287.8314C353,-280.131 353,-270.9743 353,-262.4166"/>
<polygon fill="#c0c0c0" stroke="#c0c0c0" stroke-width="2" points="356.5001,-262.4132 353,-252.4133 349.5001,-262.4133 356.5001,-262.4132"/>
</g>
<!-- 10 -->
<g id="node11" class="node">
<title>10</title>
<path fill="none" stroke="#56a9d8" stroke-width="2" d="M511,-324C511,-324 469,-324 469,-324 463,-324 457,-318 457,-312 457,-312 457,-300 457,-300 457,-294 463,-288 469,-288 469,-288 511,-288 511,-288 517,-288 523,-294 523,-300 523,-300 523,-312 523,-312 523,-318 517,-324 511,-324"/>
<text text-anchor="middle" x="490" y="-303.5" font-family="sans" font-size="10.00" fill="#000000">alignment</text>
</g>
<!-- 10&#45;&gt;6 -->
<g id="edge10" class="edge">
<title>10&#45;&gt;6</title>
<path fill="none" stroke="#c0c0c0" stroke-width="2" d="M482.4297,-287.8314C479.1507,-279.9617 475.238,-270.5712 471.6055,-261.8533"/>
<polygon fill="#c0c0c0" stroke="#c0c0c0" stroke-width="2" points="474.7492,-260.2979 467.6722,-252.4133 468.2876,-262.9902 474.7492,-260.2979"/>
</g>
<!-- 11 -->
<g id="node12" class="node">
<title>11</title>
<path fill="none" stroke="#5682d8" stroke-width="2" d="M126,-396C126,-396 96,-396 96,-396 90,-396 84,-390 84,-384 84,-384 84,-372 84,-372 84,-366 90,-360 96,-360 96,-360 126,-360 126,-360 132,-360 138,-366 138,-372 138,-372 138,-384 138,-384 138,-390 132,-396 126,-396"/>
<text text-anchor="middle" x="111" y="-375.5" font-family="sans" font-size="10.00" fill="#000000">cd_hit</text>
</g>
<!-- 11&#45;&gt;7 -->
<g id="edge11" class="edge">
<title>11&#45;&gt;7</title>
<path fill="none" stroke="#c0c0c0" stroke-width="2" d="M115.7945,-359.8314C117.8489,-352.0463 120.296,-342.7729 122.5756,-334.1347"/>
<polygon fill="#c0c0c0" stroke="#c0c0c0" stroke-width="2" points="125.9735,-334.9753 125.1409,-324.4133 119.2052,-333.1892 125.9735,-334.9753"/>
</g>
<!-- 12 -->
<g id="node13" class="node">
<title>12</title>
<path fill="none" stroke="#5682d8" stroke-width="2" d="M273,-396C273,-396 243,-396 243,-396 237,-396 231,-390 231,-384 231,-384 231,-372 231,-372 231,-366 237,-360 243,-360 243,-360 273,-360 273,-360 279,-360 285,-366 285,-372 285,-372 285,-384 285,-384 285,-390 279,-396 273,-396"/>
<text text-anchor="middle" x="258" y="-375.5" font-family="sans" font-size="10.00" fill="#000000">cd_hit</text>
</g>
<!-- 12&#45;&gt;8 -->
<g id="edge12" class="edge">
<title>12&#45;&gt;8</title>
<path fill="none" stroke="#c0c0c0" stroke-width="2" d="M258,-359.8314C258,-352.131 258,-342.9743 258,-334.4166"/>
<polygon fill="#c0c0c0" stroke="#c0c0c0" stroke-width="2" points="261.5001,-334.4132 258,-324.4133 254.5001,-334.4133 261.5001,-334.4132"/>
</g>
<!-- 13 -->
<g id="node14" class="node">
<title>13</title>
<path fill="none" stroke="#5682d8" stroke-width="2" d="M368,-396C368,-396 338,-396 338,-396 332,-396 326,-390 326,-384 326,-384 326,-372 326,-372 326,-366 332,-360 338,-360 338,-360 368,-360 368,-360 374,-360 380,-366 380,-372 380,-372 380,-384 380,-384 380,-390 374,-396 368,-396"/>
<text text-anchor="middle" x="353" y="-375.5" font-family="sans" font-size="10.00" fill="#000000">cd_hit</text>
</g>
<!-- 13&#45;&gt;9 -->
<g id="edge13" class="edge">
<title>13&#45;&gt;9</title>
<path fill="none" stroke="#c0c0c0" stroke-width="2" d="M353,-359.8314C353,-352.131 353,-342.9743 353,-334.4166"/>
<polygon fill="#c0c0c0" stroke="#c0c0c0" stroke-width="2" points="356.5001,-334.4132 353,-324.4133 349.5001,-334.4133 356.5001,-334.4132"/>
</g>
<!-- 14 -->
<g id="node15" class="node">
<title>14</title>
<path fill="none" stroke="#5682d8" stroke-width="2" d="M516,-396C516,-396 486,-396 486,-396 480,-396 474,-390 474,-384 474,-384 474,-372 474,-372 474,-366 480,-360 486,-360 486,-360 516,-360 516,-360 522,-360 528,-366 528,-372 528,-372 528,-384 528,-384 528,-390 522,-396 516,-396"/>
<text text-anchor="middle" x="501" y="-375.5" font-family="sans" font-size="10.00" fill="#000000">cd_hit</text>
</g>
<!-- 14&#45;&gt;10 -->
<g id="edge14" class="edge">
<title>14&#45;&gt;10</title>
<path fill="none" stroke="#c0c0c0" stroke-width="2" d="M498.2242,-359.8314C497.0478,-352.131 495.6489,-342.9743 494.3414,-334.4166"/>
<polygon fill="#c0c0c0" stroke="#c0c0c0" stroke-width="2" points="497.7833,-333.7699 492.8131,-324.4133 490.8636,-334.8272 497.7833,-333.7699"/>
</g>
<!-- 15 -->
<g id="node16" class="node">
<title>15</title>
<path fill="none" stroke="#56d8d8" stroke-width="2" d="M54,-468C54,-468 12,-468 12,-468 6,-468 0,-462 0,-456 0,-456 0,-444 0,-444 0,-438 6,-432 12,-432 12,-432 54,-432 54,-432 60,-432 66,-438 66,-444 66,-444 66,-456 66,-456 66,-462 60,-468 54,-468"/>
<text text-anchor="middle" x="33" y="-447.5" font-family="sans" font-size="10.00" fill="#000000">exonerate</text>
</g>
<!-- 15&#45;&gt;11 -->
<g id="edge15" class="edge">
<title>15&#45;&gt;11</title>
<path fill="none" stroke="#c0c0c0" stroke-width="2" d="M52.6827,-431.8314C62.1051,-423.1337 73.5401,-412.5783 83.7796,-403.1265"/>
<polygon fill="#c0c0c0" stroke="#c0c0c0" stroke-width="2" points="86.3495,-405.5175 91.3236,-396.1628 81.6016,-400.3738 86.3495,-405.5175"/>
</g>
<!-- 16 -->
<g id="node17" class="node">
<title>16</title>
<path fill="none" stroke="#d85656" stroke-width="2" d="M126,-468C126,-468 96,-468 96,-468 90,-468 84,-462 84,-456 84,-456 84,-444 84,-444 84,-438 90,-432 96,-432 96,-432 126,-432 126,-432 132,-432 138,-438 138,-444 138,-444 138,-456 138,-456 138,-462 132,-468 126,-468"/>
<text text-anchor="middle" x="111" y="-447.5" font-family="sans" font-size="10.00" fill="#000000">spaln</text>
</g>
<!-- 16&#45;&gt;11 -->
<g id="edge16" class="edge">
<title>16&#45;&gt;11</title>
<path fill="none" stroke="#c0c0c0" stroke-width="2" d="M111,-431.8314C111,-424.131 111,-414.9743 111,-406.4166"/>
<polygon fill="#c0c0c0" stroke="#c0c0c0" stroke-width="2" points="114.5001,-406.4132 111,-396.4133 107.5001,-406.4133 114.5001,-406.4132"/>
</g>
<!-- 17 -->
<g id="node18" class="node">
<title>17</title>
<path fill="none" stroke="#56d8d8" stroke-width="2" d="M210,-468C210,-468 168,-468 168,-468 162,-468 156,-462 156,-456 156,-456 156,-444 156,-444 156,-438 162,-432 168,-432 168,-432 210,-432 210,-432 216,-432 222,-438 222,-444 222,-444 222,-456 222,-456 222,-462 216,-468 210,-468"/>
<text text-anchor="middle" x="189" y="-447.5" font-family="sans" font-size="10.00" fill="#000000">exonerate</text>
</g>
<!-- 17&#45;&gt;12 -->
<g id="edge17" class="edge">
<title>17&#45;&gt;12</title>
<path fill="none" stroke="#c0c0c0" stroke-width="2" d="M206.4116,-431.8314C214.521,-423.3694 224.3156,-413.1489 233.182,-403.8971"/>
<polygon fill="#c0c0c0" stroke="#c0c0c0" stroke-width="2" points="235.9618,-406.0549 240.354,-396.4133 230.9079,-401.2115 235.9618,-406.0549"/>
</g>
<!-- 18 -->
<g id="node19" class="node">
<title>18</title>
<path fill="none" stroke="#d85656" stroke-width="2" d="M282,-468C282,-468 252,-468 252,-468 246,-468 240,-462 240,-456 240,-456 240,-444 240,-444 240,-438 246,-432 252,-432 252,-432 282,-432 282,-432 288,-432 294,-438 294,-444 294,-444 294,-456 294,-456 294,-462 288,-468 282,-468"/>
<text text-anchor="middle" x="267" y="-447.5" font-family="sans" font-size="10.00" fill="#000000">spaln</text>
</g>
<!-- 18&#45;&gt;12 -->
<g id="edge18" class="edge">
<title>18&#45;&gt;12</title>
<path fill="none" stroke="#c0c0c0" stroke-width="2" d="M264.7289,-431.8314C263.7664,-424.131 262.6218,-414.9743 261.5521,-406.4166"/>
<polygon fill="#c0c0c0" stroke="#c0c0c0" stroke-width="2" points="265.0151,-405.9019 260.3017,-396.4133 258.0691,-406.7702 265.0151,-405.9019"/>
</g>
<!-- 19 -->
<g id="node20" class="node">
<title>19</title>
<path fill="none" stroke="#56d8d8" stroke-width="2" d="M366,-468C366,-468 324,-468 324,-468 318,-468 312,-462 312,-456 312,-456 312,-444 312,-444 312,-438 318,-432 324,-432 324,-432 366,-432 366,-432 372,-432 378,-438 378,-444 378,-444 378,-456 378,-456 378,-462 372,-468 366,-468"/>
<text text-anchor="middle" x="345" y="-447.5" font-family="sans" font-size="10.00" fill="#000000">exonerate</text>
</g>
<!-- 19&#45;&gt;13 -->
<g id="edge19" class="edge">
<title>19&#45;&gt;13</title>
<path fill="none" stroke="#c0c0c0" stroke-width="2" d="M347.0187,-431.8314C347.8743,-424.131 348.8917,-414.9743 349.8426,-406.4166"/>
<polygon fill="#c0c0c0" stroke="#c0c0c0" stroke-width="2" points="353.3283,-406.7386 350.9541,-396.4133 346.3711,-405.9656 353.3283,-406.7386"/>
</g>
<!-- 20 -->
<g id="node21" class="node">
<title>20</title>
<path fill="none" stroke="#d85656" stroke-width="2" d="M438,-468C438,-468 408,-468 408,-468 402,-468 396,-462 396,-456 396,-456 396,-444 396,-444 396,-438 402,-432 408,-432 408,-432 438,-432 438,-432 444,-432 450,-438 450,-444 450,-444 450,-456 450,-456 450,-462 444,-468 438,-468"/>
<text text-anchor="middle" x="423" y="-447.5" font-family="sans" font-size="10.00" fill="#000000">spaln</text>
</g>
<!-- 20&#45;&gt;13 -->
<g id="edge20" class="edge">
<title>20&#45;&gt;13</title>
<path fill="none" stroke="#c0c0c0" stroke-width="2" d="M405.336,-431.8314C397.0268,-423.2848 386.9736,-412.9443 377.9082,-403.6198"/>
<polygon fill="#c0c0c0" stroke="#c0c0c0" stroke-width="2" points="380.3821,-401.1435 370.9018,-396.4133 375.3631,-406.023 380.3821,-401.1435"/>
</g>
<!-- 21 -->
<g id="node22" class="node">
<title>21</title>
<path fill="none" stroke="#56d8d8" stroke-width="2" d="M522,-468C522,-468 480,-468 480,-468 474,-468 468,-462 468,-456 468,-456 468,-444 468,-444 468,-438 474,-432 480,-432 480,-432 522,-432 522,-432 528,-432 534,-438 534,-444 534,-444 534,-456 534,-456 534,-462 528,-468 522,-468"/>
<text text-anchor="middle" x="501" y="-447.5" font-family="sans" font-size="10.00" fill="#000000">exonerate</text>
</g>
<!-- 21&#45;&gt;14 -->
<g id="edge21" class="edge">
<title>21&#45;&gt;14</title>
<path fill="none" stroke="#c0c0c0" stroke-width="2" d="M501,-431.8314C501,-424.131 501,-414.9743 501,-406.4166"/>
<polygon fill="#c0c0c0" stroke="#c0c0c0" stroke-width="2" points="504.5001,-406.4132 501,-396.4133 497.5001,-406.4133 504.5001,-406.4132"/>
</g>
<!-- 22 -->
<g id="node23" class="node">
<title>22</title>
<path fill="none" stroke="#d85656" stroke-width="2" d="M594,-468C594,-468 564,-468 564,-468 558,-468 552,-462 552,-456 552,-456 552,-444 552,-444 552,-438 558,-432 564,-432 564,-432 594,-432 594,-432 600,-432 606,-438 606,-444 606,-444 606,-456 606,-456 606,-462 600,-468 594,-468"/>
<text text-anchor="middle" x="579" y="-447.5" font-family="sans" font-size="10.00" fill="#000000">spaln</text>
</g>
<!-- 22&#45;&gt;14 -->
<g id="edge22" class="edge">
<title>22&#45;&gt;14</title>
<path fill="none" stroke="#c0c0c0" stroke-width="2" d="M559.3173,-431.8314C549.8949,-423.1337 538.4599,-412.5783 528.2204,-403.1265"/>
<polygon fill="#c0c0c0" stroke="#c0c0c0" stroke-width="2" points="530.3984,-400.3738 520.6764,-396.1628 525.6505,-405.5175 530.3984,-400.3738"/>
</g>
<!-- 23 -->
<g id="node24" class="node">
<title>23</title>
<path fill="none" stroke="#80d856" stroke-width="2" d="M109.5,-540C109.5,-540 76.5,-540 76.5,-540 70.5,-540 64.5,-534 64.5,-528 64.5,-528 64.5,-516 64.5,-516 64.5,-510 70.5,-504 76.5,-504 76.5,-504 109.5,-504 109.5,-504 115.5,-504 121.5,-510 121.5,-516 121.5,-516 121.5,-528 121.5,-528 121.5,-534 115.5,-540 109.5,-540"/>
<text text-anchor="middle" x="93" y="-519.5" font-family="sans" font-size="10.00" fill="#000000">matcher</text>
</g>
<!-- 23&#45;&gt;15 -->
<g id="edge23" class="edge">
<title>23&#45;&gt;15</title>
<path fill="none" stroke="#c0c0c0" stroke-width="2" d="M77.8595,-503.8314C70.8783,-495.454 62.4609,-485.3531 54.8124,-476.1749"/>
<polygon fill="#c0c0c0" stroke="#c0c0c0" stroke-width="2" points="57.4351,-473.8548 48.3444,-468.4133 52.0575,-478.3362 57.4351,-473.8548"/>
</g>
<!-- 23&#45;&gt;16 -->
<g id="edge24" class="edge">
<title>23&#45;&gt;16</title>
<path fill="none" stroke="#c0c0c0" stroke-width="2" d="M97.5422,-503.8314C99.4884,-496.0463 101.8068,-486.7729 103.9663,-478.1347"/>
<polygon fill="#c0c0c0" stroke="#c0c0c0" stroke-width="2" points="107.3668,-478.9636 106.3967,-468.4133 100.5758,-477.2658 107.3668,-478.9636"/>
</g>
<!-- 24 -->
<g id="node25" class="node">
<title>24</title>
<path fill="none" stroke="#80d856" stroke-width="2" d="M223.5,-540C223.5,-540 190.5,-540 190.5,-540 184.5,-540 178.5,-534 178.5,-528 178.5,-528 178.5,-516 178.5,-516 178.5,-510 184.5,-504 190.5,-504 190.5,-504 223.5,-504 223.5,-504 229.5,-504 235.5,-510 235.5,-516 235.5,-516 235.5,-528 235.5,-528 235.5,-534 229.5,-540 223.5,-540"/>
<text text-anchor="middle" x="207" y="-519.5" font-family="sans" font-size="10.00" fill="#000000">matcher</text>
</g>
<!-- 24&#45;&gt;17 -->
<g id="edge25" class="edge">
<title>24&#45;&gt;17</title>
<path fill="none" stroke="#c0c0c0" stroke-width="2" d="M202.4578,-503.8314C200.5116,-496.0463 198.1932,-486.7729 196.0337,-478.1347"/>
<polygon fill="#c0c0c0" stroke="#c0c0c0" stroke-width="2" points="199.4242,-477.2658 193.6033,-468.4133 192.6332,-478.9636 199.4242,-477.2658"/>
</g>
<!-- 24&#45;&gt;18 -->
<g id="edge26" class="edge">
<title>24&#45;&gt;18</title>
<path fill="none" stroke="#c0c0c0" stroke-width="2" d="M222.1405,-503.8314C229.1217,-495.454 237.5391,-485.3531 245.1876,-476.1749"/>
<polygon fill="#c0c0c0" stroke="#c0c0c0" stroke-width="2" points="247.9425,-478.3362 251.6556,-468.4133 242.5649,-473.8548 247.9425,-478.3362"/>
</g>
<!-- 25 -->
<g id="node26" class="node">
<title>25</title>
<path fill="none" stroke="#80d856" stroke-width="2" d="M421.5,-540C421.5,-540 388.5,-540 388.5,-540 382.5,-540 376.5,-534 376.5,-528 376.5,-528 376.5,-516 376.5,-516 376.5,-510 382.5,-504 388.5,-504 388.5,-504 421.5,-504 421.5,-504 427.5,-504 433.5,-510 433.5,-516 433.5,-516 433.5,-528 433.5,-528 433.5,-534 427.5,-540 421.5,-540"/>
<text text-anchor="middle" x="405" y="-519.5" font-family="sans" font-size="10.00" fill="#000000">matcher</text>
</g>
<!-- 25&#45;&gt;19 -->
<g id="edge27" class="edge">
<title>25&#45;&gt;19</title>
<path fill="none" stroke="#c0c0c0" stroke-width="2" d="M389.8595,-503.8314C382.8783,-495.454 374.4609,-485.3531 366.8124,-476.1749"/>
<polygon fill="#c0c0c0" stroke="#c0c0c0" stroke-width="2" points="369.4351,-473.8548 360.3444,-468.4133 364.0575,-478.3362 369.4351,-473.8548"/>
</g>
<!-- 25&#45;&gt;20 -->
<g id="edge28" class="edge">
<title>25&#45;&gt;20</title>
<path fill="none" stroke="#c0c0c0" stroke-width="2" d="M409.5422,-503.8314C411.4884,-496.0463 413.8068,-486.7729 415.9663,-478.1347"/>
<polygon fill="#c0c0c0" stroke="#c0c0c0" stroke-width="2" points="419.3668,-478.9636 418.3967,-468.4133 412.5758,-477.2658 419.3668,-478.9636"/>
</g>
<!-- 26 -->
<g id="node27" class="node">
<title>26</title>
<path fill="none" stroke="#80d856" stroke-width="2" d="M535.5,-540C535.5,-540 502.5,-540 502.5,-540 496.5,-540 490.5,-534 490.5,-528 490.5,-528 490.5,-516 490.5,-516 490.5,-510 496.5,-504 502.5,-504 502.5,-504 535.5,-504 535.5,-504 541.5,-504 547.5,-510 547.5,-516 547.5,-516 547.5,-528 547.5,-528 547.5,-534 541.5,-540 535.5,-540"/>
<text text-anchor="middle" x="519" y="-519.5" font-family="sans" font-size="10.00" fill="#000000">matcher</text>
</g>
<!-- 26&#45;&gt;21 -->
<g id="edge29" class="edge">
<title>26&#45;&gt;21</title>
<path fill="none" stroke="#c0c0c0" stroke-width="2" d="M514.4578,-503.8314C512.5116,-496.0463 510.1932,-486.7729 508.0337,-478.1347"/>
<polygon fill="#c0c0c0" stroke="#c0c0c0" stroke-width="2" points="511.4242,-477.2658 505.6033,-468.4133 504.6332,-478.9636 511.4242,-477.2658"/>
</g>
<!-- 26&#45;&gt;22 -->
<g id="edge30" class="edge">
<title>26&#45;&gt;22</title>
<path fill="none" stroke="#c0c0c0" stroke-width="2" d="M534.1405,-503.8314C541.1217,-495.454 549.5391,-485.3531 557.1876,-476.1749"/>
<polygon fill="#c0c0c0" stroke="#c0c0c0" stroke-width="2" points="559.9425,-478.3362 563.6556,-468.4133 554.5649,-473.8548 559.9425,-478.3362"/>
</g>
<!-- 27 -->
<g id="node28" class="node">
<title>27</title>
<path fill="none" stroke="#59d856" stroke-width="2" d="M129,-612C129,-612 57,-612 57,-612 51,-612 45,-606 45,-600 45,-600 45,-588 45,-588 45,-582 51,-576 57,-576 57,-576 129,-576 129,-576 135,-576 141,-582 141,-588 141,-588 141,-600 141,-600 141,-606 135,-612 129,-612"/>
<text text-anchor="middle" x="93" y="-597" font-family="sans" font-size="10.00" fill="#000000">blast</text>
<text text-anchor="middle" x="93" y="-586" font-family="sans" font-size="10.00" fill="#000000">query: protein_1</text>
</g>
<!-- 27&#45;&gt;23 -->
<g id="edge31" class="edge">
<title>27&#45;&gt;23</title>
<path fill="none" stroke="#c0c0c0" stroke-width="2" d="M93,-575.8314C93,-568.131 93,-558.9743 93,-550.4166"/>
<polygon fill="#c0c0c0" stroke="#c0c0c0" stroke-width="2" points="96.5001,-550.4132 93,-540.4133 89.5001,-550.4133 96.5001,-550.4132"/>
</g>
<!-- 28 -->
<g id="node29" class="node">
<title>28</title>
<path fill="none" stroke="#59d856" stroke-width="2" d="M243,-612C243,-612 171,-612 171,-612 165,-612 159,-606 159,-600 159,-600 159,-588 159,-588 159,-582 165,-576 171,-576 171,-576 243,-576 243,-576 249,-576 255,-582 255,-588 255,-588 255,-600 255,-600 255,-606 249,-612 243,-612"/>
<text text-anchor="middle" x="207" y="-597" font-family="sans" font-size="10.00" fill="#000000">blast</text>
<text text-anchor="middle" x="207" y="-586" font-family="sans" font-size="10.00" fill="#000000">query: protein_2</text>
</g>
<!-- 28&#45;&gt;24 -->
<g id="edge32" class="edge">
<title>28&#45;&gt;24</title>
<path fill="none" stroke="#c0c0c0" stroke-width="2" d="M207,-575.8314C207,-568.131 207,-558.9743 207,-550.4166"/>
<polygon fill="#c0c0c0" stroke="#c0c0c0" stroke-width="2" points="210.5001,-550.4132 207,-540.4133 203.5001,-550.4133 210.5001,-550.4132"/>
</g>
<!-- 29 -->
<g id="node30" class="node">
<title>29</title>
<path fill="none" stroke="#59d856" stroke-width="2" d="M441,-612C441,-612 369,-612 369,-612 363,-612 357,-606 357,-600 357,-600 357,-588 357,-588 357,-582 363,-576 369,-576 369,-576 441,-576 441,-576 447,-576 453,-582 453,-588 453,-588 453,-600 453,-600 453,-606 447,-612 441,-612"/>
<text text-anchor="middle" x="405" y="-597" font-family="sans" font-size="10.00" fill="#000000">blast</text>
<text text-anchor="middle" x="405" y="-586" font-family="sans" font-size="10.00" fill="#000000">query: protein_1</text>
</g>
<!-- 29&#45;&gt;25 -->
<g id="edge33" class="edge">
<title>29&#45;&gt;25</title>
<path fill="none" stroke="#c0c0c0" stroke-width="2" d="M405,-575.8314C405,-568.131 405,-558.9743 405,-550.4166"/>
<polygon fill="#c0c0c0" stroke="#c0c0c0" stroke-width="2" points="408.5001,-550.4132 405,-540.4133 401.5001,-550.4133 408.5001,-550.4132"/>
</g>
<!-- 30 -->
<g id="node31" class="node">
<title>30</title>
<path fill="none" stroke="#59d856" stroke-width="2" d="M555,-612C555,-612 483,-612 483,-612 477,-612 471,-606 471,-600 471,-600 471,-588 471,-588 471,-582 477,-576 483,-576 483,-576 555,-576 555,-576 561,-576 567,-582 567,-588 567,-588 567,-600 567,-600 567,-606 561,-612 555,-612"/>
<text text-anchor="middle" x="519" y="-597" font-family="sans" font-size="10.00" fill="#000000">blast</text>
<text text-anchor="middle" x="519" y="-586" font-family="sans" font-size="10.00" fill="#000000">query: protein_2</text>
</g>
<!-- 30&#45;&gt;26 -->
<g id="edge34" class="edge">
<title>30&#45;&gt;26</title>
<path fill="none" stroke="#c0c0c0" stroke-width="2" d="M519,-575.8314C519,-568.131 519,-558.9743 519,-550.4166"/>
<polygon fill="#c0c0c0" stroke="#c0c0c0" stroke-width="2" points="522.5001,-550.4132 519,-540.4133 515.5001,-550.4133 522.5001,-550.4132"/>
</g>
<!-- 31 -->
<g id="node32" class="node">
<title>31</title>
<path fill="none" stroke="#56d8a9" stroke-width="2" d="M192.5,-684C192.5,-684 107.5,-684 107.5,-684 101.5,-684 95.5,-678 95.5,-672 95.5,-672 95.5,-660 95.5,-660 95.5,-654 101.5,-648 107.5,-648 107.5,-648 192.5,-648 192.5,-648 198.5,-648 204.5,-654 204.5,-660 204.5,-660 204.5,-672 204.5,-672 204.5,-678 198.5,-684 192.5,-684"/>
<text text-anchor="middle" x="150" y="-669" font-family="sans" font-size="10.00" fill="#000000">makeblastdb</text>
<text text-anchor="middle" x="150" y="-658" font-family="sans" font-size="10.00" fill="#000000">subject: genome_1</text>
</g>
<!-- 31&#45;&gt;27 -->
<g id="edge35" class="edge">
<title>31&#45;&gt;27</title>
<path fill="none" stroke="#c0c0c0" stroke-width="2" d="M135.6165,-647.8314C129.0514,-639.5386 121.1493,-629.557 113.9422,-620.4533"/>
<polygon fill="#c0c0c0" stroke="#c0c0c0" stroke-width="2" points="116.5284,-618.0813 107.5772,-612.4133 111.0401,-622.4262 116.5284,-618.0813"/>
</g>
<!-- 31&#45;&gt;28 -->
<g id="edge36" class="edge">
<title>31&#45;&gt;28</title>
<path fill="none" stroke="#c0c0c0" stroke-width="2" d="M164.3835,-647.8314C170.9486,-639.5386 178.8507,-629.557 186.0578,-620.4533"/>
<polygon fill="#c0c0c0" stroke="#c0c0c0" stroke-width="2" points="188.9599,-622.4262 192.4228,-612.4133 183.4716,-618.0813 188.9599,-622.4262"/>
</g>
<!-- 32 -->
<g id="node33" class="node">
<title>32</title>
<path fill="none" stroke="#56d8a9" stroke-width="2" d="M504.5,-684C504.5,-684 419.5,-684 419.5,-684 413.5,-684 407.5,-678 407.5,-672 407.5,-672 407.5,-660 407.5,-660 407.5,-654 413.5,-648 419.5,-648 419.5,-648 504.5,-648 504.5,-648 510.5,-648 516.5,-654 516.5,-660 516.5,-660 516.5,-672 516.5,-672 516.5,-678 510.5,-684 504.5,-684"/>
<text text-anchor="middle" x="462" y="-669" font-family="sans" font-size="10.00" fill="#000000">makeblastdb</text>
<text text-anchor="middle" x="462" y="-658" font-family="sans" font-size="10.00" fill="#000000">subject: genome_2</text>
</g>
<!-- 32&#45;&gt;29 -->
<g id="edge37" class="edge">
<title>32&#45;&gt;29</title>
<path fill="none" stroke="#c0c0c0" stroke-width="2" d="M447.6165,-647.8314C441.0514,-639.5386 433.1493,-629.557 425.9422,-620.4533"/>
<polygon fill="#c0c0c0" stroke="#c0c0c0" stroke-width="2" points="428.5284,-618.0813 419.5772,-612.4133 423.0401,-622.4262 428.5284,-618.0813"/>
</g>
<!-- 32&#45;&gt;30 -->
<g id="edge38" class="edge">
<title>32&#45;&gt;30</title>
<path fill="none" stroke="#c0c0c0" stroke-width="2" d="M476.3835,-647.8314C482.9486,-639.5386 490.8507,-629.557 498.0578,-620.4533"/>
<polygon fill="#c0c0c0" stroke="#c0c0c0" stroke-width="2" points="500.9599,-622.4262 504.4228,-612.4133 495.4716,-618.0813 500.9599,-622.4262"/>
</g>
</g>
</svg>
