<?xml version="1.0" encoding="UTF-8" standalone="no"?>
<!DOCTYPE svg PUBLIC "-//W3C//DTD SVG 1.1//EN"
 "http://www.w3.org/Graphics/SVG/1.1/DTD/svg11.dtd">
<!-- Generated by graphviz version 2.40.1 (20161225.0304)
 -->
<!-- Title: snakemake_dag Pages: 1 -->
<svg width="1262pt" height="692pt"
 viewBox="0.00 0.00 1261.50 692.00" xmlns="http://www.w3.org/2000/svg" xmlns:xlink="http://www.w3.org/1999/xlink">
<g id="graph0" class="graph" transform="scale(1 1) rotate(0) translate(4 688)">
<title>snakemake_dag</title>
<polygon fill="#ffffff" stroke="transparent" points="-4,4 -4,-688 1257.5,-688 1257.5,4 -4,4"/>
<!-- 0 -->
<g id="node1" class="node">
<title>0</title>
<path fill="none" stroke="#56b1d8" stroke-width="2" d="M659,-36C659,-36 629,-36 629,-36 623,-36 617,-30 617,-24 617,-24 617,-12 617,-12 617,-6 623,0 629,0 629,0 659,0 659,0 665,0 671,-6 671,-12 671,-12 671,-24 671,-24 671,-30 665,-36 659,-36"/>
<text text-anchor="middle" x="644" y="-15.5" font-family="sans" font-size="10.00" fill="#000000">all</text>
</g>
<!-- 1 -->
<g id="node2" class="node">
<title>1</title>
<path fill="none" stroke="#5682d8" stroke-width="2" d="M683,-108C683,-108 605,-108 605,-108 599,-108 593,-102 593,-96 593,-96 593,-84 593,-84 593,-78 599,-72 605,-72 605,-72 683,-72 683,-72 689,-72 695,-78 695,-84 695,-84 695,-96 695,-96 695,-102 689,-108 683,-108"/>
<text text-anchor="middle" x="644" y="-87.5" font-family="sans" font-size="10.00" fill="#000000">Visualize_Results</text>
</g>
<!-- 1&#45;&gt;0 -->
<g id="edge1" class="edge">
<title>1&#45;&gt;0</title>
<path fill="none" stroke="#c0c0c0" stroke-width="2" d="M644,-71.8314C644,-64.131 644,-54.9743 644,-46.4166"/>
<polygon fill="#c0c0c0" stroke="#c0c0c0" stroke-width="2" points="647.5001,-46.4132 644,-36.4133 640.5001,-46.4133 647.5001,-46.4132"/>
</g>
<!-- 2 -->
<g id="node3" class="node">
<title>2</title>
<path fill="none" stroke="#9fd856" stroke-width="2" d="M687.5,-180C687.5,-180 600.5,-180 600.5,-180 594.5,-180 588.5,-174 588.5,-168 588.5,-168 588.5,-156 588.5,-156 588.5,-150 594.5,-144 600.5,-144 600.5,-144 687.5,-144 687.5,-144 693.5,-144 699.5,-150 699.5,-156 699.5,-156 699.5,-168 699.5,-168 699.5,-174 693.5,-180 687.5,-180"/>
<text text-anchor="middle" x="644" y="-159.5" font-family="sans" font-size="10.00" fill="#000000">Join_ProDA_Results</text>
</g>
<!-- 2&#45;&gt;1 -->
<g id="edge2" class="edge">
<title>2&#45;&gt;1</title>
<path fill="none" stroke="#c0c0c0" stroke-width="2" d="M644,-143.8314C644,-136.131 644,-126.9743 644,-118.4166"/>
<polygon fill="#c0c0c0" stroke="#c0c0c0" stroke-width="2" points="647.5001,-118.4132 644,-108.4133 640.5001,-118.4133 647.5001,-118.4132"/>
</g>
<!-- 3 -->
<g id="node4" class="node">
<title>3</title>
<path fill="none" stroke="#56d89a" stroke-width="2" d="M362.5,-252C362.5,-252 153.5,-252 153.5,-252 147.5,-252 141.5,-246 141.5,-240 141.5,-240 141.5,-228 141.5,-228 141.5,-222 147.5,-216 153.5,-216 153.5,-216 362.5,-216 362.5,-216 368.5,-216 374.5,-222 374.5,-228 374.5,-228 374.5,-240 374.5,-240 374.5,-246 368.5,-252 362.5,-252"/>
<text text-anchor="middle" x="258" y="-231.5" font-family="sans" font-size="10.00" fill="#000000">Retrieve_Sequence_With_Highest_Similarity</text>
</g>
<!-- 3&#45;&gt;2 -->
<g id="edge3" class="edge">
<title>3&#45;&gt;2</title>
<path fill="none" stroke="#c0c0c0" stroke-width="2" d="M354.9059,-215.9243C424.7157,-202.9028 517.0451,-185.6807 578.3733,-174.2412"/>
<polygon fill="#c0c0c0" stroke="#c0c0c0" stroke-width="2" points="579.1296,-177.6606 588.3183,-172.3862 577.846,-170.7793 579.1296,-177.6606"/>
</g>
<!-- 4 -->
<g id="node5" class="node">
<title>4</title>
<path fill="none" stroke="#56d89a" stroke-width="2" d="M623.5,-252C623.5,-252 414.5,-252 414.5,-252 408.5,-252 402.5,-246 402.5,-240 402.5,-240 402.5,-228 402.5,-228 402.5,-222 408.5,-216 414.5,-216 414.5,-216 623.5,-216 623.5,-216 629.5,-216 635.5,-222 635.5,-228 635.5,-228 635.5,-240 635.5,-240 635.5,-246 629.5,-252 623.5,-252"/>
<text text-anchor="middle" x="519" y="-231.5" font-family="sans" font-size="10.00" fill="#000000">Retrieve_Sequence_With_Highest_Similarity</text>
</g>
<!-- 4&#45;&gt;2 -->
<g id="edge4" class="edge">
<title>4&#45;&gt;2</title>
<path fill="none" stroke="#c0c0c0" stroke-width="2" d="M550.5428,-215.8314C566.6791,-206.5368 586.4986,-195.1208 603.7272,-185.1971"/>
<polygon fill="#c0c0c0" stroke="#c0c0c0" stroke-width="2" points="605.5489,-188.187 612.4673,-180.1628 602.055,-182.1212 605.5489,-188.187"/>
</g>
<!-- 5 -->
<g id="node6" class="node">
<title>5</title>
<path fill="none" stroke="#56d89a" stroke-width="2" d="M874.5,-252C874.5,-252 665.5,-252 665.5,-252 659.5,-252 653.5,-246 653.5,-240 653.5,-240 653.5,-228 653.5,-228 653.5,-222 659.5,-216 665.5,-216 665.5,-216 874.5,-216 874.5,-216 880.5,-216 886.5,-222 886.5,-228 886.5,-228 886.5,-240 886.5,-240 886.5,-246 880.5,-252 874.5,-252"/>
<text text-anchor="middle" x="770" y="-231.5" font-family="sans" font-size="10.00" fill="#000000">Retrieve_Sequence_With_Highest_Similarity</text>
</g>
<!-- 5&#45;&gt;2 -->
<g id="edge5" class="edge">
<title>5&#45;&gt;2</title>
<path fill="none" stroke="#c0c0c0" stroke-width="2" d="M738.2049,-215.8314C721.9395,-206.5368 701.9614,-195.1208 684.5949,-185.1971"/>
<polygon fill="#c0c0c0" stroke="#c0c0c0" stroke-width="2" points="686.2039,-182.0854 675.7849,-180.1628 682.7309,-188.1631 686.2039,-182.0854"/>
</g>
<!-- 6 -->
<g id="node7" class="node">
<title>6</title>
<path fill="none" stroke="#56d89a" stroke-width="2" d="M1130.5,-252C1130.5,-252 921.5,-252 921.5,-252 915.5,-252 909.5,-246 909.5,-240 909.5,-240 909.5,-228 909.5,-228 909.5,-222 915.5,-216 921.5,-216 921.5,-216 1130.5,-216 1130.5,-216 1136.5,-216 1142.5,-222 1142.5,-228 1142.5,-228 1142.5,-240 1142.5,-240 1142.5,-246 1136.5,-252 1130.5,-252"/>
<text text-anchor="middle" x="1026" y="-231.5" font-family="sans" font-size="10.00" fill="#000000">Retrieve_Sequence_With_Highest_Similarity</text>
</g>
<!-- 6&#45;&gt;2 -->
<g id="edge6" class="edge">
<title>6&#45;&gt;2</title>
<path fill="none" stroke="#c0c0c0" stroke-width="2" d="M930.0983,-215.9243C861.2213,-202.9422 770.1929,-185.785 709.4992,-174.3454"/>
<polygon fill="#c0c0c0" stroke="#c0c0c0" stroke-width="2" points="710.1291,-170.9026 699.6538,-172.4897 708.8325,-177.7815 710.1291,-170.9026"/>
</g>
<!-- 7 -->
<g id="node8" class="node">
<title>7</title>
<path fill="none" stroke="#56d86b" stroke-width="2" d="M329.5,-324C329.5,-324 182.5,-324 182.5,-324 176.5,-324 170.5,-318 170.5,-312 170.5,-312 170.5,-300 170.5,-300 170.5,-294 176.5,-288 182.5,-288 182.5,-288 329.5,-288 329.5,-288 335.5,-288 341.5,-294 341.5,-300 341.5,-300 341.5,-312 341.5,-312 341.5,-318 335.5,-324 329.5,-324"/>
<text text-anchor="middle" x="256" y="-303.5" font-family="sans" font-size="10.00" fill="#000000">Retrieve_Sequence_Similarities</text>
</g>
<!-- 7&#45;&gt;3 -->
<g id="edge7" class="edge">
<title>7&#45;&gt;3</title>
<path fill="none" stroke="#c0c0c0" stroke-width="2" d="M256.5047,-287.8314C256.7186,-280.131 256.9729,-270.9743 257.2106,-262.4166"/>
<polygon fill="#c0c0c0" stroke="#c0c0c0" stroke-width="2" points="260.7094,-262.5066 257.4885,-252.4133 253.7121,-262.3122 260.7094,-262.5066"/>
</g>
<!-- 8 -->
<g id="node9" class="node">
<title>8</title>
<path fill="none" stroke="#56d86b" stroke-width="2" d="M592.5,-324C592.5,-324 445.5,-324 445.5,-324 439.5,-324 433.5,-318 433.5,-312 433.5,-312 433.5,-300 433.5,-300 433.5,-294 439.5,-288 445.5,-288 445.5,-288 592.5,-288 592.5,-288 598.5,-288 604.5,-294 604.5,-300 604.5,-300 604.5,-312 604.5,-312 604.5,-318 598.5,-324 592.5,-324"/>
<text text-anchor="middle" x="519" y="-303.5" font-family="sans" font-size="10.00" fill="#000000">Retrieve_Sequence_Similarities</text>
</g>
<!-- 8&#45;&gt;4 -->
<g id="edge8" class="edge">
<title>8&#45;&gt;4</title>
<path fill="none" stroke="#c0c0c0" stroke-width="2" d="M519,-287.8314C519,-280.131 519,-270.9743 519,-262.4166"/>
<polygon fill="#c0c0c0" stroke="#c0c0c0" stroke-width="2" points="522.5001,-262.4132 519,-252.4133 515.5001,-262.4133 522.5001,-262.4132"/>
</g>
<!-- 9 -->
<g id="node10" class="node">
<title>9</title>
<path fill="none" stroke="#56d86b" stroke-width="2" d="M843.5,-324C843.5,-324 696.5,-324 696.5,-324 690.5,-324 684.5,-318 684.5,-312 684.5,-312 684.5,-300 684.5,-300 684.5,-294 690.5,-288 696.5,-288 696.5,-288 843.5,-288 843.5,-288 849.5,-288 855.5,-294 855.5,-300 855.5,-300 855.5,-312 855.5,-312 855.5,-318 849.5,-324 843.5,-324"/>
<text text-anchor="middle" x="770" y="-303.5" font-family="sans" font-size="10.00" fill="#000000">Retrieve_Sequence_Similarities</text>
</g>
<!-- 9&#45;&gt;5 -->
<g id="edge9" class="edge">
<title>9&#45;&gt;5</title>
<path fill="none" stroke="#c0c0c0" stroke-width="2" d="M770,-287.8314C770,-280.131 770,-270.9743 770,-262.4166"/>
<polygon fill="#c0c0c0" stroke="#c0c0c0" stroke-width="2" points="773.5001,-262.4132 770,-252.4133 766.5001,-262.4133 773.5001,-262.4132"/>
</g>
<!-- 10 -->
<g id="node11" class="node">
<title>10</title>
<path fill="none" stroke="#56d86b" stroke-width="2" d="M1100.5,-324C1100.5,-324 953.5,-324 953.5,-324 947.5,-324 941.5,-318 941.5,-312 941.5,-312 941.5,-300 941.5,-300 941.5,-294 947.5,-288 953.5,-288 953.5,-288 1100.5,-288 1100.5,-288 1106.5,-288 1112.5,-294 1112.5,-300 1112.5,-300 1112.5,-312 1112.5,-312 1112.5,-318 1106.5,-324 1100.5,-324"/>
<text text-anchor="middle" x="1027" y="-303.5" font-family="sans" font-size="10.00" fill="#000000">Retrieve_Sequence_Similarities</text>
</g>
<!-- 10&#45;&gt;6 -->
<g id="edge10" class="edge">
<title>10&#45;&gt;6</title>
<path fill="none" stroke="#c0c0c0" stroke-width="2" d="M1026.7477,-287.8314C1026.6407,-280.131 1026.5135,-270.9743 1026.3947,-262.4166"/>
<polygon fill="#c0c0c0" stroke="#c0c0c0" stroke-width="2" points="1029.8944,-262.3637 1026.2557,-252.4133 1022.8951,-262.4609 1029.8944,-262.3637"/>
</g>
<!-- 11 -->
<g id="node12" class="node">
<title>11</title>
<path fill="none" stroke="#d85656" stroke-width="2" d="M267,-396C267,-396 203,-396 203,-396 197,-396 191,-390 191,-384 191,-384 191,-372 191,-372 191,-366 197,-360 203,-360 203,-360 267,-360 267,-360 273,-360 279,-366 279,-372 279,-372 279,-384 279,-384 279,-390 273,-396 267,-396"/>
<text text-anchor="middle" x="235" y="-375.5" font-family="sans" font-size="10.00" fill="#000000">Merge_Results</text>
</g>
<!-- 11&#45;&gt;7 -->
<g id="edge11" class="edge">
<title>11&#45;&gt;7</title>
<path fill="none" stroke="#c0c0c0" stroke-width="2" d="M240.2992,-359.8314C242.5698,-352.0463 245.2746,-342.7729 247.794,-334.1347"/>
<polygon fill="#c0c0c0" stroke="#c0c0c0" stroke-width="2" points="251.1894,-334.9933 250.6295,-324.4133 244.4694,-333.0332 251.1894,-334.9933"/>
</g>
<!-- 12 -->
<g id="node13" class="node">
<title>12</title>
<path fill="none" stroke="#d85656" stroke-width="2" d="M551,-396C551,-396 487,-396 487,-396 481,-396 475,-390 475,-384 475,-384 475,-372 475,-372 475,-366 481,-360 487,-360 487,-360 551,-360 551,-360 557,-360 563,-366 563,-372 563,-372 563,-384 563,-384 563,-390 557,-396 551,-396"/>
<text text-anchor="middle" x="519" y="-375.5" font-family="sans" font-size="10.00" fill="#000000">Merge_Results</text>
</g>
<!-- 12&#45;&gt;8 -->
<g id="edge12" class="edge">
<title>12&#45;&gt;8</title>
<path fill="none" stroke="#c0c0c0" stroke-width="2" d="M519,-359.8314C519,-352.131 519,-342.9743 519,-334.4166"/>
<polygon fill="#c0c0c0" stroke="#c0c0c0" stroke-width="2" points="522.5001,-334.4132 519,-324.4133 515.5001,-334.4133 522.5001,-334.4132"/>
</g>
<!-- 13 -->
<g id="node14" class="node">
<title>13</title>
<path fill="none" stroke="#d85656" stroke-width="2" d="M802,-396C802,-396 738,-396 738,-396 732,-396 726,-390 726,-384 726,-384 726,-372 726,-372 726,-366 732,-360 738,-360 738,-360 802,-360 802,-360 808,-360 814,-366 814,-372 814,-372 814,-384 814,-384 814,-390 808,-396 802,-396"/>
<text text-anchor="middle" x="770" y="-375.5" font-family="sans" font-size="10.00" fill="#000000">Merge_Results</text>
</g>
<!-- 13&#45;&gt;9 -->
<g id="edge13" class="edge">
<title>13&#45;&gt;9</title>
<path fill="none" stroke="#c0c0c0" stroke-width="2" d="M770,-359.8314C770,-352.131 770,-342.9743 770,-334.4166"/>
<polygon fill="#c0c0c0" stroke="#c0c0c0" stroke-width="2" points="773.5001,-334.4132 770,-324.4133 766.5001,-334.4133 773.5001,-334.4132"/>
</g>
<!-- 14 -->
<g id="node15" class="node">
<title>14</title>
<path fill="none" stroke="#d85656" stroke-width="2" d="M1062,-396C1062,-396 998,-396 998,-396 992,-396 986,-390 986,-384 986,-384 986,-372 986,-372 986,-366 992,-360 998,-360 998,-360 1062,-360 1062,-360 1068,-360 1074,-366 1074,-372 1074,-372 1074,-384 1074,-384 1074,-390 1068,-396 1062,-396"/>
<text text-anchor="middle" x="1030" y="-375.5" font-family="sans" font-size="10.00" fill="#000000">Merge_Results</text>
</g>
<!-- 14&#45;&gt;10 -->
<g id="edge14" class="edge">
<title>14&#45;&gt;10</title>
<path fill="none" stroke="#c0c0c0" stroke-width="2" d="M1029.243,-359.8314C1028.9221,-352.131 1028.5406,-342.9743 1028.184,-334.4166"/>
<polygon fill="#c0c0c0" stroke="#c0c0c0" stroke-width="2" points="1031.6806,-334.2589 1027.7672,-324.4133 1024.6867,-334.5503 1031.6806,-334.2589"/>
</g>
<!-- 15 -->
<g id="node16" class="node">
<title>15</title>
<path fill="none" stroke="#70d856" stroke-width="2" d="M140,-468C140,-468 12,-468 12,-468 6,-468 0,-462 0,-456 0,-456 0,-444 0,-444 0,-438 6,-432 12,-432 12,-432 140,-432 140,-432 146,-432 152,-438 152,-444 152,-444 152,-456 152,-456 152,-462 146,-468 140,-468"/>
<text text-anchor="middle" x="76" y="-447.5" font-family="sans" font-size="10.00" fill="#000000">Build_Exonerate_Alignment</text>
</g>
<!-- 15&#45;&gt;11 -->
<g id="edge15" class="edge">
<title>15&#45;&gt;11</title>
<path fill="none" stroke="#c0c0c0" stroke-width="2" d="M116.1224,-431.8314C137.2932,-422.2446 163.4483,-410.4008 185.8303,-400.2655"/>
<polygon fill="#c0c0c0" stroke="#c0c0c0" stroke-width="2" points="187.5003,-403.3515 195.1661,-396.038 184.6128,-396.9748 187.5003,-403.3515"/>
</g>
<!-- 16 -->
<g id="node17" class="node">
<title>16</title>
<path fill="none" stroke="#56d8c9" stroke-width="2" d="M287.5,-468C287.5,-468 182.5,-468 182.5,-468 176.5,-468 170.5,-462 170.5,-456 170.5,-456 170.5,-444 170.5,-444 170.5,-438 176.5,-432 182.5,-432 182.5,-432 287.5,-432 287.5,-432 293.5,-432 299.5,-438 299.5,-444 299.5,-444 299.5,-456 299.5,-456 299.5,-462 293.5,-468 287.5,-468"/>
<text text-anchor="middle" x="235" y="-447.5" font-family="sans" font-size="10.00" fill="#000000">Build_Spaln_Alignment</text>
</g>
<!-- 16&#45;&gt;11 -->
<g id="edge16" class="edge">
<title>16&#45;&gt;11</title>
<path fill="none" stroke="#c0c0c0" stroke-width="2" d="M235,-431.8314C235,-424.131 235,-414.9743 235,-406.4166"/>
<polygon fill="#c0c0c0" stroke="#c0c0c0" stroke-width="2" points="238.5001,-406.4132 235,-396.4133 231.5001,-406.4133 238.5001,-406.4132"/>
</g>
<!-- 17 -->
<g id="node18" class="node">
<title>17</title>
<path fill="none" stroke="#70d856" stroke-width="2" d="M458,-468C458,-468 330,-468 330,-468 324,-468 318,-462 318,-456 318,-456 318,-444 318,-444 318,-438 324,-432 330,-432 330,-432 458,-432 458,-432 464,-432 470,-438 470,-444 470,-444 470,-456 470,-456 470,-462 464,-468 458,-468"/>
<text text-anchor="middle" x="394" y="-447.5" font-family="sans" font-size="10.00" fill="#000000">Build_Exonerate_Alignment</text>
</g>
<!-- 17&#45;&gt;12 -->
<g id="edge17" class="edge">
<title>17&#45;&gt;12</title>
<path fill="none" stroke="#c0c0c0" stroke-width="2" d="M425.5428,-431.8314C441.6791,-422.5368 461.4986,-411.1208 478.7272,-401.1971"/>
<polygon fill="#c0c0c0" stroke="#c0c0c0" stroke-width="2" points="480.5489,-404.187 487.4673,-396.1628 477.055,-398.1212 480.5489,-404.187"/>
</g>
<!-- 18 -->
<g id="node19" class="node">
<title>18</title>
<path fill="none" stroke="#56d8c9" stroke-width="2" d="M605.5,-468C605.5,-468 500.5,-468 500.5,-468 494.5,-468 488.5,-462 488.5,-456 488.5,-456 488.5,-444 488.5,-444 488.5,-438 494.5,-432 500.5,-432 500.5,-432 605.5,-432 605.5,-432 611.5,-432 617.5,-438 617.5,-444 617.5,-444 617.5,-456 617.5,-456 617.5,-462 611.5,-468 605.5,-468"/>
<text text-anchor="middle" x="553" y="-447.5" font-family="sans" font-size="10.00" fill="#000000">Build_Spaln_Alignment</text>
</g>
<!-- 18&#45;&gt;12 -->
<g id="edge18" class="edge">
<title>18&#45;&gt;12</title>
<path fill="none" stroke="#c0c0c0" stroke-width="2" d="M544.4204,-431.8314C540.6642,-423.8771 536.1743,-414.369 532.0202,-405.5723"/>
<polygon fill="#c0c0c0" stroke="#c0c0c0" stroke-width="2" points="535.1301,-403.9612 527.6952,-396.4133 528.8004,-406.9503 535.1301,-403.9612"/>
</g>
<!-- 19 -->
<g id="node20" class="node">
<title>19</title>
<path fill="none" stroke="#70d856" stroke-width="2" d="M776,-468C776,-468 648,-468 648,-468 642,-468 636,-462 636,-456 636,-456 636,-444 636,-444 636,-438 642,-432 648,-432 648,-432 776,-432 776,-432 782,-432 788,-438 788,-444 788,-444 788,-456 788,-456 788,-462 782,-468 776,-468"/>
<text text-anchor="middle" x="712" y="-447.5" font-family="sans" font-size="10.00" fill="#000000">Build_Exonerate_Alignment</text>
</g>
<!-- 19&#45;&gt;13 -->
<g id="edge19" class="edge">
<title>19&#45;&gt;13</title>
<path fill="none" stroke="#c0c0c0" stroke-width="2" d="M726.6358,-431.8314C733.3161,-423.5386 741.3568,-413.557 748.6904,-404.4533"/>
<polygon fill="#c0c0c0" stroke="#c0c0c0" stroke-width="2" points="751.6194,-406.3965 755.1671,-396.4133 746.1681,-402.0052 751.6194,-406.3965"/>
</g>
<!-- 20 -->
<g id="node21" class="node">
<title>20</title>
<path fill="none" stroke="#56d8c9" stroke-width="2" d="M923.5,-468C923.5,-468 818.5,-468 818.5,-468 812.5,-468 806.5,-462 806.5,-456 806.5,-456 806.5,-444 806.5,-444 806.5,-438 812.5,-432 818.5,-432 818.5,-432 923.5,-432 923.5,-432 929.5,-432 935.5,-438 935.5,-444 935.5,-444 935.5,-456 935.5,-456 935.5,-462 929.5,-468 923.5,-468"/>
<text text-anchor="middle" x="871" y="-447.5" font-family="sans" font-size="10.00" fill="#000000">Build_Spaln_Alignment</text>
</g>
<!-- 20&#45;&gt;13 -->
<g id="edge20" class="edge">
<title>20&#45;&gt;13</title>
<path fill="none" stroke="#c0c0c0" stroke-width="2" d="M845.5134,-431.8314C832.8341,-422.7927 817.3404,-411.7476 803.6945,-402.0198"/>
<polygon fill="#c0c0c0" stroke="#c0c0c0" stroke-width="2" points="805.6529,-399.1176 795.4784,-396.1628 801.5895,-404.8176 805.6529,-399.1176"/>
</g>
<!-- 21 -->
<g id="node22" class="node">
<title>21</title>
<path fill="none" stroke="#70d856" stroke-width="2" d="M1094,-468C1094,-468 966,-468 966,-468 960,-468 954,-462 954,-456 954,-456 954,-444 954,-444 954,-438 960,-432 966,-432 966,-432 1094,-432 1094,-432 1100,-432 1106,-438 1106,-444 1106,-444 1106,-456 1106,-456 1106,-462 1100,-468 1094,-468"/>
<text text-anchor="middle" x="1030" y="-447.5" font-family="sans" font-size="10.00" fill="#000000">Build_Exonerate_Alignment</text>
</g>
<!-- 21&#45;&gt;14 -->
<g id="edge21" class="edge">
<title>21&#45;&gt;14</title>
<path fill="none" stroke="#c0c0c0" stroke-width="2" d="M1030,-431.8314C1030,-424.131 1030,-414.9743 1030,-406.4166"/>
<polygon fill="#c0c0c0" stroke="#c0c0c0" stroke-width="2" points="1033.5001,-406.4132 1030,-396.4133 1026.5001,-406.4133 1033.5001,-406.4132"/>
</g>
<!-- 22 -->
<g id="node23" class="node">
<title>22</title>
<path fill="none" stroke="#56d8c9" stroke-width="2" d="M1241.5,-468C1241.5,-468 1136.5,-468 1136.5,-468 1130.5,-468 1124.5,-462 1124.5,-456 1124.5,-456 1124.5,-444 1124.5,-444 1124.5,-438 1130.5,-432 1136.5,-432 1136.5,-432 1241.5,-432 1241.5,-432 1247.5,-432 1253.5,-438 1253.5,-444 1253.5,-444 1253.5,-456 1253.5,-456 1253.5,-462 1247.5,-468 1241.5,-468"/>
<text text-anchor="middle" x="1189" y="-447.5" font-family="sans" font-size="10.00" fill="#000000">Build_Spaln_Alignment</text>
</g>
<!-- 22&#45;&gt;14 -->
<g id="edge22" class="edge">
<title>22&#45;&gt;14</title>
<path fill="none" stroke="#c0c0c0" stroke-width="2" d="M1148.8776,-431.8314C1127.7068,-422.2446 1101.5517,-410.4008 1079.1697,-400.2655"/>
<polygon fill="#c0c0c0" stroke="#c0c0c0" stroke-width="2" points="1080.3872,-396.9748 1069.8339,-396.038 1077.4997,-403.3515 1080.3872,-396.9748"/>
</g>
<!-- 23 -->
<g id="node24" class="node">
<title>23</title>
<path fill="none" stroke="#d88556" stroke-width="2" d="M294,-540C294,-540 166,-540 166,-540 160,-540 154,-534 154,-528 154,-528 154,-516 154,-516 154,-510 160,-504 166,-504 166,-504 294,-504 294,-504 300,-504 306,-510 306,-516 306,-516 306,-528 306,-528 306,-534 300,-540 294,-540"/>
<text text-anchor="middle" x="230" y="-519.5" font-family="sans" font-size="10.00" fill="#000000">Filter_Out_Useless_Regions</text>
</g>
<!-- 23&#45;&gt;15 -->
<g id="edge23" class="edge">
<title>23&#45;&gt;15</title>
<path fill="none" stroke="#c0c0c0" stroke-width="2" d="M191.1393,-503.8314C170.7258,-494.2874 145.5277,-482.5065 123.914,-472.4013"/>
<polygon fill="#c0c0c0" stroke="#c0c0c0" stroke-width="2" points="125.1225,-469.1027 114.5813,-468.038 122.1577,-475.4439 125.1225,-469.1027"/>
</g>
<!-- 23&#45;&gt;16 -->
<g id="edge24" class="edge">
<title>23&#45;&gt;16</title>
<path fill="none" stroke="#c0c0c0" stroke-width="2" d="M231.2617,-503.8314C231.7965,-496.131 232.4323,-486.9743 233.0266,-478.4166"/>
<polygon fill="#c0c0c0" stroke="#c0c0c0" stroke-width="2" points="236.52,-478.6317 233.7213,-468.4133 229.5368,-478.1467 236.52,-478.6317"/>
</g>
<!-- 24 -->
<g id="node25" class="node">
<title>24</title>
<path fill="none" stroke="#d88556" stroke-width="2" d="M464,-540C464,-540 336,-540 336,-540 330,-540 324,-534 324,-528 324,-528 324,-516 324,-516 324,-510 330,-504 336,-504 336,-504 464,-504 464,-504 470,-504 476,-510 476,-516 476,-516 476,-528 476,-528 476,-534 470,-540 464,-540"/>
<text text-anchor="middle" x="400" y="-519.5" font-family="sans" font-size="10.00" fill="#000000">Filter_Out_Useless_Regions</text>
</g>
<!-- 24&#45;&gt;17 -->
<g id="edge25" class="edge">
<title>24&#45;&gt;17</title>
<path fill="none" stroke="#c0c0c0" stroke-width="2" d="M398.4859,-503.8314C397.8442,-496.131 397.0812,-486.9743 396.3681,-478.4166"/>
<polygon fill="#c0c0c0" stroke="#c0c0c0" stroke-width="2" points="399.8529,-478.088 395.5344,-468.4133 392.8771,-478.6694 399.8529,-478.088"/>
</g>
<!-- 24&#45;&gt;18 -->
<g id="edge26" class="edge">
<title>24&#45;&gt;18</title>
<path fill="none" stroke="#c0c0c0" stroke-width="2" d="M438.6084,-503.8314C458.8893,-494.2874 483.9238,-482.5065 505.3971,-472.4013"/>
<polygon fill="#c0c0c0" stroke="#c0c0c0" stroke-width="2" points="507.1114,-475.4629 514.6693,-468.038 504.1308,-469.1291 507.1114,-475.4629"/>
</g>
<!-- 25 -->
<g id="node26" class="node">
<title>25</title>
<path fill="none" stroke="#d88556" stroke-width="2" d="M929,-540C929,-540 801,-540 801,-540 795,-540 789,-534 789,-528 789,-528 789,-516 789,-516 789,-510 795,-504 801,-504 801,-504 929,-504 929,-504 935,-504 941,-510 941,-516 941,-516 941,-528 941,-528 941,-534 935,-540 929,-540"/>
<text text-anchor="middle" x="865" y="-519.5" font-family="sans" font-size="10.00" fill="#000000">Filter_Out_Useless_Regions</text>
</g>
<!-- 25&#45;&gt;19 -->
<g id="edge27" class="edge">
<title>25&#45;&gt;19</title>
<path fill="none" stroke="#c0c0c0" stroke-width="2" d="M826.3916,-503.8314C806.1107,-494.2874 781.0762,-482.5065 759.6029,-472.4013"/>
<polygon fill="#c0c0c0" stroke="#c0c0c0" stroke-width="2" points="760.8692,-469.1291 750.3307,-468.038 757.8886,-475.4629 760.8692,-469.1291"/>
</g>
<!-- 25&#45;&gt;20 -->
<g id="edge28" class="edge">
<title>25&#45;&gt;20</title>
<path fill="none" stroke="#c0c0c0" stroke-width="2" d="M866.5141,-503.8314C867.1558,-496.131 867.9188,-486.9743 868.6319,-478.4166"/>
<polygon fill="#c0c0c0" stroke="#c0c0c0" stroke-width="2" points="872.1229,-478.6694 869.4656,-468.4133 865.1471,-478.088 872.1229,-478.6694"/>
</g>
<!-- 26 -->
<g id="node27" class="node">
<title>26</title>
<path fill="none" stroke="#d88556" stroke-width="2" d="M1099,-540C1099,-540 971,-540 971,-540 965,-540 959,-534 959,-528 959,-528 959,-516 959,-516 959,-510 965,-504 971,-504 971,-504 1099,-504 1099,-504 1105,-504 1111,-510 1111,-516 1111,-516 1111,-528 1111,-528 1111,-534 1105,-540 1099,-540"/>
<text text-anchor="middle" x="1035" y="-519.5" font-family="sans" font-size="10.00" fill="#000000">Filter_Out_Useless_Regions</text>
</g>
<!-- 26&#45;&gt;21 -->
<g id="edge29" class="edge">
<title>26&#45;&gt;21</title>
<path fill="none" stroke="#c0c0c0" stroke-width="2" d="M1033.7383,-503.8314C1033.2035,-496.131 1032.5677,-486.9743 1031.9734,-478.4166"/>
<polygon fill="#c0c0c0" stroke="#c0c0c0" stroke-width="2" points="1035.4632,-478.1467 1031.2787,-468.4133 1028.48,-478.6317 1035.4632,-478.1467"/>
</g>
<!-- 26&#45;&gt;22 -->
<g id="edge30" class="edge">
<title>26&#45;&gt;22</title>
<path fill="none" stroke="#c0c0c0" stroke-width="2" d="M1073.8607,-503.8314C1094.2742,-494.2874 1119.4723,-482.5065 1141.086,-472.4013"/>
<polygon fill="#c0c0c0" stroke="#c0c0c0" stroke-width="2" points="1142.8423,-475.4439 1150.4187,-468.038 1139.8775,-469.1027 1142.8423,-475.4439"/>
</g>
<!-- 27 -->
<g id="node28" class="node">
<title>27</title>
<path fill="none" stroke="#d8b456" stroke-width="2" d="M280.5,-612C280.5,-612 207.5,-612 207.5,-612 201.5,-612 195.5,-606 195.5,-600 195.5,-600 195.5,-588 195.5,-588 195.5,-582 201.5,-576 207.5,-576 207.5,-576 280.5,-576 280.5,-576 286.5,-576 292.5,-582 292.5,-588 292.5,-588 292.5,-600 292.5,-600 292.5,-606 286.5,-612 280.5,-612"/>
<text text-anchor="middle" x="244" y="-597" font-family="sans" font-size="10.00" fill="#000000">Find_Candidates</text>
<text text-anchor="middle" x="244" y="-586" font-family="sans" font-size="10.00" fill="#000000">query: proteins1</text>
</g>
<!-- 27&#45;&gt;23 -->
<g id="edge31" class="edge">
<title>27&#45;&gt;23</title>
<path fill="none" stroke="#c0c0c0" stroke-width="2" d="M240.4672,-575.8314C238.9699,-568.131 237.1895,-558.9743 235.5255,-550.4166"/>
<polygon fill="#c0c0c0" stroke="#c0c0c0" stroke-width="2" points="238.9248,-549.5614 233.5804,-540.4133 232.0535,-550.8975 238.9248,-549.5614"/>
</g>
<!-- 28 -->
<g id="node29" class="node">
<title>28</title>
<path fill="none" stroke="#d8b456" stroke-width="2" d="M409.5,-612C409.5,-612 336.5,-612 336.5,-612 330.5,-612 324.5,-606 324.5,-600 324.5,-600 324.5,-588 324.5,-588 324.5,-582 330.5,-576 336.5,-576 336.5,-576 409.5,-576 409.5,-576 415.5,-576 421.5,-582 421.5,-588 421.5,-588 421.5,-600 421.5,-600 421.5,-606 415.5,-612 409.5,-612"/>
<text text-anchor="middle" x="373" y="-597" font-family="sans" font-size="10.00" fill="#000000">Find_Candidates</text>
<text text-anchor="middle" x="373" y="-586" font-family="sans" font-size="10.00" fill="#000000">query: proteins2</text>
</g>
<!-- 28&#45;&gt;24 -->
<g id="edge32" class="edge">
<title>28&#45;&gt;24</title>
<path fill="none" stroke="#c0c0c0" stroke-width="2" d="M379.8132,-575.8314C382.7644,-567.9617 386.2858,-558.5712 389.555,-549.8533"/>
<polygon fill="#c0c0c0" stroke="#c0c0c0" stroke-width="2" points="392.8609,-551.0055 393.095,-540.4133 386.3066,-548.5476 392.8609,-551.0055"/>
</g>
<!-- 29 -->
<g id="node30" class="node">
<title>29</title>
<path fill="none" stroke="#d8b456" stroke-width="2" d="M915.5,-612C915.5,-612 842.5,-612 842.5,-612 836.5,-612 830.5,-606 830.5,-600 830.5,-600 830.5,-588 830.5,-588 830.5,-582 836.5,-576 842.5,-576 842.5,-576 915.5,-576 915.5,-576 921.5,-576 927.5,-582 927.5,-588 927.5,-588 927.5,-600 927.5,-600 927.5,-606 921.5,-612 915.5,-612"/>
<text text-anchor="middle" x="879" y="-597" font-family="sans" font-size="10.00" fill="#000000">Find_Candidates</text>
<text text-anchor="middle" x="879" y="-586" font-family="sans" font-size="10.00" fill="#000000">query: proteins1</text>
</g>
<!-- 29&#45;&gt;25 -->
<g id="edge33" class="edge">
<title>29&#45;&gt;25</title>
<path fill="none" stroke="#c0c0c0" stroke-width="2" d="M875.4672,-575.8314C873.9699,-568.131 872.1895,-558.9743 870.5255,-550.4166"/>
<polygon fill="#c0c0c0" stroke="#c0c0c0" stroke-width="2" points="873.9248,-549.5614 868.5804,-540.4133 867.0535,-550.8975 873.9248,-549.5614"/>
</g>
<!-- 30 -->
<g id="node31" class="node">
<title>30</title>
<path fill="none" stroke="#d8b456" stroke-width="2" d="M1057.5,-612C1057.5,-612 984.5,-612 984.5,-612 978.5,-612 972.5,-606 972.5,-600 972.5,-600 972.5,-588 972.5,-588 972.5,-582 978.5,-576 984.5,-576 984.5,-576 1057.5,-576 1057.5,-576 1063.5,-576 1069.5,-582 1069.5,-588 1069.5,-588 1069.5,-600 1069.5,-600 1069.5,-606 1063.5,-612 1057.5,-612"/>
<text text-anchor="middle" x="1021" y="-597" font-family="sans" font-size="10.00" fill="#000000">Find_Candidates</text>
<text text-anchor="middle" x="1021" y="-586" font-family="sans" font-size="10.00" fill="#000000">query: proteins2</text>
</g>
<!-- 30&#45;&gt;26 -->
<g id="edge34" class="edge">
<title>30&#45;&gt;26</title>
<path fill="none" stroke="#c0c0c0" stroke-width="2" d="M1024.5328,-575.8314C1026.0301,-568.131 1027.8105,-558.9743 1029.4745,-550.4166"/>
<polygon fill="#c0c0c0" stroke="#c0c0c0" stroke-width="2" points="1032.9465,-550.8975 1031.4196,-540.4133 1026.0752,-549.5614 1032.9465,-550.8975"/>
</g>
<!-- 31 -->
<g id="node32" class="node">
<title>31</title>
<path fill="none" stroke="#ced856" stroke-width="2" d="M359.5,-684C359.5,-684 258.5,-684 258.5,-684 252.5,-684 246.5,-678 246.5,-672 246.5,-672 246.5,-660 246.5,-660 246.5,-654 252.5,-648 258.5,-648 258.5,-648 359.5,-648 359.5,-648 365.5,-648 371.5,-654 371.5,-660 371.5,-660 371.5,-672 371.5,-672 371.5,-678 365.5,-684 359.5,-684"/>
<text text-anchor="middle" x="309" y="-669" font-family="sans" font-size="10.00" fill="#000000">Build_DNA_Databases</text>
<text text-anchor="middle" x="309" y="-658" font-family="sans" font-size="10.00" fill="#000000">subject: genome1</text>
</g>
<!-- 31&#45;&gt;27 -->
<g id="edge35" class="edge">
<title>31&#45;&gt;27</title>
<path fill="none" stroke="#c0c0c0" stroke-width="2" d="M292.5978,-647.8314C284.9585,-639.3694 275.7317,-629.1489 267.3793,-619.8971"/>
<polygon fill="#c0c0c0" stroke="#c0c0c0" stroke-width="2" points="269.9221,-617.4906 260.6231,-612.4133 264.7262,-622.1813 269.9221,-617.4906"/>
</g>
<!-- 31&#45;&gt;28 -->
<g id="edge36" class="edge">
<title>31&#45;&gt;28</title>
<path fill="none" stroke="#c0c0c0" stroke-width="2" d="M325.1499,-647.8314C332.6717,-639.3694 341.7565,-629.1489 349.9804,-619.8971"/>
<polygon fill="#c0c0c0" stroke="#c0c0c0" stroke-width="2" points="352.6049,-622.2127 356.6327,-612.4133 347.373,-617.5621 352.6049,-622.2127"/>
</g>
<!-- 32 -->
<g id="node33" class="node">
<title>32</title>
<path fill="none" stroke="#ced856" stroke-width="2" d="M1000.5,-684C1000.5,-684 899.5,-684 899.5,-684 893.5,-684 887.5,-678 887.5,-672 887.5,-672 887.5,-660 887.5,-660 887.5,-654 893.5,-648 899.5,-648 899.5,-648 1000.5,-648 1000.5,-648 1006.5,-648 1012.5,-654 1012.5,-660 1012.5,-660 1012.5,-672 1012.5,-672 1012.5,-678 1006.5,-684 1000.5,-684"/>
<text text-anchor="middle" x="950" y="-669" font-family="sans" font-size="10.00" fill="#000000">Build_DNA_Databases</text>
<text text-anchor="middle" x="950" y="-658" font-family="sans" font-size="10.00" fill="#000000">subject: genome2</text>
</g>
<!-- 32&#45;&gt;29 -->
<g id="edge37" class="edge">
<title>32&#45;&gt;29</title>
<path fill="none" stroke="#c0c0c0" stroke-width="2" d="M932.0837,-647.8314C923.6558,-639.2848 913.459,-628.9443 904.264,-619.6198"/>
<polygon fill="#c0c0c0" stroke="#c0c0c0" stroke-width="2" points="906.6711,-617.0761 897.1575,-612.4133 901.6869,-621.9912 906.6711,-617.0761"/>
</g>
<!-- 32&#45;&gt;30 -->
<g id="edge38" class="edge">
<title>32&#45;&gt;30</title>
<path fill="none" stroke="#c0c0c0" stroke-width="2" d="M967.9163,-647.8314C976.3442,-639.2848 986.541,-628.9443 995.736,-619.6198"/>
<polygon fill="#c0c0c0" stroke="#c0c0c0" stroke-width="2" points="998.3131,-621.9912 1002.8425,-612.4133 993.3289,-617.0761 998.3131,-621.9912"/>
</g>
</g>
</svg>
