<?xml version="1.0" encoding="UTF-8" standalone="no"?>
<!DOCTYPE svg PUBLIC "-//W3C//DTD SVG 1.1//EN"
 "http://www.w3.org/Graphics/SVG/1.1/DTD/svg11.dtd">
<!-- Generated by graphviz version 2.40.1 (20161225.0304)
 -->
<!-- Title: snakemake_dag Pages: 1 -->
<svg width="856pt" height="692pt"
 viewBox="0.00 0.00 856.00 692.00" xmlns="http://www.w3.org/2000/svg" xmlns:xlink="http://www.w3.org/1999/xlink">
<g id="graph0" class="graph" transform="scale(1 1) rotate(0) translate(4 688)">
<title>snakemake_dag</title>
<polygon fill="#ffffff" stroke="transparent" points="-4,4 -4,-688 852,-688 852,4 -4,4"/>
<!-- 0 -->
<g id="node1" class="node">
<title>0</title>
<path fill="none" stroke="#c6d856" stroke-width="2" d="M423.5,-36C423.5,-36 393.5,-36 393.5,-36 387.5,-36 381.5,-30 381.5,-24 381.5,-24 381.5,-12 381.5,-12 381.5,-6 387.5,0 393.5,0 393.5,0 423.5,0 423.5,0 429.5,0 435.5,-6 435.5,-12 435.5,-12 435.5,-24 435.5,-24 435.5,-30 429.5,-36 423.5,-36"/>
<text text-anchor="middle" x="408.5" y="-15.5" font-family="sans" font-size="10.00" fill="#000000">finish</text>
</g>
<!-- 1 -->
<g id="node2" class="node">
<title>1</title>
<path fill="none" stroke="#78d856" stroke-width="2" d="M179,-108C179,-108 12,-108 12,-108 6,-108 0,-102 0,-96 0,-96 0,-84 0,-84 0,-78 6,-72 12,-72 12,-72 179,-72 179,-72 185,-72 191,-78 191,-84 191,-84 191,-96 191,-96 191,-102 185,-108 179,-108"/>
<text text-anchor="middle" x="95.5" y="-87.5" font-family="sans" font-size="10.00" fill="#000000">Visualize_Results_Above_Threshold</text>
</g>
<!-- 1&#45;&gt;0 -->
<g id="edge1" class="edge">
<title>1&#45;&gt;0</title>
<path fill="none" stroke="#c0c0c0" stroke-width="2" d="M174.0791,-71.9243C237.176,-57.41 322.9603,-37.6769 371.3311,-26.55"/>
<polygon fill="#c0c0c0" stroke="#c0c0c0" stroke-width="2" points="372.3898,-29.898 381.3507,-24.2452 370.8205,-23.0761 372.3898,-29.898"/>
</g>
<!-- 2 -->
<g id="node3" class="node">
<title>2</title>
<path fill="none" stroke="#78d856" stroke-width="2" d="M597,-108C597,-108 430,-108 430,-108 424,-108 418,-102 418,-96 418,-96 418,-84 418,-84 418,-78 424,-72 430,-72 430,-72 597,-72 597,-72 603,-72 609,-78 609,-84 609,-84 609,-96 609,-96 609,-102 603,-108 597,-108"/>
<text text-anchor="middle" x="513.5" y="-87.5" font-family="sans" font-size="10.00" fill="#000000">Visualize_Results_Above_Threshold</text>
</g>
<!-- 2&#45;&gt;0 -->
<g id="edge2" class="edge">
<title>2&#45;&gt;0</title>
<path fill="none" stroke="#c0c0c0" stroke-width="2" d="M487.0041,-71.8314C473.8226,-62.7927 457.7153,-51.7476 443.5289,-42.0198"/>
<polygon fill="#c0c0c0" stroke="#c0c0c0" stroke-width="2" points="445.2141,-38.9316 434.9875,-36.1628 441.2554,-44.7047 445.2141,-38.9316"/>
</g>
<!-- 3 -->
<g id="node4" class="node">
<title>3</title>
<path fill="none" stroke="#567bd8" stroke-width="2" d="M388,-108C388,-108 221,-108 221,-108 215,-108 209,-102 209,-96 209,-96 209,-84 209,-84 209,-78 215,-72 221,-72 221,-72 388,-72 388,-72 394,-72 400,-78 400,-84 400,-84 400,-96 400,-96 400,-102 394,-108 388,-108"/>
<text text-anchor="middle" x="304.5" y="-87.5" font-family="sans" font-size="10.00" fill="#000000">Visualize_Results_Below_Threshold</text>
</g>
<!-- 3&#45;&gt;0 -->
<g id="edge3" class="edge">
<title>3&#45;&gt;0</title>
<path fill="none" stroke="#c0c0c0" stroke-width="2" d="M330.7436,-71.8314C343.7995,-62.7927 359.7535,-51.7476 373.8047,-42.0198"/>
<polygon fill="#c0c0c0" stroke="#c0c0c0" stroke-width="2" points="376.0351,-44.7326 382.2648,-36.1628 372.0506,-38.9773 376.0351,-44.7326"/>
</g>
<!-- 4 -->
<g id="node5" class="node">
<title>4</title>
<path fill="none" stroke="#567bd8" stroke-width="2" d="M806,-108C806,-108 639,-108 639,-108 633,-108 627,-102 627,-96 627,-96 627,-84 627,-84 627,-78 633,-72 639,-72 639,-72 806,-72 806,-72 812,-72 818,-78 818,-84 818,-84 818,-96 818,-96 818,-102 812,-108 806,-108"/>
<text text-anchor="middle" x="722.5" y="-87.5" font-family="sans" font-size="10.00" fill="#000000">Visualize_Results_Below_Threshold</text>
</g>
<!-- 4&#45;&gt;0 -->
<g id="edge4" class="edge">
<title>4&#45;&gt;0</title>
<path fill="none" stroke="#c0c0c0" stroke-width="2" d="M643.6698,-71.9243C580.3714,-57.41 494.313,-37.6769 445.7877,-26.55"/>
<polygon fill="#c0c0c0" stroke="#c0c0c0" stroke-width="2" points="446.2654,-23.0688 435.7361,-24.2452 444.7008,-29.8917 446.2654,-23.0688"/>
</g>
<!-- 5 -->
<g id="node6" class="node">
<title>5</title>
<path fill="none" stroke="#d87d56" stroke-width="2" d="M236,-180C236,-180 161,-180 161,-180 155,-180 149,-174 149,-168 149,-168 149,-156 149,-156 149,-150 155,-144 161,-144 161,-144 236,-144 236,-144 242,-144 248,-150 248,-156 248,-156 248,-168 248,-168 248,-174 242,-180 236,-180"/>
<text text-anchor="middle" x="198.5" y="-159.5" font-family="sans" font-size="10.00" fill="#000000">Filter_Sequences</text>
</g>
<!-- 5&#45;&gt;1 -->
<g id="edge5" class="edge">
<title>5&#45;&gt;1</title>
<path fill="none" stroke="#c0c0c0" stroke-width="2" d="M172.5088,-143.8314C159.5784,-134.7927 143.7778,-123.7476 129.8617,-114.0198"/>
<polygon fill="#c0c0c0" stroke="#c0c0c0" stroke-width="2" points="131.6843,-111.0235 121.4829,-108.1628 127.6737,-116.7608 131.6843,-111.0235"/>
</g>
<!-- 5&#45;&gt;3 -->
<g id="edge7" class="edge">
<title>5&#45;&gt;3</title>
<path fill="none" stroke="#c0c0c0" stroke-width="2" d="M225.2483,-143.8314C238.5553,-134.7927 254.816,-123.7476 269.1375,-114.0198"/>
<polygon fill="#c0c0c0" stroke="#c0c0c0" stroke-width="2" points="271.4547,-116.677 277.7603,-108.1628 267.5215,-110.8864 271.4547,-116.677"/>
</g>
<!-- 6 -->
<g id="node7" class="node">
<title>6</title>
<path fill="none" stroke="#d87d56" stroke-width="2" d="M630,-180C630,-180 555,-180 555,-180 549,-180 543,-174 543,-168 543,-168 543,-156 543,-156 543,-150 549,-144 555,-144 555,-144 630,-144 630,-144 636,-144 642,-150 642,-156 642,-156 642,-168 642,-168 642,-174 636,-180 630,-180"/>
<text text-anchor="middle" x="592.5" y="-159.5" font-family="sans" font-size="10.00" fill="#000000">Filter_Sequences</text>
</g>
<!-- 6&#45;&gt;2 -->
<g id="edge6" class="edge">
<title>6&#45;&gt;2</title>
<path fill="none" stroke="#c0c0c0" stroke-width="2" d="M572.565,-143.8314C563.0217,-135.1337 551.4401,-124.5783 541.0694,-115.1265"/>
<polygon fill="#c0c0c0" stroke="#c0c0c0" stroke-width="2" points="543.1772,-112.3121 533.4287,-108.1628 538.462,-117.4857 543.1772,-112.3121"/>
</g>
<!-- 6&#45;&gt;4 -->
<g id="edge8" class="edge">
<title>6&#45;&gt;4</title>
<path fill="none" stroke="#c0c0c0" stroke-width="2" d="M625.3045,-143.8314C642.0862,-134.5368 662.6985,-123.1208 680.6163,-113.1971"/>
<polygon fill="#c0c0c0" stroke="#c0c0c0" stroke-width="2" points="682.6538,-116.0696 689.706,-108.1628 679.2623,-109.9461 682.6538,-116.0696"/>
</g>
<!-- 7 -->
<g id="node8" class="node">
<title>7</title>
<path fill="none" stroke="#56c9d8" stroke-width="2" d="M230.5,-252C230.5,-252 166.5,-252 166.5,-252 160.5,-252 154.5,-246 154.5,-240 154.5,-240 154.5,-228 154.5,-228 154.5,-222 160.5,-216 166.5,-216 166.5,-216 230.5,-216 230.5,-216 236.5,-216 242.5,-222 242.5,-228 242.5,-228 242.5,-240 242.5,-240 242.5,-246 236.5,-252 230.5,-252"/>
<text text-anchor="middle" x="198.5" y="-231.5" font-family="sans" font-size="10.00" fill="#000000">Merge_Results</text>
</g>
<!-- 7&#45;&gt;5 -->
<g id="edge9" class="edge">
<title>7&#45;&gt;5</title>
<path fill="none" stroke="#c0c0c0" stroke-width="2" d="M198.5,-215.8314C198.5,-208.131 198.5,-198.9743 198.5,-190.4166"/>
<polygon fill="#c0c0c0" stroke="#c0c0c0" stroke-width="2" points="202.0001,-190.4132 198.5,-180.4133 195.0001,-190.4133 202.0001,-190.4132"/>
</g>
<!-- 8 -->
<g id="node9" class="node">
<title>8</title>
<path fill="none" stroke="#56c9d8" stroke-width="2" d="M624.5,-252C624.5,-252 560.5,-252 560.5,-252 554.5,-252 548.5,-246 548.5,-240 548.5,-240 548.5,-228 548.5,-228 548.5,-222 554.5,-216 560.5,-216 560.5,-216 624.5,-216 624.5,-216 630.5,-216 636.5,-222 636.5,-228 636.5,-228 636.5,-240 636.5,-240 636.5,-246 630.5,-252 624.5,-252"/>
<text text-anchor="middle" x="592.5" y="-231.5" font-family="sans" font-size="10.00" fill="#000000">Merge_Results</text>
</g>
<!-- 8&#45;&gt;6 -->
<g id="edge10" class="edge">
<title>8&#45;&gt;6</title>
<path fill="none" stroke="#c0c0c0" stroke-width="2" d="M592.5,-215.8314C592.5,-208.131 592.5,-198.9743 592.5,-190.4166"/>
<polygon fill="#c0c0c0" stroke="#c0c0c0" stroke-width="2" points="596.0001,-190.4132 592.5,-180.4133 589.0001,-190.4133 596.0001,-190.4132"/>
</g>
<!-- 9 -->
<g id="node10" class="node">
<title>9</title>
<path fill="none" stroke="#56a2d8" stroke-width="2" d="M203,-324C203,-324 34,-324 34,-324 28,-324 22,-318 22,-312 22,-312 22,-300 22,-300 22,-294 28,-288 34,-288 34,-288 203,-288 203,-288 209,-288 215,-294 215,-300 215,-300 215,-312 215,-312 215,-318 209,-324 203,-324"/>
<text text-anchor="middle" x="118.5" y="-303.5" font-family="sans" font-size="10.00" fill="#000000">Calculate_Ex_Sequence_Similarities</text>
</g>
<!-- 9&#45;&gt;7 -->
<g id="edge11" class="edge">
<title>9&#45;&gt;7</title>
<path fill="none" stroke="#c0c0c0" stroke-width="2" d="M138.6874,-287.8314C148.3514,-279.1337 160.0796,-268.5783 170.5816,-259.1265"/>
<polygon fill="#c0c0c0" stroke="#c0c0c0" stroke-width="2" points="173.2275,-261.454 178.3191,-252.1628 168.5447,-256.251 173.2275,-261.454"/>
</g>
<!-- 10 -->
<g id="node11" class="node">
<title>10</title>
<path fill="none" stroke="#56d87b" stroke-width="2" d="M414,-324C414,-324 245,-324 245,-324 239,-324 233,-318 233,-312 233,-312 233,-300 233,-300 233,-294 239,-288 245,-288 245,-288 414,-288 414,-288 420,-288 426,-294 426,-300 426,-300 426,-312 426,-312 426,-318 420,-324 414,-324"/>
<text text-anchor="middle" x="329.5" y="-303.5" font-family="sans" font-size="10.00" fill="#000000">Calculate_Sp_Sequence_Similarities</text>
</g>
<!-- 10&#45;&gt;7 -->
<g id="edge12" class="edge">
<title>10&#45;&gt;7</title>
<path fill="none" stroke="#c0c0c0" stroke-width="2" d="M296.4432,-287.8314C279.5323,-278.5368 258.7615,-267.1208 240.7059,-257.1971"/>
<polygon fill="#c0c0c0" stroke="#c0c0c0" stroke-width="2" points="241.9957,-253.9122 231.5463,-252.1628 238.624,-260.0468 241.9957,-253.9122"/>
</g>
<!-- 11 -->
<g id="node12" class="node">
<title>11</title>
<path fill="none" stroke="#56a2d8" stroke-width="2" d="M625,-324C625,-324 456,-324 456,-324 450,-324 444,-318 444,-312 444,-312 444,-300 444,-300 444,-294 450,-288 456,-288 456,-288 625,-288 625,-288 631,-288 637,-294 637,-300 637,-300 637,-312 637,-312 637,-318 631,-324 625,-324"/>
<text text-anchor="middle" x="540.5" y="-303.5" font-family="sans" font-size="10.00" fill="#000000">Calculate_Ex_Sequence_Similarities</text>
</g>
<!-- 11&#45;&gt;8 -->
<g id="edge13" class="edge">
<title>11&#45;&gt;8</title>
<path fill="none" stroke="#c0c0c0" stroke-width="2" d="M553.6218,-287.8314C559.5499,-279.6232 566.6729,-269.7606 573.1933,-260.7323"/>
<polygon fill="#c0c0c0" stroke="#c0c0c0" stroke-width="2" points="576.184,-262.5693 579.2015,-252.4133 570.5092,-258.4708 576.184,-262.5693"/>
</g>
<!-- 12 -->
<g id="node13" class="node">
<title>12</title>
<path fill="none" stroke="#56d87b" stroke-width="2" d="M836,-324C836,-324 667,-324 667,-324 661,-324 655,-318 655,-312 655,-312 655,-300 655,-300 655,-294 661,-288 667,-288 667,-288 836,-288 836,-288 842,-288 848,-294 848,-300 848,-300 848,-312 848,-312 848,-318 842,-324 836,-324"/>
<text text-anchor="middle" x="751.5" y="-303.5" font-family="sans" font-size="10.00" fill="#000000">Calculate_Sp_Sequence_Similarities</text>
</g>
<!-- 12&#45;&gt;8 -->
<g id="edge14" class="edge">
<title>12&#45;&gt;8</title>
<path fill="none" stroke="#c0c0c0" stroke-width="2" d="M711.3776,-287.8314C690.2068,-278.2446 664.0517,-266.4008 641.6697,-256.2655"/>
<polygon fill="#c0c0c0" stroke="#c0c0c0" stroke-width="2" points="642.8872,-252.9748 632.3339,-252.038 639.9997,-259.3515 642.8872,-252.9748"/>
</g>
<!-- 13 -->
<g id="node14" class="node">
<title>13</title>
<path fill="none" stroke="#d8c356" stroke-width="2" d="M186,-396C186,-396 77,-396 77,-396 71,-396 65,-390 65,-384 65,-384 65,-372 65,-372 65,-366 71,-360 77,-360 77,-360 186,-360 186,-360 192,-360 198,-366 198,-372 198,-372 198,-384 198,-384 198,-390 192,-396 186,-396"/>
<text text-anchor="middle" x="131.5" y="-375.5" font-family="sans" font-size="10.00" fill="#000000">Retrieve_Ex_Sequences</text>
</g>
<!-- 13&#45;&gt;9 -->
<g id="edge15" class="edge">
<title>13&#45;&gt;9</title>
<path fill="none" stroke="#c0c0c0" stroke-width="2" d="M128.2196,-359.8314C126.8292,-352.131 125.1759,-342.9743 123.6308,-334.4166"/>
<polygon fill="#c0c0c0" stroke="#c0c0c0" stroke-width="2" points="127.0458,-333.6322 121.8246,-324.4133 120.1572,-334.8761 127.0458,-333.6322"/>
</g>
<!-- 14 -->
<g id="node15" class="node">
<title>14</title>
<path fill="none" stroke="#9fd856" stroke-width="2" d="M384,-396C384,-396 275,-396 275,-396 269,-396 263,-390 263,-384 263,-384 263,-372 263,-372 263,-366 269,-360 275,-360 275,-360 384,-360 384,-360 390,-360 396,-366 396,-372 396,-372 396,-384 396,-384 396,-390 390,-396 384,-396"/>
<text text-anchor="middle" x="329.5" y="-375.5" font-family="sans" font-size="10.00" fill="#000000">Retrieve_Sp_Sequences</text>
</g>
<!-- 14&#45;&gt;10 -->
<g id="edge16" class="edge">
<title>14&#45;&gt;10</title>
<path fill="none" stroke="#c0c0c0" stroke-width="2" d="M329.5,-359.8314C329.5,-352.131 329.5,-342.9743 329.5,-334.4166"/>
<polygon fill="#c0c0c0" stroke="#c0c0c0" stroke-width="2" points="333.0001,-334.4132 329.5,-324.4133 326.0001,-334.4133 333.0001,-334.4132"/>
</g>
<!-- 15 -->
<g id="node16" class="node">
<title>15</title>
<path fill="none" stroke="#d8c356" stroke-width="2" d="M595,-396C595,-396 486,-396 486,-396 480,-396 474,-390 474,-384 474,-384 474,-372 474,-372 474,-366 480,-360 486,-360 486,-360 595,-360 595,-360 601,-360 607,-366 607,-372 607,-372 607,-384 607,-384 607,-390 601,-396 595,-396"/>
<text text-anchor="middle" x="540.5" y="-375.5" font-family="sans" font-size="10.00" fill="#000000">Retrieve_Ex_Sequences</text>
</g>
<!-- 15&#45;&gt;11 -->
<g id="edge17" class="edge">
<title>15&#45;&gt;11</title>
<path fill="none" stroke="#c0c0c0" stroke-width="2" d="M540.5,-359.8314C540.5,-352.131 540.5,-342.9743 540.5,-334.4166"/>
<polygon fill="#c0c0c0" stroke="#c0c0c0" stroke-width="2" points="544.0001,-334.4132 540.5,-324.4133 537.0001,-334.4133 544.0001,-334.4132"/>
</g>
<!-- 16 -->
<g id="node17" class="node">
<title>16</title>
<path fill="none" stroke="#9fd856" stroke-width="2" d="M793,-396C793,-396 684,-396 684,-396 678,-396 672,-390 672,-384 672,-384 672,-372 672,-372 672,-366 678,-360 684,-360 684,-360 793,-360 793,-360 799,-360 805,-366 805,-372 805,-372 805,-384 805,-384 805,-390 799,-396 793,-396"/>
<text text-anchor="middle" x="738.5" y="-375.5" font-family="sans" font-size="10.00" fill="#000000">Retrieve_Sp_Sequences</text>
</g>
<!-- 16&#45;&gt;12 -->
<g id="edge18" class="edge">
<title>16&#45;&gt;12</title>
<path fill="none" stroke="#c0c0c0" stroke-width="2" d="M741.7804,-359.8314C743.1708,-352.131 744.8241,-342.9743 746.3692,-334.4166"/>
<polygon fill="#c0c0c0" stroke="#c0c0c0" stroke-width="2" points="749.8428,-334.8761 748.1754,-324.4133 742.9542,-333.6322 749.8428,-334.8761"/>
</g>
<!-- 17 -->
<g id="node18" class="node">
<title>17</title>
<path fill="none" stroke="#56d8a2" stroke-width="2" d="M221.5,-468C221.5,-468 93.5,-468 93.5,-468 87.5,-468 81.5,-462 81.5,-456 81.5,-456 81.5,-444 81.5,-444 81.5,-438 87.5,-432 93.5,-432 93.5,-432 221.5,-432 221.5,-432 227.5,-432 233.5,-438 233.5,-444 233.5,-444 233.5,-456 233.5,-456 233.5,-462 227.5,-468 221.5,-468"/>
<text text-anchor="middle" x="157.5" y="-447.5" font-family="sans" font-size="10.00" fill="#000000">Build_Exonerate_Alignment</text>
</g>
<!-- 17&#45;&gt;13 -->
<g id="edge19" class="edge">
<title>17&#45;&gt;13</title>
<path fill="none" stroke="#c0c0c0" stroke-width="2" d="M150.9391,-431.8314C148.0973,-423.9617 144.7063,-414.5712 141.5581,-405.8533"/>
<polygon fill="#c0c0c0" stroke="#c0c0c0" stroke-width="2" points="144.8377,-404.63 138.1492,-396.4133 138.2538,-407.0076 144.8377,-404.63"/>
</g>
<!-- 18 -->
<g id="node19" class="node">
<title>18</title>
<path fill="none" stroke="#d8a456" stroke-width="2" d="M382,-468C382,-468 277,-468 277,-468 271,-468 265,-462 265,-456 265,-456 265,-444 265,-444 265,-438 271,-432 277,-432 277,-432 382,-432 382,-432 388,-432 394,-438 394,-444 394,-444 394,-456 394,-456 394,-462 388,-468 382,-468"/>
<text text-anchor="middle" x="329.5" y="-447.5" font-family="sans" font-size="10.00" fill="#000000">Build_Spaln_Alignment</text>
</g>
<!-- 18&#45;&gt;14 -->
<g id="edge20" class="edge">
<title>18&#45;&gt;14</title>
<path fill="none" stroke="#c0c0c0" stroke-width="2" d="M329.5,-431.8314C329.5,-424.131 329.5,-414.9743 329.5,-406.4166"/>
<polygon fill="#c0c0c0" stroke="#c0c0c0" stroke-width="2" points="333.0001,-406.4132 329.5,-396.4133 326.0001,-406.4133 333.0001,-406.4132"/>
</g>
<!-- 19 -->
<g id="node20" class="node">
<title>19</title>
<path fill="none" stroke="#56d8a2" stroke-width="2" d="M604.5,-468C604.5,-468 476.5,-468 476.5,-468 470.5,-468 464.5,-462 464.5,-456 464.5,-456 464.5,-444 464.5,-444 464.5,-438 470.5,-432 476.5,-432 476.5,-432 604.5,-432 604.5,-432 610.5,-432 616.5,-438 616.5,-444 616.5,-444 616.5,-456 616.5,-456 616.5,-462 610.5,-468 604.5,-468"/>
<text text-anchor="middle" x="540.5" y="-447.5" font-family="sans" font-size="10.00" fill="#000000">Build_Exonerate_Alignment</text>
</g>
<!-- 19&#45;&gt;15 -->
<g id="edge21" class="edge">
<title>19&#45;&gt;15</title>
<path fill="none" stroke="#c0c0c0" stroke-width="2" d="M540.5,-431.8314C540.5,-424.131 540.5,-414.9743 540.5,-406.4166"/>
<polygon fill="#c0c0c0" stroke="#c0c0c0" stroke-width="2" points="544.0001,-406.4132 540.5,-396.4133 537.0001,-406.4133 544.0001,-406.4132"/>
</g>
<!-- 20 -->
<g id="node21" class="node">
<title>20</title>
<path fill="none" stroke="#d8a456" stroke-width="2" d="M778,-468C778,-468 673,-468 673,-468 667,-468 661,-462 661,-456 661,-456 661,-444 661,-444 661,-438 667,-432 673,-432 673,-432 778,-432 778,-432 784,-432 790,-438 790,-444 790,-444 790,-456 790,-456 790,-462 784,-468 778,-468"/>
<text text-anchor="middle" x="725.5" y="-447.5" font-family="sans" font-size="10.00" fill="#000000">Build_Spaln_Alignment</text>
</g>
<!-- 20&#45;&gt;16 -->
<g id="edge22" class="edge">
<title>20&#45;&gt;16</title>
<path fill="none" stroke="#c0c0c0" stroke-width="2" d="M728.7804,-431.8314C730.1708,-424.131 731.8241,-414.9743 733.3692,-406.4166"/>
<polygon fill="#c0c0c0" stroke="#c0c0c0" stroke-width="2" points="736.8428,-406.8761 735.1754,-396.4133 729.9542,-405.6322 736.8428,-406.8761"/>
</g>
<!-- 21 -->
<g id="node22" class="node">
<title>21</title>
<path fill="none" stroke="#56d8c9" stroke-width="2" d="M393.5,-540C393.5,-540 265.5,-540 265.5,-540 259.5,-540 253.5,-534 253.5,-528 253.5,-528 253.5,-516 253.5,-516 253.5,-510 259.5,-504 265.5,-504 265.5,-504 393.5,-504 393.5,-504 399.5,-504 405.5,-510 405.5,-516 405.5,-516 405.5,-528 405.5,-528 405.5,-534 399.5,-540 393.5,-540"/>
<text text-anchor="middle" x="329.5" y="-519.5" font-family="sans" font-size="10.00" fill="#000000">Filter_Out_Useless_Regions</text>
</g>
<!-- 21&#45;&gt;17 -->
<g id="edge23" class="edge">
<title>21&#45;&gt;17</title>
<path fill="none" stroke="#c0c0c0" stroke-width="2" d="M286.0971,-503.8314C262.9909,-494.159 234.3962,-482.1891 210.0423,-471.9944"/>
<polygon fill="#c0c0c0" stroke="#c0c0c0" stroke-width="2" points="211.1667,-468.6709 200.5908,-468.038 208.4637,-475.128 211.1667,-468.6709"/>
</g>
<!-- 21&#45;&gt;18 -->
<g id="edge24" class="edge">
<title>21&#45;&gt;18</title>
<path fill="none" stroke="#c0c0c0" stroke-width="2" d="M329.5,-503.8314C329.5,-496.131 329.5,-486.9743 329.5,-478.4166"/>
<polygon fill="#c0c0c0" stroke="#c0c0c0" stroke-width="2" points="333.0001,-478.4132 329.5,-468.4133 326.0001,-478.4133 333.0001,-478.4132"/>
</g>
<!-- 22 -->
<g id="node23" class="node">
<title>22</title>
<path fill="none" stroke="#56d8c9" stroke-width="2" d="M604.5,-540C604.5,-540 476.5,-540 476.5,-540 470.5,-540 464.5,-534 464.5,-528 464.5,-528 464.5,-516 464.5,-516 464.5,-510 470.5,-504 476.5,-504 476.5,-504 604.5,-504 604.5,-504 610.5,-504 616.5,-510 616.5,-516 616.5,-516 616.5,-528 616.5,-528 616.5,-534 610.5,-540 604.5,-540"/>
<text text-anchor="middle" x="540.5" y="-519.5" font-family="sans" font-size="10.00" fill="#000000">Filter_Out_Useless_Regions</text>
</g>
<!-- 22&#45;&gt;19 -->
<g id="edge25" class="edge">
<title>22&#45;&gt;19</title>
<path fill="none" stroke="#c0c0c0" stroke-width="2" d="M540.5,-503.8314C540.5,-496.131 540.5,-486.9743 540.5,-478.4166"/>
<polygon fill="#c0c0c0" stroke="#c0c0c0" stroke-width="2" points="544.0001,-478.4132 540.5,-468.4133 537.0001,-478.4133 544.0001,-478.4132"/>
</g>
<!-- 22&#45;&gt;20 -->
<g id="edge26" class="edge">
<title>22&#45;&gt;20</title>
<path fill="none" stroke="#c0c0c0" stroke-width="2" d="M587.1833,-503.8314C612.2559,-494.0734 643.3367,-481.977 669.6809,-471.7242"/>
<polygon fill="#c0c0c0" stroke="#c0c0c0" stroke-width="2" points="671.1027,-474.9266 679.1524,-468.038 668.5638,-468.4033 671.1027,-474.9266"/>
</g>
<!-- 23 -->
<g id="node24" class="node">
<title>23</title>
<path fill="none" stroke="#d85656" stroke-width="2" d="M414,-612C414,-612 341,-612 341,-612 335,-612 329,-606 329,-600 329,-600 329,-588 329,-588 329,-582 335,-576 341,-576 341,-576 414,-576 414,-576 420,-576 426,-582 426,-588 426,-588 426,-600 426,-600 426,-606 420,-612 414,-612"/>
<text text-anchor="middle" x="377.5" y="-597" font-family="sans" font-size="10.00" fill="#000000">Find_Candidates</text>
<text text-anchor="middle" x="377.5" y="-586" font-family="sans" font-size="10.00" fill="#000000">query: proteins1</text>
</g>
<!-- 23&#45;&gt;21 -->
<g id="edge27" class="edge">
<title>23&#45;&gt;21</title>
<path fill="none" stroke="#c0c0c0" stroke-width="2" d="M365.3876,-575.8314C359.9719,-567.7079 353.4758,-557.9637 347.5079,-549.0118"/>
<polygon fill="#c0c0c0" stroke="#c0c0c0" stroke-width="2" points="350.2347,-546.7923 341.7755,-540.4133 344.4104,-550.6753 350.2347,-546.7923"/>
</g>
<!-- 24 -->
<g id="node25" class="node">
<title>24</title>
<path fill="none" stroke="#d85656" stroke-width="2" d="M553,-612C553,-612 480,-612 480,-612 474,-612 468,-606 468,-600 468,-600 468,-588 468,-588 468,-582 474,-576 480,-576 480,-576 553,-576 553,-576 559,-576 565,-582 565,-588 565,-588 565,-600 565,-600 565,-606 559,-612 553,-612"/>
<text text-anchor="middle" x="516.5" y="-597" font-family="sans" font-size="10.00" fill="#000000">Find_Candidates</text>
<text text-anchor="middle" x="516.5" y="-586" font-family="sans" font-size="10.00" fill="#000000">query: proteins2</text>
</g>
<!-- 24&#45;&gt;22 -->
<g id="edge28" class="edge">
<title>24&#45;&gt;22</title>
<path fill="none" stroke="#c0c0c0" stroke-width="2" d="M522.5562,-575.8314C525.1512,-568.0463 528.2424,-558.7729 531.1218,-550.1347"/>
<polygon fill="#c0c0c0" stroke="#c0c0c0" stroke-width="2" points="534.5203,-551.0069 534.3622,-540.4133 527.8795,-548.7933 534.5203,-551.0069"/>
</g>
<!-- 25 -->
<g id="node26" class="node">
<title>25</title>
<path fill="none" stroke="#59d856" stroke-width="2" d="M485,-684C485,-684 384,-684 384,-684 378,-684 372,-678 372,-672 372,-672 372,-660 372,-660 372,-654 378,-648 384,-648 384,-648 485,-648 485,-648 491,-648 497,-654 497,-660 497,-660 497,-672 497,-672 497,-678 491,-684 485,-684"/>
<text text-anchor="middle" x="434.5" y="-669" font-family="sans" font-size="10.00" fill="#000000">Build_DNA_Databases</text>
<text text-anchor="middle" x="434.5" y="-658" font-family="sans" font-size="10.00" fill="#000000">subject: genome</text>
</g>
<!-- 25&#45;&gt;23 -->
<g id="edge29" class="edge">
<title>25&#45;&gt;23</title>
<path fill="none" stroke="#c0c0c0" stroke-width="2" d="M420.1165,-647.8314C413.5514,-639.5386 405.6493,-629.557 398.4422,-620.4533"/>
<polygon fill="#c0c0c0" stroke="#c0c0c0" stroke-width="2" points="401.0284,-618.0813 392.0772,-612.4133 395.5401,-622.4262 401.0284,-618.0813"/>
</g>
<!-- 25&#45;&gt;24 -->
<g id="edge30" class="edge">
<title>25&#45;&gt;24</title>
<path fill="none" stroke="#c0c0c0" stroke-width="2" d="M455.1921,-647.8314C465.1948,-639.0485 477.355,-628.3712 488.1999,-618.8489"/>
<polygon fill="#c0c0c0" stroke="#c0c0c0" stroke-width="2" points="490.6094,-621.3909 495.8146,-612.1628 485.9908,-616.1308 490.6094,-621.3909"/>
</g>
</g>
</svg>
